<svg width="16" height="14" viewBox="0 0 16 14" fill="none" xmlns="http://www.w3.org/2000/svg">
<path d="M15.2602 6.25169L9.84321 0.834542C9.68858 0.679909 9.48249 0.595032 9.26273 0.595032C9.04273 0.595032 8.83676 0.680031 8.68213 0.834542L8.1903 1.32649C8.03579 1.48088 7.95067 1.6871 7.95067 1.90697C7.95067 2.12673 8.03579 2.3399 8.1903 2.49428L11.3505 5.66145H1.31036C0.85768 5.66145 0.5 6.01584 0.5 6.46864V7.16412C0.5 7.61692 0.85768 8.00704 1.31036 8.00704H11.3864L8.19042 11.1919C8.03591 11.3465 7.95079 11.5471 7.95079 11.767C7.95079 11.9866 8.03591 12.1902 8.19042 12.3447L8.68225 12.8351C8.83688 12.9897 9.04286 13.074 9.26285 13.074C9.48261 13.074 9.6887 12.9886 9.84334 12.834L15.2604 7.41693C15.4154 7.2618 15.5006 7.05473 15.5 6.83461C15.5005 6.61376 15.4154 6.40657 15.2602 6.25169Z" fill="#47518E"/>
</svg>
