<svg width="16" height="14" viewBox="0 0 16 14" fill="none" xmlns="http://www.w3.org/2000/svg">
<path d="M0.739756 6.25157L6.15679 0.83442C6.31142 0.679787 6.51751 0.59491 6.73727 0.59491C6.95727 0.59491 7.16324 0.679909 7.31787 0.83442L7.8097 1.32637C7.96421 1.48076 8.04933 1.68697 8.04933 1.90685C8.04933 2.1266 7.96421 2.33977 7.8097 2.49416L4.64948 5.66133H14.6896C15.1423 5.66133 15.5 6.01572 15.5 6.46852V7.164C15.5 7.6168 15.1423 8.00692 14.6896 8.00692H4.61363L7.80958 11.1918C7.96409 11.3464 8.04921 11.547 8.04921 11.7669C8.04921 11.9865 7.96409 12.1901 7.80958 12.3446L7.31775 12.8349C7.16312 12.9896 6.95714 13.0738 6.73715 13.0738C6.51739 13.0738 6.3113 12.9885 6.15666 12.8338L0.739635 7.4168C0.584636 7.26168 0.499393 7.05461 0.500003 6.83449C0.499515 6.61364 0.584636 6.40645 0.739756 6.25157Z" fill="#47518E"/>
</svg>
