<svg width="21" height="20" viewBox="0 0 21 20" fill="none" xmlns="http://www.w3.org/2000/svg">
<g clip-path="url(#clip0_116_824)">
<path d="M18.4226 13.1684C17.1887 13.1684 15.9803 12.9758 14.8339 12.5969C14.2749 12.4042 13.6411 12.5526 13.2727 12.9274L11.002 14.6421C8.39753 13.2527 6.73003 11.5863 5.35732 8.99897L7.02586 6.78213C7.44589 6.36109 7.59645 5.74737 7.41643 5.1716C7.03637 4.02 6.84268 2.81053 6.84268 1.57895C6.84268 0.708405 6.13422 0 5.26361 0H1.57908C0.708463 0 0 0.708405 0 1.57895C0 11.7358 8.26489 20 18.4226 20C19.2932 20 20.0016 19.2916 20.0016 18.4211V14.7474C20.0016 13.8768 19.2932 13.1684 18.4226 13.1684ZM18.9489 18.4211C18.9489 18.7116 18.7121 18.9474 18.4226 18.9474C8.8449 18.9474 1.0527 11.1558 1.0527 1.57895C1.0527 1.28842 1.28956 1.05262 1.57908 1.05262H5.26361C5.55312 1.05262 5.78998 1.28842 5.78998 1.57895C5.78998 2.92318 6.00054 4.24318 6.41317 5.49474C6.47422 5.69157 6.42477 5.89476 6.23212 6.09474L4.31616 8.63157C4.19511 8.79262 4.17617 9.0084 4.26775 9.18736C5.82892 12.2537 7.72489 14.1505 10.8136 15.7326C10.9915 15.8253 11.2094 15.8063 11.3704 15.6842L13.9622 13.72C14.1033 13.5811 14.3107 13.5327 14.4981 13.5947C15.7572 14.0106 17.0773 14.221 18.4226 14.221C18.7122 14.221 18.949 14.4569 18.949 14.7474V18.4211H18.9489Z" fill="#FF1C2D"/>
</g>
<defs>
<clipPath id="clip0_116_824">
<rect width="20.0016" height="20" fill="white"/>
</clipPath>
</defs>
</svg>
