<svg width="60" height="60" viewBox="0 0 60 60" fill="none" xmlns="http://www.w3.org/2000/svg">
<path d="M51.8699 19.2914V31.3945C51.8699 32.8594 51.734 34.3054 51.4715 35.7164H8.5293C8.26416 34.291 8.13078 32.8443 8.13086 31.3945V19.2914H51.8699Z" fill="white"/>
<path d="M51.8699 10.9172V31.3969C51.8699 32.6086 51.7785 33.8179 51.5934 35.0133C51.5043 35.6039 51.3918 36.1898 51.2582 36.7711C49.8707 42.7687 46.2543 47.925 41.0723 51.2929L31.2754 57.6633C30.895 57.9101 30.4512 58.0413 29.9977 58.0409C29.5442 58.0405 29.1006 57.9085 28.7207 57.6609L18.9285 51.2929C13.7465 47.925 10.1301 42.7687 8.74258 36.7734C8.60898 36.1922 8.49648 35.6039 8.40742 35.0133C8.22227 33.8179 8.13086 32.6062 8.13086 31.3969V10.9219C8.13086 8.82888 10.2801 8.57341 10.9059 8.15857C12.4293 7.47888 13.648 6.26013 14.3301 4.73669C14.7215 4.14373 15.0145 1.95935 17.091 1.95935H42.9145C44.998 1.95935 45.2629 4.10623 45.673 4.72498C46.358 6.2509 47.5788 7.47259 49.1043 8.15857C49.7184 8.56638 51.8699 8.83591 51.8699 10.9172Z" fill="white"/>
<path d="M55.8831 33.3726H4.11667C3.50331 33.3726 3.18409 32.6423 3.60034 32.1921L7.93558 27.5039L3.60034 22.8154C3.18409 22.3652 3.50331 21.6349 4.11667 21.6349H55.8831C56.4964 21.6349 56.8157 22.3652 56.3994 22.8154L52.0642 27.5036L56.3994 32.1918C56.8157 32.6423 56.4964 33.3726 55.8831 33.3726Z" fill="#FF1C2D"/>
<path d="M30.0001 40.2881C36.9468 40.2881 42.5783 34.6567 42.5783 27.7099C42.5783 20.7632 36.9468 15.1317 30.0001 15.1317C23.0533 15.1317 17.4219 20.7632 17.4219 27.7099C17.4219 34.6567 23.0533 40.2881 30.0001 40.2881Z" fill="#EFEFEF"/>
<path d="M27.84 33.6705C27.5629 33.6709 27.2886 33.6166 27.0327 33.5106C26.7767 33.4046 26.5443 33.2491 26.3486 33.053L22.5518 29.2561C22.1621 28.8594 21.9448 28.3248 21.9473 27.7687C21.9498 27.2125 22.1718 26.6799 22.565 26.2867C22.9583 25.8935 23.4909 25.6714 24.047 25.669C24.6031 25.6665 25.1377 25.8837 25.5344 26.2734L27.84 28.579L34.4641 21.9548C34.8608 21.5651 35.3954 21.3479 35.9515 21.3504C36.5076 21.3528 37.0403 21.5749 37.4335 21.9681C37.8267 22.3613 38.0487 22.894 38.0512 23.4501C38.0537 24.0062 37.8365 24.5408 37.4468 24.9375L29.3315 33.0527C29.1358 33.2489 28.9033 33.4044 28.6474 33.5104C28.3914 33.6164 28.117 33.6709 27.84 33.6705Z" fill="#FF1C2D"/>
<path d="M23.8867 2.54529C24.2103 2.54529 24.4727 2.28295 24.4727 1.95935C24.4727 1.63575 24.2103 1.37341 23.8867 1.37341C23.5631 1.37341 23.3008 1.63575 23.3008 1.95935C23.3008 2.28295 23.5631 2.54529 23.8867 2.54529Z" fill="#213353"/>
<path d="M43.7944 42.2648C43.5438 42.0797 43.1618 42.1383 42.9766 42.3867C42.7844 42.6469 42.8383 43.0148 43.0962 43.207C43.2212 43.2992 43.3777 43.3381 43.5315 43.3153C43.6852 43.2925 43.8236 43.2097 43.9165 43.0851C43.9165 43.0851 43.9188 43.0851 43.9188 43.0828C44.1087 42.8226 44.0547 42.457 43.7944 42.2648ZM22.1376 29.6702L25.9345 33.4671C26.9873 34.5201 28.6926 34.5204 29.7457 33.4671L31.3962 31.8143C31.6256 31.5869 31.6256 31.2143 31.3962 30.9869C31.1758 30.7666 30.7891 30.7643 30.5688 30.9869L28.9172 32.6386C28.7758 32.7801 28.6078 32.8923 28.423 32.9689C28.2382 33.0455 28.0401 33.0849 27.8401 33.0849C27.64 33.0849 27.442 33.0455 27.2572 32.9689C27.0723 32.8923 26.9044 32.7801 26.763 32.6386L22.9662 28.8417C22.681 28.5558 22.5209 28.1685 22.5209 27.7647C22.5209 27.361 22.681 26.9737 22.9662 26.6878C23.2521 26.4027 23.6394 26.2425 24.0432 26.2425C24.447 26.2425 24.8344 26.4027 25.1203 26.6878L27.4258 28.9933C27.6457 29.2132 28.0347 29.2132 28.2544 28.9933L34.8785 22.3692C35.4717 21.7755 36.4383 21.7753 37.0324 22.3692C37.3175 22.6551 37.4777 23.0425 37.4777 23.4463C37.4777 23.8501 37.3175 24.2374 37.0324 24.5233L33.8829 27.6729C33.7734 27.7827 33.7119 27.9315 33.7119 28.0865C33.7119 28.2416 33.7734 28.3904 33.8829 28.5002C33.9931 28.6098 34.1422 28.6714 34.2977 28.6714C34.4532 28.6714 34.6023 28.6098 34.7126 28.5002L37.8604 25.3526C38.9112 24.3019 38.9119 22.5914 37.8612 21.5404C36.8107 20.4902 35.1007 20.49 34.05 21.5404L27.8402 27.7502L25.949 25.859C24.8981 24.8081 23.1883 24.8083 22.1376 25.859C21.0869 26.91 21.0869 28.6195 22.1376 29.6702Z" fill="#213353"/>
<path d="M32.2259 29.3297C32.1163 29.4395 32.0547 29.5882 32.0547 29.7434C32.0547 29.8985 32.1163 30.0473 32.2259 30.1571C32.28 30.2119 32.3443 30.2555 32.4154 30.2853C32.4864 30.3151 32.5626 30.3304 32.6396 30.3304C32.7166 30.3304 32.7929 30.3151 32.8639 30.2853C32.9349 30.2555 32.9993 30.2119 33.0533 30.1571C33.2877 29.9271 33.2811 29.5531 33.0533 29.3297C32.833 29.1071 32.446 29.1071 32.2259 29.3297Z" fill="#213353"/>
<path d="M4.11605 33.9583H7.68347C7.78651 34.9496 7.94946 35.9338 8.17144 36.9054C9.59339 43.0497 13.3003 48.334 18.6089 51.784L28.4003 58.1515C28.8754 58.461 29.4302 58.626 29.9972 58.6265C30.5642 58.627 31.1192 58.463 31.5949 58.1543L41.3915 51.7842C46.7003 48.3335 50.4074 43.0488 51.8292 36.9026C52.0516 35.932 52.2147 34.9487 52.3176 33.9583H55.8843C57.0098 33.9583 57.5939 32.6193 56.8307 31.7941L52.8623 27.5039L56.831 23.2134C57.5948 22.3872 57.0084 21.0492 55.8843 21.0492H52.4557V10.9172C52.4557 8.89427 50.7977 8.23615 49.9068 7.88271C49.7128 7.8056 49.5117 7.72615 49.4282 7.6706C49.2778 7.57005 47.2659 6.84068 46.2075 4.48498C46.1315 4.31529 46.1824 4.51146 45.9478 3.91943C45.595 3.02951 44.9383 1.37341 42.9142 1.37341H26.2314C26.076 1.37341 25.927 1.43515 25.8171 1.54503C25.7072 1.65491 25.6455 1.80395 25.6455 1.95935C25.6455 2.11475 25.7072 2.26379 25.8171 2.37367C25.927 2.48356 26.076 2.54529 26.2314 2.54529H42.915C44.0521 2.54576 44.4529 3.3281 44.8584 4.35115C44.9585 4.6038 45.0461 4.82482 45.1563 5.00412C45.8973 6.62953 47.1998 7.93301 48.8247 8.67513C49.0031 8.78482 49.2229 8.87201 49.4746 8.97185C50.4996 9.37873 51.2838 9.78021 51.2838 10.9172V21.0492H47.7682V12.4336C47.7681 12.3207 47.7355 12.2102 47.6742 12.1154C47.6129 12.0206 47.5254 11.9455 47.4225 11.8992C44.9819 10.8019 43.0285 8.84766 41.9322 6.40662C41.8859 6.30365 41.8108 6.21625 41.716 6.15492C41.6212 6.0936 41.5107 6.06095 41.3978 6.06091H18.6096C18.4965 6.06091 18.3858 6.09364 18.2909 6.15515C18.196 6.21666 18.1209 6.30432 18.0747 6.40755C16.9945 8.82162 14.9913 10.8248 12.5789 11.9034C12.4756 11.9496 12.3879 12.0246 12.3264 12.1196C12.2649 12.2145 12.2322 12.3252 12.2322 12.4383V21.0492H8.71659V10.9219C8.71659 9.78021 9.49964 9.38037 10.5232 8.97654C10.7789 8.87552 11.0022 8.7874 11.1841 8.67583C12.8086 7.93993 14.1104 6.63881 14.8471 5.01466C14.9517 4.8431 15.0363 4.62912 15.1328 4.38443C15.5306 3.37849 15.9525 2.54576 17.0899 2.54529H21.5437C21.6991 2.54529 21.8481 2.48356 21.958 2.37367C22.0679 2.26379 22.1296 2.11475 22.1296 1.95935C22.1296 1.80395 22.0679 1.65491 21.958 1.54503C21.8481 1.43515 21.6991 1.37341 21.5437 1.37341H17.0908C15.0637 1.37341 14.4 3.05201 14.0435 3.95365C13.9689 4.14208 13.8918 4.33685 13.841 4.41396C13.7369 4.57099 13.012 6.57701 10.6671 7.62349C10.499 7.69873 10.7156 7.64083 10.0933 7.88646C9.20269 8.23802 7.54495 8.89216 7.54495 10.9219V21.0492H4.11605C2.99058 21.0492 2.40675 22.3884 3.16964 23.2134L7.13784 27.5039L3.16964 31.7941C2.40558 32.6205 2.99222 33.9583 4.11605 33.9583ZM50.6873 36.6389C49.3345 42.4875 45.8062 47.5172 40.7526 50.8017L30.9562 57.1718C30.6709 57.3569 30.3379 57.4553 29.9978 57.4549C29.6576 57.4545 29.3249 57.3554 29.04 57.1697L19.2475 50.8017C14.1946 47.5176 10.6666 42.4886 9.31331 36.6417C9.11151 35.7668 8.96175 34.8665 8.8612 33.9583H12.3979C13.1404 39.6588 16.3134 44.7009 21.1635 47.8535L29.0953 53.0123C29.3649 53.1869 29.6793 53.2797 30.0006 53.2797C30.3218 53.2796 30.6362 53.1867 30.9058 53.0121L38.8333 47.8561L38.8364 47.8547C40.1202 47.0197 41.3031 46.039 42.3614 44.932C42.4688 44.8194 42.5271 44.6688 42.5236 44.5133C42.5201 44.3577 42.455 44.2099 42.3426 44.1023C42.115 43.8867 41.7309 43.8961 41.5129 44.1234C40.5184 45.1644 39.4061 46.0862 38.1986 46.8703L38.1956 46.8729L30.2681 52.0291C30.1052 52.1346 29.8954 52.1348 29.7339 52.0298L21.8025 46.8712C17.2846 43.9347 14.3156 39.2554 13.5815 33.9586H18.4167C20.6451 38.073 25.0017 40.874 30.0002 40.874C34.9989 40.874 39.3555 38.073 41.5839 33.9586H46.4144C46.0954 36.2639 45.36 38.4579 44.2148 40.4838C44.1766 40.5507 44.1519 40.6245 44.1423 40.7009C44.1327 40.7774 44.1383 40.8549 44.1588 40.9292C44.1792 41.0035 44.2142 41.073 44.2616 41.1337C44.309 41.1944 44.368 41.2452 44.4351 41.283C44.7232 41.4426 45.0796 41.3381 45.2343 41.0604C46.4789 38.8582 47.2685 36.4701 47.5968 33.9586H51.1399C51.0412 34.86 50.8901 35.755 50.6873 36.6389ZM30.0002 15.7176C36.6128 15.7176 41.9925 21.0975 41.9925 27.7099C41.9925 34.3223 36.6128 39.7019 30.0002 39.7019C23.3878 39.7019 18.0079 34.3223 18.0079 27.7097C18.0079 21.097 23.3878 15.7176 30.0002 15.7176ZM55.9706 22.4177L51.8081 26.9179H47.5783C47.4229 26.9179 47.2739 26.9797 47.164 27.0896C47.0541 27.1994 46.9924 27.3485 46.9924 27.5039C46.9924 27.6593 47.0541 27.8083 47.164 27.9182C47.2739 28.0281 47.4229 28.0898 47.5783 28.0898H51.8081L55.9703 32.5898C55.9861 32.6064 55.9966 32.6273 56.0006 32.6499C56.0045 32.6725 56.0017 32.6957 55.9926 32.7167C55.9834 32.7377 55.9682 32.7555 55.949 32.7679C55.9297 32.7803 55.9072 32.7868 55.8843 32.7865H42.145C42.8194 31.1789 43.1659 29.4529 43.1643 27.7097C43.1655 25.8145 42.7548 23.9417 41.9608 22.2208H55.8841C55.907 22.2205 55.9296 22.227 55.9489 22.2394C55.9682 22.2518 55.9834 22.2696 55.9926 22.2906C56.0018 22.3116 56.0047 22.3349 56.0007 22.3575C55.9968 22.3801 55.9863 22.401 55.9706 22.4177ZM13.4041 12.8109C15.8062 11.6397 17.8099 9.6363 18.9822 7.23255H41.0254C42.2086 9.65976 44.1696 11.6215 46.5963 12.8058V21.0492H41.3482C39.0574 17.1616 34.8297 14.5458 30.0002 14.5458C25.1707 14.5458 20.943 17.1616 18.6525 21.0492H13.4041V12.8109ZM4.03003 32.5901L8.1923 28.0898H12.4221C12.5775 28.0898 12.7265 28.0281 12.8364 27.9182C12.9463 27.8083 13.008 27.6593 13.008 27.5039C13.008 27.3485 12.9463 27.1994 12.8364 27.0896C12.7265 26.9797 12.5775 26.9179 12.4221 26.9179H8.1923L4.03003 22.4177C4.01427 22.4011 4.00375 22.3802 3.9998 22.3576C3.99585 22.3351 3.99864 22.3118 4.00782 22.2909C4.017 22.2699 4.03216 22.2521 4.05141 22.2396C4.07066 22.2272 4.09314 22.2208 4.11605 22.2211H18.0396C17.2455 23.9419 16.8349 25.8147 16.836 27.7099C16.8345 29.4531 17.181 31.1792 17.8553 32.7867H4.11605C4.09319 32.7869 4.07078 32.7804 4.0516 32.7679C4.03242 32.7555 4.01732 32.7377 4.00815 32.7168C3.99899 32.6958 3.99618 32.6726 4.00007 32.6501C4.00396 32.6276 4.01438 32.6067 4.03003 32.5901Z" fill="#213353"/>
</svg>
