<svg width="60" height="60" viewBox="0 0 60 60" fill="none" xmlns="http://www.w3.org/2000/svg">
<path fill-rule="evenodd" clip-rule="evenodd" d="M11.5277 7.51172H40.2199C41.5652 7.51172 42.6656 8.61211 42.6656 9.95742V49.3687C42.6656 50.7105 41.5652 51.8109 40.2199 51.8109H11.5277C10.1824 51.8109 9.08203 50.7105 9.08203 49.3687V9.95742C9.08203 8.61211 10.1824 7.51172 11.5277 7.51172Z" fill="#F5F8F9"/>
<path fill-rule="evenodd" clip-rule="evenodd" d="M19.1406 5.23711H21.5734C21.5734 2.86172 23.4988 0.9375 25.873 0.9375C28.2484 0.9375 30.1727 2.86172 30.1727 5.23711H32.6055C33.6672 5.23711 34.5367 6.10312 34.5367 7.16484V9.45586C34.5367 10.5176 33.6684 11.3871 32.6055 11.3871H19.1406C18.0789 11.3871 17.2129 10.5187 17.2129 9.45586V7.16484C17.2129 6.10195 18.0789 5.23711 19.1406 5.23711Z" fill="#FF1C2D"/>
<path fill-rule="evenodd" clip-rule="evenodd" d="M42.6648 59.0625C47.2117 59.0625 50.9195 55.3547 50.9195 50.8078C50.9195 46.2609 47.2117 42.5531 42.6648 42.5531C38.118 42.5531 34.4102 46.2609 34.4102 50.8078C34.4113 55.3547 38.118 59.0625 42.6648 59.0625Z" fill="#FF1C2D"/>
<path fill-rule="evenodd" clip-rule="evenodd" d="M11.5277 7.51172H13.957C12.6117 7.51172 11.5113 8.61211 11.5113 9.95742V49.3687C11.5113 50.7105 12.6117 51.8109 13.957 51.8109H11.5277C10.1824 51.8109 9.08203 50.7105 9.08203 49.3687V9.95742C9.08203 8.61211 10.1824 7.51172 11.5277 7.51172Z" fill="#DDDFE0"/>
<path fill-rule="evenodd" clip-rule="evenodd" d="M19.1406 5.23711H20.6301C19.5719 5.23711 18.7023 6.10312 18.7023 7.16484V9.45586C18.7023 10.5176 19.5707 11.3871 20.6301 11.3871H19.1406C18.0789 11.3871 17.2129 10.5187 17.2129 9.45586V7.16484C17.2129 6.10195 18.0789 5.23711 19.1406 5.23711ZM21.5734 5.23711C21.5734 2.86172 23.4988 0.9375 25.873 0.9375C26.1273 0.9375 26.3781 0.95625 26.6195 1.00195C24.598 1.35234 23.0641 3.11602 23.0641 5.23711H21.5734Z" fill="#E63B4D"/>
<path fill-rule="evenodd" clip-rule="evenodd" d="M42.6648 42.5543C42.9613 42.5543 43.2543 42.5707 43.5438 42.5989C39.3988 43.0395 36.168 46.5446 36.168 50.8078C36.168 55.0688 39.3988 58.5762 43.5438 59.0145C43.2543 59.0461 42.9613 59.0625 42.6648 59.0625C38.1051 59.0625 34.4102 55.3653 34.4102 50.8078C34.4113 46.2481 38.1051 42.5543 42.6648 42.5543Z" fill="#FF1C2D"/>
<path d="M13.7035 16.1613C13.7035 15.6434 14.123 15.225 14.6398 15.225H37.1023C37.6203 15.225 38.0387 15.6445 38.0387 16.1613C38.0387 16.6781 37.6191 17.0977 37.1023 17.0977H14.641C14.123 17.0977 13.7035 16.6781 13.7035 16.1613ZM14.641 23.0473H23.3141C23.832 23.0473 24.2504 22.6277 24.2504 22.1109C24.2504 21.5941 23.8309 21.1746 23.3141 21.1746H14.641C14.123 21.1746 13.7047 21.5941 13.7047 22.1109C13.7047 22.6277 14.123 23.0473 14.641 23.0473ZM14.641 28.9969H37.1035C37.6215 28.9969 38.0398 28.5773 38.0398 28.0605C38.0398 27.5437 37.6203 27.1242 37.1035 27.1242H14.641C14.123 27.1242 13.7047 27.5437 13.7047 28.0605C13.7047 28.5773 14.123 28.9969 14.641 28.9969ZM14.641 34.9465H23.3141C23.832 34.9465 24.2504 34.527 24.2504 34.0102C24.2504 33.4934 23.8309 33.0738 23.3141 33.0738H14.641C14.123 33.0738 13.7047 33.4934 13.7047 34.0102C13.7047 34.527 14.123 34.9465 14.641 34.9465ZM38.0398 39.9586C38.0398 39.4406 37.6203 39.0223 37.1035 39.0223H14.641C14.123 39.0223 13.7047 39.4418 13.7047 39.9586C13.7047 40.4754 14.1242 40.8949 14.641 40.8949H37.1035C37.6203 40.8961 38.0398 40.4766 38.0398 39.9586ZM23.3141 44.9719H14.641C14.123 44.9719 13.7047 45.3914 13.7047 45.9082C13.7047 46.425 14.1242 46.8445 14.641 46.8445H23.3141C23.832 46.8445 24.2504 46.425 24.2504 45.9082C24.2504 45.3914 23.8309 44.9719 23.3141 44.9719ZM51.8551 50.8078C51.8551 55.8762 47.7312 59.9988 42.6629 59.9988C38.2613 59.9988 34.5746 56.8887 33.6793 52.7508H11.525C9.66172 52.7508 8.14648 51.2332 8.14648 49.3687V9.95976C8.14648 8.09531 9.66172 6.57773 11.525 6.57773H16.3355C16.6074 5.27812 17.7617 4.29844 19.141 4.29844H20.7195C21.1637 1.85742 23.3047 0 25.8723 0C28.441 0 30.5844 1.85742 31.0273 4.29844H32.6059C33.9852 4.29844 35.1395 5.27812 35.4113 6.57773H40.2195C42.084 6.57773 43.6016 8.09531 43.6016 9.95976V41.6648C48.2305 42.1348 51.8551 46.0559 51.8551 50.8078ZM18.1484 9.4582C18.1484 10.0055 18.5937 10.452 19.1422 10.452H32.6059C33.1531 10.452 33.5996 10.0066 33.5996 9.4582V7.16602C33.5996 6.62812 33.1449 6.17227 32.6059 6.17227H30.1742C29.6562 6.17227 29.2379 5.75273 29.2379 5.23594C29.2379 3.38203 27.7285 1.87383 25.8734 1.87383C24.0195 1.87383 22.5113 3.38203 22.5113 5.23594C22.5113 5.75391 22.0918 6.17227 21.575 6.17227H19.1434C18.5961 6.17227 18.1496 6.61758 18.1496 7.16602V9.4582H18.1484ZM33.4719 50.8078C33.4719 46.0559 37.0965 42.1348 41.7266 41.6637V9.95976C41.7266 9.12773 41.0504 8.45156 40.2184 8.45156H35.4711V9.4582C35.4711 11.0391 34.1855 12.3246 32.6047 12.3246H19.1422C17.5613 12.3246 16.2758 11.0391 16.2758 9.4582V8.45156H11.525C10.6953 8.45156 10.0203 9.12773 10.0203 9.95976V49.3699C10.0203 50.202 10.6953 50.8781 11.525 50.8781H33.473C33.4719 50.8547 33.4719 50.8312 33.4719 50.8078ZM49.9812 50.8078C49.9812 46.773 46.6988 43.4894 42.6629 43.4894C38.627 43.4894 35.3445 46.7719 35.3445 50.8078C35.3445 50.9098 35.348 51.0117 35.3527 51.1125C35.3551 51.1547 35.3562 51.1969 35.3586 51.2391C35.3598 51.2637 35.3621 51.2871 35.3645 51.3105C35.3738 51.4336 35.3844 51.559 35.4008 51.6891C35.8379 55.3102 38.927 58.125 42.6641 58.125C46.6988 58.1262 49.9812 54.8437 49.9812 50.8078ZM45.7555 48.0293L42.1859 51.5988L39.5727 48.9879C39.4857 48.9009 39.3824 48.8319 39.2688 48.7849C39.1551 48.7379 39.0333 48.7137 38.9103 48.7138C38.7873 48.7139 38.6655 48.7383 38.552 48.7855C38.4384 48.8327 38.3352 48.9019 38.2484 48.9891C38.1614 49.076 38.0925 49.1793 38.0454 49.2929C37.9984 49.4066 37.9743 49.5284 37.9744 49.6514C37.9745 49.7744 37.9988 49.8962 38.0461 50.0098C38.0933 50.1233 38.1625 50.2265 38.2496 50.3133L41.525 53.5852C41.7078 53.768 41.9469 53.8594 42.1871 53.8594C42.4273 53.8594 42.6664 53.768 42.8492 53.5852L47.0809 49.3535C47.2564 49.1779 47.3551 48.9397 47.3551 48.6914C47.3551 48.4431 47.2564 48.2049 47.0809 48.0293C46.7141 47.6637 46.1211 47.6637 45.7555 48.0293Z" fill="#213353"/>
</svg>
