<svg width="60" height="60" viewBox="0 0 60 60" fill="none" xmlns="http://www.w3.org/2000/svg">
<g clip-path="url(#clip0_250_4050)">
<path d="M59.1214 30C59.1214 37.7719 56.1166 44.7902 51.1552 50.0123C51.1552 50.0123 49.9797 51.0562 49.4098 51.5688C44.2513 56.2089 37.5721 58.4318 30.0876 58.4318C14.0044 58.4317 1.60352 46.0832 1.60352 30C1.60352 22.1747 4.08145 15.1223 9.10352 9.88992C9.77172 9.19371 11.1211 7.8273 11.1211 7.8273C16.2087 3.48012 22.7838 0.878906 30.0003 0.878906C46.0834 0.878906 59.1214 13.9168 59.1214 30Z" fill="#FF1C2D"/>
<path d="M51.1549 50.0123C45.8452 55.6467 38.3531 59.1211 30 59.1211C13.9172 59.1211 0.878906 46.0828 0.878906 30C0.878906 21.1066 4.83727 13.1687 11.1209 7.82727C6.20602 13.0421 3.22266 20.0437 3.22266 27.7734C3.22266 43.8562 16.2609 56.8945 32.3438 56.8945C39.5332 56.8945 46.0748 54.3307 51.1549 50.0123Z" fill="#FF1C2D"/>
<path d="M30 54.6094C43.5914 54.6094 54.6094 43.5914 54.6094 30C54.6094 16.4086 43.5914 5.39062 30 5.39062C16.4086 5.39062 5.39062 16.4086 5.39062 30C5.39062 43.5914 16.4086 54.6094 30 54.6094Z" fill="#F9F8F9"/>
<path d="M52.9056 10.6256C52.8315 10.536 52.7403 10.462 52.6374 10.4078C52.5345 10.3536 52.4219 10.3205 52.306 10.3102C52.1902 10.2998 52.0735 10.3126 51.9626 10.3478C51.8518 10.3829 51.749 10.4397 51.6602 10.5148C51.5715 10.59 51.4985 10.682 51.4456 10.7855C51.3927 10.8891 51.3608 11.0021 51.3519 11.1181C51.3429 11.234 51.3571 11.3506 51.3935 11.461C51.43 11.5714 51.488 11.6735 51.5641 11.7614C55.8705 16.8478 58.2422 23.325 58.2422 30C58.2422 45.5728 45.5728 58.2422 30 58.2422C14.4272 58.2422 1.75781 45.5728 1.75781 30C1.75781 14.4272 14.4272 1.75781 30 1.75781C36.9383 1.75781 43.609 4.2975 48.7833 8.90906C48.8694 8.98586 48.9699 9.04494 49.0789 9.08292C49.1879 9.1209 49.3033 9.13704 49.4185 9.13042C49.5338 9.1238 49.6466 9.09454 49.7505 9.04433C49.8544 8.99411 49.9474 8.92392 50.0242 8.83775C50.101 8.75159 50.1601 8.65114 50.1981 8.54215C50.2361 8.43315 50.2522 8.31774 50.2456 8.20251C50.239 8.08727 50.2097 7.97447 50.1595 7.87054C50.1093 7.76662 50.0391 7.6736 49.9529 7.5968C44.4561 2.69789 37.3702 0 30 0C21.9867 0 14.4531 3.12059 8.78672 8.78672C3.12059 14.4531 0 21.9867 0 30C0 38.0133 3.12059 45.547 8.78672 51.2133C14.4531 56.8794 21.9867 60 30 60C38.0133 60 45.547 56.8794 51.2133 51.2133C56.8795 45.5471 60 38.0133 60 30C60 22.9096 57.4805 16.029 52.9056 10.6256Z" fill="#213353"/>
<path d="M15.0814 9.33164C11.8794 11.6467 9.22195 14.7173 7.39594 18.2114C5.5091 21.8224 4.51172 25.8988 4.51172 30C4.51172 36.8082 7.16297 43.2088 11.977 48.023C16.7912 52.837 23.1919 55.4883 30 55.4883C31.0594 55.4883 32.126 55.4225 33.1699 55.293C33.4012 55.2643 33.6117 55.1448 33.7549 54.961C33.8982 54.7771 33.9626 54.5439 33.934 54.3125C33.8741 53.8308 33.4341 53.4901 32.9535 53.5485C31.9737 53.6697 30.9874 53.7304 30.0001 53.7305C16.9151 53.7305 6.26965 43.085 6.26965 30C6.26965 22.4058 9.94887 15.2119 16.1115 10.7561C16.3004 10.6195 16.4273 10.4134 16.4643 10.1833C16.5013 9.95311 16.4453 9.7177 16.3087 9.52881C16.1721 9.33992 15.9661 9.21303 15.7359 9.17605C15.5057 9.13908 15.2703 9.19504 15.0814 9.33164ZM36.2668 53.8207C36.3342 54.0439 36.4873 54.2312 36.6927 54.3414C36.898 54.4517 37.1387 54.476 37.362 54.4089C42.4958 52.8625 47.111 49.6414 50.3576 45.3393C53.7141 40.8913 55.4883 35.5871 55.4883 30C55.4883 23.1919 52.837 16.7912 48.023 11.977C43.2088 7.16297 36.8082 4.51172 30 4.51172C26.0277 4.51172 22.2218 5.40047 18.6882 7.15324C18.4819 7.25828 18.3254 7.44048 18.2527 7.66025C18.1799 7.88002 18.1968 8.11962 18.2997 8.32701C18.4025 8.53441 18.5831 8.69284 18.8021 8.76789C19.0211 8.84295 19.2608 8.82858 19.4693 8.72789C22.758 7.09664 26.3011 6.26953 30 6.26953C43.085 6.26953 53.7305 16.915 53.7305 30C53.7305 40.3877 46.791 49.7327 36.8549 52.7256C36.7444 52.7589 36.6415 52.8136 36.5521 52.8867C36.4627 52.9597 36.3886 53.0497 36.334 53.1513C36.2794 53.253 36.2454 53.3645 36.2339 53.4793C36.2223 53.5942 36.2335 53.7102 36.2668 53.8207Z" fill="#213353"/>
<path d="M46.4143 23.3426C46.2027 23.2449 45.9609 23.2354 45.7422 23.316C45.5235 23.3966 45.3457 23.5608 45.2481 23.7724L39.8415 35.4912C39.7439 35.7028 39.7343 35.9446 39.815 36.1633C39.8956 36.3821 40.0598 36.5598 40.2715 36.6574C40.4832 36.7551 40.7249 36.7646 40.9437 36.684C41.1624 36.6033 41.3401 36.4391 41.4377 36.2275L46.8443 24.5087C46.8926 24.4039 46.9199 24.2906 46.9244 24.1753C46.929 24.06 46.9108 23.9449 46.8708 23.8366C46.8309 23.7283 46.7701 23.6289 46.6917 23.5442C46.6134 23.4594 46.5191 23.3909 46.4143 23.3426ZM39.0203 23.2617C37.5609 23.2617 36.3737 24.5775 36.3737 26.1948C36.3737 27.8121 37.5609 29.1279 39.0203 29.1279C40.4796 29.1279 41.667 27.8121 41.667 26.1948C41.667 24.5775 40.4796 23.2617 39.0203 23.2617ZM39.0203 27.3701C38.5385 27.3701 38.1315 26.8318 38.1315 26.1948C38.1315 25.5578 38.5385 25.0195 39.0203 25.0195C39.502 25.0195 39.9091 25.5578 39.9091 26.1948C39.9091 26.8318 39.502 27.3701 39.0203 27.3701ZM44.9284 33.8052C44.9284 35.4225 46.1156 36.7383 47.575 36.7383C49.0343 36.7383 50.2216 35.4224 50.2216 33.8052C50.2216 32.188 49.0343 30.8721 47.575 30.8721C46.1156 30.8721 44.9284 32.1879 44.9284 33.8052ZM47.575 32.6298C48.0567 32.6298 48.4638 33.168 48.4638 33.8051C48.4638 34.4421 48.0567 34.9804 47.575 34.9804C47.0932 34.9804 46.6862 34.4421 46.6862 33.8051C46.6862 33.168 47.0931 32.6298 47.575 32.6298ZM13.6317 36.7383C13.8648 36.7383 14.0884 36.6457 14.2532 36.4809C14.418 36.316 14.5106 36.0925 14.5106 35.8594V24.1406C14.5106 23.9075 14.418 23.684 14.2532 23.5191C14.0884 23.3543 13.8648 23.2617 13.6317 23.2617H11.127C10.8939 23.2617 10.6703 23.3543 10.5055 23.5191C10.3406 23.684 10.248 23.9075 10.248 24.1406C10.248 24.3737 10.3406 24.5973 10.5055 24.7621C10.6703 24.9269 10.8939 25.0195 11.127 25.0195H12.7528V35.8594C12.7528 36.0925 12.8454 36.316 13.0102 36.4809C13.1751 36.6457 13.3986 36.7383 13.6317 36.7383ZM20.4653 36.7383C22.7453 36.7383 24.6001 34.8834 24.6001 32.6036V27.3966C24.6001 25.1166 22.7453 23.2617 20.4653 23.2617C18.1853 23.2617 16.3304 25.1166 16.3304 27.3966V32.6036C16.3305 34.8834 18.1854 36.7383 20.4653 36.7383ZM18.0884 27.3966C18.0884 26.0858 19.1546 25.0195 20.4654 25.0195C21.7761 25.0195 22.8424 26.0858 22.8424 27.3966V32.6036C22.8424 33.9143 21.7761 34.9805 20.4654 34.9805C19.1546 34.9805 18.0884 33.9142 18.0884 32.6036V27.3966ZM34.6782 27.3966C34.6782 25.1166 32.8234 23.2617 30.5434 23.2617C28.2635 23.2617 26.4087 25.1166 26.4087 27.3966V32.6036C26.4087 34.8834 28.2635 36.7383 30.5434 36.7383C32.8234 36.7383 34.6782 34.8834 34.6782 32.6036V27.3966ZM32.9204 32.6036C32.9204 33.9143 31.854 34.9805 30.5434 34.9805C29.2328 34.9805 28.1665 33.9142 28.1665 32.6036V27.3966C28.1665 26.0858 29.2328 25.0195 30.5434 25.0195C31.8541 25.0195 32.9204 26.0858 32.9204 27.3966V32.6036Z" fill="#213353"/>
</g>
<defs>
<clipPath id="clip0_250_4050">
<rect width="60" height="60" fill="white"/>
</clipPath>
</defs>
</svg>
