<svg width="21" height="20" viewBox="0 0 21 20" fill="none" xmlns="http://www.w3.org/2000/svg">
<g clip-path="url(#clip0_128_1417)">
<path d="M10.5055 0.0119629C7.85809 0.0119629 5.31906 1.06366 3.44717 2.93569C1.57513 4.80772 0.523438 7.34672 0.523438 9.99403C0.523438 12.6414 1.57513 15.1805 3.44717 17.0524C5.3192 18.9244 7.8582 19.9761 10.5055 19.9761C13.1529 19.9761 15.692 18.9244 17.5639 17.0524C19.4359 15.1803 20.4876 12.6414 20.4876 9.99403C20.4844 7.34754 19.4318 4.81043 17.5606 2.93902C15.6891 1.06775 13.1519 0.0151001 10.5055 0.0119629ZM15.6173 7.9977L9.82815 13.7878C9.59421 14.0218 9.27684 14.1532 8.94597 14.1532C8.6151 14.1532 8.29774 14.0218 8.0638 13.7878L5.39389 11.1172C5.18184 10.9124 5.04704 10.6409 5.01214 10.3481C4.9772 10.0555 5.04426 9.75966 5.20226 9.51086C5.40929 9.19892 5.7454 8.99653 6.11806 8.95938C6.49053 8.92223 6.86002 9.05424 7.12465 9.31902L8.54512 10.7395C8.76661 10.9608 9.12537 10.9608 9.34686 10.7395L13.8868 6.20055C14.1514 5.9356 14.5209 5.80355 14.8934 5.8407C15.266 5.87785 15.6021 6.08041 15.8091 6.39232C15.9668 6.64116 16.0338 6.93656 15.9989 7.22918C15.964 7.52162 15.8292 7.79307 15.6175 7.9977H15.6173Z" fill="#FF1C2D"/>
</g>
<defs>
<clipPath id="clip0_128_1417">
<rect width="20" height="20" fill="white" transform="translate(0.5)"/>
</clipPath>
</defs>
</svg>
