<svg width="14" height="14" viewBox="0 0 14 14" fill="none" xmlns="http://www.w3.org/2000/svg">
<g clip-path="url(#clip0_107_821)">
<path d="M7.00503 0.0083313C5.15184 0.0083313 3.37451 0.744517 2.06419 2.05494C0.753763 3.36536 0.0175781 5.14266 0.0175781 6.99578C0.0175781 8.84892 0.753763 10.6263 2.06419 11.9366C3.37461 13.2471 5.15191 13.9833 7.00503 13.9833C8.85817 13.9833 10.6355 13.2471 11.9459 11.9366C13.2563 10.6262 13.9925 8.84892 13.9925 6.99578C13.9903 5.14324 13.2534 3.36726 11.9436 2.05727C10.6335 0.74738 8.85752 0.0105274 7.00503 0.0083313ZM10.5833 5.59835L6.53087 9.65144C6.36712 9.81522 6.14496 9.90723 5.91335 9.90723C5.68174 9.90723 5.45959 9.81522 5.29583 9.65144L3.42689 7.78197C3.27846 7.63863 3.1841 7.44857 3.15967 7.24361C3.13521 7.03878 3.18215 6.83172 3.29276 6.65756C3.43767 6.4392 3.67295 6.29753 3.93381 6.27152C4.19455 6.24552 4.45318 6.33793 4.63843 6.52327L5.63275 7.5176C5.7878 7.67252 6.03893 7.67252 6.19398 7.5176L9.3719 4.34035C9.55712 4.15488 9.81578 4.06244 10.0765 4.08845C10.3374 4.11445 10.5726 4.25625 10.7176 4.47458C10.8279 4.64877 10.8748 4.85555 10.8504 5.06038C10.826 5.26509 10.7316 5.45511 10.5834 5.59835H10.5833Z" fill="#959EAD"/>
</g>
<defs>
<clipPath id="clip0_107_821">
<rect width="14" height="14" fill="white"/>
</clipPath>
</defs>
</svg>
