<svg width="24" height="24" viewBox="0 0 24 24" fill="none" xmlns="http://www.w3.org/2000/svg">
<path d="M12 0C5.37281 0 0 5.37281 0 12C0 18.6272 5.37281 24 12 24C18.6272 24 24 18.6272 24 12C24 5.37281 18.6272 0 12 0Z" fill="#E03757"/>
<path d="M5.63017 18.7233C12.8438 18.7233 18.6919 12.8751 18.6919 5.66155C18.6936 4.29653 18.481 2.93971 18.0619 1.64061C16.2238 0.562779 14.1308 -0.00367919 12 -1.28324e-05C5.37283 -1.28324e-05 1.36473e-05 5.3728 1.36473e-05 12C-0.00323796 14.1509 0.574616 16.2628 1.67251 18.1125C2.95245 18.5185 4.28738 18.7245 5.63017 18.7233Z" fill="#F04760"/>
<path d="M11.9954 20.1398C11.6097 20.1398 11.2327 20.0255 10.912 19.8112C10.5913 19.597 10.3413 19.2925 10.1936 18.9362C10.0459 18.5799 10.0072 18.1878 10.0823 17.8095C10.1574 17.4312 10.3429 17.0837 10.6155 16.8108C10.8881 16.538 11.2355 16.3521 11.6137 16.2766C11.992 16.2011 12.3841 16.2395 12.7405 16.3868C13.0969 16.5342 13.4017 16.7839 13.6162 17.1044C13.8308 17.4249 13.9455 17.8018 13.9459 18.1875C13.9461 18.4438 13.8958 18.6976 13.7979 18.9345C13.7 19.1713 13.5564 19.3866 13.3752 19.5679C13.1941 19.7492 12.979 19.893 12.7422 19.9912C12.5055 20.0893 12.2517 20.1398 11.9954 20.1398ZM13.8859 13.4226C13.853 13.724 13.7169 14.0048 13.5005 14.2172C13.2814 14.4311 12.9962 14.5644 12.6915 14.5954H12.6826C12.4915 14.6173 12.2993 14.6283 12.107 14.6283C11.8764 14.6294 11.6459 14.6185 11.4165 14.5954H11.4071C11.1026 14.5643 10.8176 14.431 10.5985 14.2172C10.3822 14.0048 10.246 13.724 10.2132 13.4226C10.1663 12.9825 10.1429 9.92576 10.1429 9.24467C10.1429 8.56357 10.1668 5.49888 10.2132 5.05873C10.2455 4.7565 10.3817 4.47485 10.5985 4.26185C10.8178 4.04833 11.1027 3.91505 11.4071 3.88357H11.4165C11.6459 3.86066 11.8766 3.85361 12.107 3.86248C12.2989 3.8536 12.4913 3.86065 12.6821 3.88357H12.6915C12.9966 3.91597 13.2817 4.05061 13.5005 4.2656C13.7174 4.4786 13.8536 4.76025 13.8859 5.06248C13.9327 5.50263 13.9562 8.56779 13.9562 9.24842C13.9562 9.92904 13.9323 12.9844 13.8859 13.4226Z" fill="white"/>
</svg>
