<svg width="24" height="24" viewBox="0 0 24 24" fill="none" xmlns="http://www.w3.org/2000/svg">
<g clip-path="url(#clip0_128_1898)">
<path fill-rule="evenodd" clip-rule="evenodd" d="M0.0234375 12C0.0234375 8.69253 1.19282 5.86948 3.53141 3.53061C5.87017 1.19203 8.69323 0.022644 12.0008 0.022644C15.3083 0.022644 18.1313 1.19203 20.4701 3.53061C22.8087 5.86938 23.9781 8.69244 23.9781 12C23.9781 15.3075 22.8087 18.1305 20.4701 20.4693C18.1313 22.8079 15.3083 23.9773 12.0008 23.9773C8.69323 23.9773 5.87027 22.8079 3.53141 20.4693C1.19282 18.1306 0.0234375 15.3075 0.0234375 12ZM10.4037 12C10.4037 11.2471 10.6698 10.7605 11.2021 10.5401V4.81384C11.2021 4.59337 11.28 4.40515 11.436 4.2492C11.5919 4.09324 11.7802 4.01536 12.0006 4.01536C12.2211 4.01536 12.4093 4.09324 12.5653 4.2492C12.7212 4.40515 12.7991 4.59337 12.7991 4.81384V10.5401C13.3315 10.7605 13.5976 11.2471 13.5976 12C13.5976 12.1557 13.5862 12.3003 13.5634 12.4334L15.6221 14.4922C15.7781 14.6481 15.856 14.8364 15.856 15.0568C15.856 15.2773 15.7781 15.4655 15.6221 15.6215C15.4663 15.7774 15.2781 15.8553 15.0575 15.8553C14.837 15.8553 14.6488 15.7774 14.4928 15.6215L12.4341 13.5627C12.3011 13.5855 12.1566 13.5969 12.0006 13.5969C10.936 13.5969 10.4037 13.0645 10.4037 12Z" fill="#616F89"/>
</g>
<defs>
<clipPath id="clip0_128_1898">
<rect width="24" height="24" fill="white"/>
</clipPath>
</defs>
</svg>
