<svg width="21" height="20" viewBox="0 0 21 20" fill="none" xmlns="http://www.w3.org/2000/svg">
<path d="M18.9428 11.7059C18.531 11.7059 18.2368 12.0588 18.2368 12.4119V17.0588C18.2368 17.8823 17.7075 18.5294 17.0603 18.5294H2.58847C1.94135 18.5294 1.412 17.8823 1.412 17.0588V12.4117C1.412 11.9999 1.05909 11.7058 0.705998 11.7058C0.353088 11.7058 0 12.0586 0 12.4117L0.000205179 17.0588C0.000205179 18.7058 1.17668 20 2.6474 20H17.0604C18.5312 20 19.7076 18.7058 19.7076 17.0588V12.4117C19.7078 12.0588 19.3549 11.7059 18.9431 11.7059H18.9428Z" fill="#FF1C2D"/>
<path d="M9.05958 15.4707C9.17715 15.6471 9.41249 15.7649 9.64782 15.7649C9.82427 15.7649 10.0007 15.706 10.1772 15.5295L15.1776 10.5295C15.4718 10.2353 15.4718 9.76489 15.1776 9.47072C14.8833 9.17651 14.4128 9.17651 14.1186 9.47072L10.3536 13.2355V0.705941C10.3536 0.294183 10.0007 0 9.64761 0C9.2947 0 8.94161 0.352881 8.94161 0.705941V13.2355L5.11789 9.41205C4.82367 9.11785 4.35317 9.11785 4.05898 9.41205C3.76475 9.70626 3.76475 10.1767 4.05898 10.4709L9.05958 15.4707Z" fill="#FF1C2D"/>
</svg>
