<svg width="56" height="56" viewBox="0 0 56 56" fill="none" xmlns="http://www.w3.org/2000/svg">
<path d="M7.66169 37.1671C7.40041 33.6286 8.64243 30.1358 9.84561 26.7551C11.4773 22.1679 13.0309 17.8025 10.0315 14.489C9.68722 14.1082 9.64347 13.5597 9.88612 13.1372L13.4165 7.02139C13.632 6.64547 14.0278 6.43684 14.4329 6.44129C16.7554 6.47289 19.002 6.19905 21.1689 5.61895C23.332 5.03926 25.4118 4.1537 27.4065 2.96432C27.7893 2.73584 28.2507 2.75285 28.6068 2.97039C30.5966 4.15688 32.6744 5.04002 34.8335 5.61807C37.0011 6.19899 39.2482 6.47283 41.5698 6.44042C42.0171 6.43475 42.408 6.6847 42.6057 7.05414L46.117 13.137C46.3763 13.5891 46.2969 14.1445 45.9566 14.5063C42.9771 17.8171 44.5266 22.1747 46.1555 26.7558C47.3594 30.14 48.6027 33.6352 48.343 37.1657H52.9717C53.154 37.1685 53.3395 37.2115 53.5117 37.3022C54.0776 37.6 54.2951 38.3016 53.9974 38.8675L51.9658 42.7058L53.9577 46.4688C54.0695 46.6478 54.1339 46.8585 54.1339 47.0849C54.1339 47.7262 53.6133 48.2467 52.9721 48.2467H40.1697C38.7657 49.0642 37.1262 49.8643 35.2272 50.6413C33.2175 51.4636 30.9279 52.2559 28.3247 53.0111C28.1059 53.0743 27.8835 53.0703 27.6798 53.0111C25.0766 52.256 22.7862 51.4636 20.7766 50.6413C18.8771 49.8643 17.2364 49.0642 15.8324 48.2467H3.02899C2.38772 48.2467 1.86719 47.7262 1.86719 47.0849C1.86719 46.8585 1.9316 46.6478 2.0434 46.4688L4.03526 42.7058L2.00368 38.8675C1.70594 38.3016 1.92347 37.6 2.48939 37.3022C2.66156 37.2115 2.84669 37.1685 3.02938 37.1694L7.6629 37.1681L7.66169 37.1671ZM29.5828 15.609L31.0533 16.8598C31.6982 16.9348 32.3691 16.9498 33.0173 17.017C33.599 17.0725 34.1204 17.3298 34.5093 17.7174C34.9099 18.1193 35.17 18.6536 35.2178 19.2524L35.3693 21.1758L36.621 22.6471C37.0139 23.1073 37.2116 23.6692 37.2116 24.2303C37.2116 24.7893 37.0139 25.3532 36.621 25.8134L35.3701 27.284C35.287 27.9179 35.2794 28.605 35.2129 29.2479C35.1574 29.8296 34.9002 30.351 34.5125 30.7399C34.1107 31.1406 33.5763 31.4006 32.9776 31.4484L31.0542 31.5999L29.5828 32.8517C29.1226 33.2446 28.5607 33.4423 27.9997 33.4423C27.4386 33.4423 26.8767 33.2446 26.4165 32.8517L24.946 31.6008C24.3011 31.5258 23.6302 31.5108 22.982 31.4436C22.4003 31.3881 21.8789 31.1309 21.49 30.7432C21.0894 30.3413 20.8293 29.807 20.7815 29.2083C20.7313 28.5743 20.6977 27.9124 20.63 27.284L19.3783 25.8135C18.9853 25.3533 18.7877 24.7894 18.7877 24.2303C18.7877 23.6693 18.9853 23.1074 19.3783 22.6472L20.6292 21.1766C20.7041 20.5317 20.7191 19.8608 20.7863 19.2127C20.8418 18.631 21.0991 18.1096 21.4868 17.7207C21.8886 17.32 22.4229 17.06 23.0217 17.0122L24.9451 16.8607L26.4165 15.609C26.8766 15.216 27.4385 15.0183 27.9996 15.0183C28.5607 15.0183 29.1225 15.216 29.5828 15.609ZM29.5155 18.5998L28.0766 17.3691C28.056 17.3521 28.028 17.3424 27.9997 17.3424C27.9717 17.3424 27.9433 17.3521 27.9227 17.3691L26.4821 18.5998C26.2804 18.772 26.0645 18.9056 25.834 19.0017H25.8251C25.5856 19.0997 25.3402 19.1592 25.0906 19.1787L23.2029 19.3269C23.1705 19.329 23.1437 19.3415 23.1267 19.3573C23.1121 19.3731 23.1008 19.397 23.0972 19.4226L22.9477 21.3224C22.9278 21.5805 22.8695 21.828 22.7707 22.0658C22.6755 22.2971 22.541 22.5122 22.3688 22.7147L21.1381 24.1536C21.1211 24.1743 21.1114 24.2022 21.1114 24.2306C21.1114 24.2594 21.1211 24.2877 21.1381 24.3076L22.3688 25.7481C22.541 25.9499 22.6746 26.1646 22.7707 26.3963V26.4052C22.8626 26.63 22.9209 26.8613 22.9436 27.0999L23.096 29.0274C23.098 29.0598 23.1105 29.0865 23.1263 29.1035C23.1421 29.1181 23.166 29.1295 23.1916 29.1331L25.0914 29.2826C25.3495 29.3025 25.597 29.3608 25.8348 29.4596C26.0661 29.5548 26.2812 29.6893 26.4837 29.8615L27.9226 31.0921C27.9433 31.1092 27.9713 31.1189 27.9996 31.1189C28.0276 31.1189 28.0559 31.1092 28.0766 31.0921L29.5171 29.8615C29.7189 29.6893 29.9348 29.5556 30.1653 29.4596H30.1742C30.4136 29.3616 30.6591 29.302 30.9086 29.2826L32.7964 29.1343C32.8288 29.1323 32.8555 29.1198 32.8725 29.104C32.8871 29.0882 32.8985 29.0643 32.9021 29.0387L33.0516 27.1389C33.0722 26.8776 33.131 26.6301 33.2286 26.3955C33.3238 26.1642 33.4583 25.9483 33.6305 25.7465L34.8611 24.3076C34.8781 24.2878 34.8879 24.2594 34.8879 24.2307C34.8879 24.2027 34.8781 24.1744 34.8611 24.1537L33.6305 22.7132C33.4583 22.5114 33.3246 22.2955 33.2286 22.065V22.0561C33.1306 21.8167 33.071 21.5712 33.0516 21.3216L32.9033 19.4339C32.9013 19.4015 32.8887 19.3748 32.8729 19.3578C32.8571 19.3432 32.8332 19.3318 32.8077 19.3282L30.9078 19.1787C30.6498 19.1589 30.4023 19.1005 30.1645 19.0017C29.9332 18.9065 29.7181 18.772 29.5155 18.5998ZM24.5794 25.2709C24.1261 24.8204 24.1245 24.0864 24.5753 23.6331C25.0258 23.1798 25.7599 23.1782 26.2131 23.6291L27.3996 24.8155L29.7128 22.0431C30.1207 21.5521 30.8507 21.4849 31.3416 21.8928C31.8326 22.3007 31.8999 23.0308 31.4919 23.5217L28.2977 27.3466C27.8473 27.7999 27.1132 27.8016 26.6599 27.3507L24.5794 25.2709ZM46.012 37.1648C46.2891 34.0488 45.1095 30.7327 43.9687 27.5264C42.1949 22.5377 40.5027 17.7794 43.7095 13.5937L40.9171 8.75606C38.6125 8.73419 36.3837 8.43563 34.2343 7.85959C32.0852 7.28394 30.0063 6.4296 28.0014 5.29694C25.9958 6.4296 23.9172 7.28392 21.7686 7.86042C19.6188 8.43606 17.3911 8.73421 15.0861 8.75608L12.2929 13.5937C15.4996 17.7799 13.8068 22.5382 12.0324 27.5254C10.8889 30.737 9.70839 34.0555 9.98425 37.1663L12.8013 37.165V35.4941C12.8013 34.8528 13.3218 34.3323 13.9631 34.3323H42.0359C42.6772 34.3323 43.1977 34.8528 43.1977 35.4941V37.165H46.0119L46.012 37.1648ZM21.5751 45.4129V47.0839C21.5751 47.5725 21.2725 47.9905 20.8451 48.1622C21.1064 48.2749 21.3733 48.3871 21.6464 48.4989C23.4835 49.2499 25.592 49.9831 28.0007 50.6924C30.4097 49.9831 32.5182 49.2499 34.3542 48.4989C34.6264 48.3879 34.8934 48.2753 35.1547 48.1626C34.7261 47.9917 34.4235 47.5728 34.4235 47.0839V45.4129H21.5745L21.5751 45.4129ZM12.8007 39.4884H4.95361L6.37021 42.1649C6.54116 42.4914 6.55453 42.8941 6.37021 43.2445L4.95361 45.9217H19.2514V45.4129H13.9628C13.3216 45.4129 12.801 44.8924 12.801 44.2511L12.8007 39.4884ZM36.7472 45.4129V45.9217H51.0449L49.6283 43.2445C49.444 42.8941 49.4574 42.4914 49.6283 42.1649L51.0449 39.4884H43.1974V44.2507C43.1974 44.892 42.6768 45.4125 42.0356 45.4125H36.7479L36.7472 45.4129ZM40.873 36.6556H15.1242V43.0889H40.873V36.6556Z" fill="#616F89"/>
</svg>
