<svg width="56" height="56" viewBox="0 0 56 56" fill="none" xmlns="http://www.w3.org/2000/svg">
<path d="M28 0C12.5597 0 0 12.561 0 28C0 43.439 12.561 56 28 56C43.439 56 56 43.439 56 28C56 12.561 43.439 0 28 0ZM28 53.617C13.8747 53.617 2.38422 42.1259 2.38422 28.0012C2.38422 13.8759 13.8753 2.38544 28 2.38544C42.1253 2.38544 53.6158 13.8765 53.6158 28.0012C53.6158 42.1265 42.1247 53.617 28 53.617Z" fill="#616F89"/>
<path d="M37.8726 27.5661C35.559 27.5661 33.7439 28.3767 32.4258 29.9965C31.1072 31.6183 30.4481 33.9101 30.4481 36.8719C30.4481 39.8778 31.1067 42.1962 32.4258 43.8275C33.7444 45.4597 35.56 46.2751 37.8726 46.2751C40.2071 46.2751 42.0394 45.4535 43.3685 43.8113C44.6981 42.1691 45.3632 39.8564 45.3632 36.8719C45.3632 33.9101 44.6985 31.6183 43.3685 29.9965C42.0404 28.3762 40.2082 27.5661 37.8726 27.5661ZM41.3262 42.5551C40.4937 43.7473 39.3423 44.3426 37.8731 44.3426C36.4248 44.3426 35.2844 43.7472 34.4519 42.5551C33.6194 41.3643 33.204 39.4693 33.204 36.871C33.204 34.2956 33.6194 32.422 34.4519 31.2525C35.2844 30.0822 36.4238 29.4972 37.8731 29.4972C39.3219 29.4972 40.467 30.0821 41.3105 31.2525C42.154 32.4219 42.575 34.2956 42.575 36.871C42.5745 39.4692 42.1588 41.3643 41.3262 42.5551Z" fill="#616F89"/>
<path d="M23.5259 26.02C24.8555 24.4102 25.5198 22.1132 25.5198 19.1291C25.5198 17.6475 25.3468 16.3275 25.0014 15.1681C24.6555 14.0087 24.1627 13.027 23.526 12.2221C22.8883 11.4166 22.1099 10.7999 21.1915 10.3703C20.2725 9.94119 19.2405 9.72593 18.0948 9.72593C15.7603 9.72593 13.9333 10.5466 12.6151 12.1892C11.2965 13.8314 10.6369 16.1451 10.6369 19.1296C10.6369 22.1141 11.2955 24.4112 12.6151 26.0205C13.9333 27.6303 15.7602 28.4362 18.0948 28.4362C20.3856 28.4358 22.197 27.6303 23.5259 26.02ZM14.625 24.7485C13.7825 23.5791 13.3605 21.7054 13.3605 19.1291C13.3605 16.5318 13.782 14.6425 14.625 13.4612C15.4684 12.2809 16.6246 11.6902 18.0943 11.6902C19.5426 11.6902 20.683 12.2809 21.5155 13.4612C22.3471 14.6425 22.7643 16.5313 22.7643 19.1291C22.7643 21.7055 22.3476 23.5786 21.5155 24.7485C20.683 25.9188 19.5426 26.5033 18.0943 26.5033C16.6246 26.5033 15.468 25.9188 14.625 24.7485Z" fill="#616F89"/>
<path d="M32.7076 16.4831L13.8357 51.744H16.6568L35.5286 16.4831H32.7076Z" fill="#616F89"/>
<path d="M39.4588 3.89297L20.587 39.1539H23.408L42.2799 3.89297H39.4588Z" fill="#616F89"/>
</svg>
