<svg width="56" height="56" viewBox="0 0 56 56" fill="none" xmlns="http://www.w3.org/2000/svg">
<g clip-path="url(#clip0_140_13626)">
<path d="M0.828952 50.4821C0.542597 50.4815 0.267941 50.5947 0.0652658 50.7974L0.0649977 50.7976L5.14159 50.7321V50.4821M0.828952 50.4821L0.82841 50.7321V50.4821H0.828952ZM0.828952 50.4821H5.14159M5.14159 50.4821H5.39159L48.5194 52.3846C48.9761 52.3855 49.3469 52.0167 49.3478 51.5605C49.3483 51.3405 49.2614 51.1297 49.1058 50.9741C48.9502 50.8185 48.7394 50.7316 48.5194 50.7321V50.4821H48.5189H44.2058V40.1765C44.2058 39.3212 43.489 38.6059 42.6342 38.6059H35.1834C34.3283 38.6059 33.6127 39.3215 33.6127 40.1765V50.4821H29.9703V29.7437C29.9703 28.8889 29.2549 28.1721 28.3996 28.1721H20.9488C20.0938 28.1721 19.3772 28.8886 19.3772 29.7437V50.4821H15.7356V15.2441C15.7356 14.3891 15.0191 13.6725 14.164 13.6725H6.71221C5.85691 13.6725 5.14159 14.3893 5.14159 15.2441V50.4821ZM28.0475 23.1588C35.3342 29.8003 44.1118 35.9362 52.5401 38.6531L47.4646 41.587C46.9492 41.8829 46.7709 42.5403 47.0667 43.0563L47.0675 43.0576C47.3659 43.5706 48.0233 43.7451 48.5369 43.448L55.5409 39.4075L55.5411 39.4074C56.2118 39.0197 56.4519 38.1324 56.0642 37.4605L56.0642 37.4604L52.0182 30.4561L52.0178 30.4555C51.8259 30.1254 51.4738 29.9215 51.0917 29.9196H51.0913C50.9007 29.919 50.7129 29.9689 50.5479 30.0649L50.5477 30.065C50.035 30.3639 49.8606 31.0205 50.1569 31.5344L50.157 31.5345L53.0545 36.5554C45.1425 33.9643 36.6011 28.0432 29.4964 21.5676C22.2944 15.0031 16.5834 7.8574 14.4383 3.33222L14.4384 3.33214L14.3648 3.17357C14.1859 2.78843 13.7981 2.54445 13.3735 2.55008L13.1685 2.5528L13.1643 2.57557C13.0857 2.59219 13.0091 2.61762 12.9358 2.65141C12.676 2.77077 12.474 2.98828 12.3746 3.25652L12.3744 3.25719C12.2756 3.52585 12.2875 3.82216 12.4075 4.08208L12.4075 4.08214C14.7312 9.11332 20.6243 16.3916 28.0475 23.1588L28.0475 23.1588ZM0.828935 52.6346H48.5189L0.82841 52.3846V52.6346H0.828935ZM7.29838 15.8236H13.5783V50.4673H7.29875L7.29838 15.8236ZM21.5336 30.3232H27.8136V50.4673L21.5336 50.4678V30.3232ZM35.764 40.7577H42.0492V50.4676H35.764V40.7577Z" fill="#616F89" stroke="#616F89" stroke-width="0.5"/>
</g>
<defs>
<clipPath id="clip0_140_13626">
<rect width="56" height="56" fill="white"/>
</clipPath>
</defs>
</svg>
