<svg width="50" height="50" viewBox="0 0 50 50" fill="none" xmlns="http://www.w3.org/2000/svg">
<path d="M6.06884 48.3333H43.1864C44.3546 48.3322 45.4744 47.867 46.3 47.0408C47.1255 46.2142 47.5893 45.094 47.5893 43.9259V20.3554C47.589 19.9877 47.4264 19.6388 47.1451 19.402L41.0001 14.2109V5.16077C41.0001 4.23419 40.6321 3.34532 39.9768 2.68998C39.3215 2.03468 38.4326 1.66669 37.506 1.66669H11.9941C11.0673 1.66669 10.1786 2.03473 9.52331 2.68998C8.86801 3.34528 8.49966 4.23419 8.49966 5.16077V14.0212L2.11031 19.4021C1.82898 19.6389 1.66636 19.9878 1.66602 20.3554V43.926C1.66602 45.0941 2.1298 46.2143 2.95538 47.0409C3.78094 47.8671 4.90071 48.3323 6.06894 48.3334L6.06884 48.3333ZM43.182 45.8374H6.06884C5.56256 45.8364 5.07754 45.6344 4.72028 45.2758C4.36269 44.9175 4.16178 44.4321 4.16178 43.9258V22.7361L18.3881 32.7997L8.28972 40.5268C7.73853 40.9405 7.62677 41.7225 8.04007 42.2741C8.45372 42.8253 9.23611 42.937 9.78733 42.5234L20.5248 34.3071L24.0189 36.8029C24.451 37.109 25.0293 37.109 25.4615 36.8029L28.9556 34.3071L39.6975 42.5084C40.249 42.9221 41.031 42.8103 41.4447 42.2591C41.8584 41.7076 41.7466 40.9255 41.1951 40.5119L31.1172 32.7997L45.0939 22.9162V43.9312V43.9308C45.0925 44.436 44.8913 44.9204 44.5337 45.2776C44.1764 45.6348 43.6925 45.8364 43.1869 45.8375L43.182 45.8374ZM44.395 20.3496L41.0005 22.7507V17.4746L44.395 20.3496ZM11.9937 4.16672H37.511C37.7759 4.16672 38.0298 4.27187 38.2171 4.45884C38.4041 4.64618 38.5092 4.9 38.5092 5.16498V24.5024L24.7518 34.2415L10.9997 24.5024V5.15963C11.0025 4.61228 11.4454 4.16905 11.9932 4.16655L11.9937 4.16672ZM8.4996 22.7509L4.9655 20.2551L8.4996 17.2599V22.7509ZM24.6272 27.8324H24.9468C25.6359 27.8324 26.1947 27.2736 26.1947 26.5845C26.1947 25.8951 25.6359 25.3366 24.9468 25.3366H24.6272C22.5168 25.3366 20.4931 24.4982 19.0008 23.0058C17.5088 21.5139 16.6703 19.4902 16.6703 17.3798C16.6703 15.2694 17.5087 13.2457 19.0008 11.7534C20.4931 10.2614 22.5168 9.42286 24.6272 9.42286C26.7376 9.42286 28.7613 10.2613 30.2536 11.7534C31.7456 13.2457 32.5841 15.2694 32.5841 17.3798V19.511C32.5552 19.9881 32.2843 20.417 31.8658 20.6475C31.4476 20.878 30.9399 20.878 30.5218 20.6475C30.1032 20.417 29.8323 19.9881 29.8034 19.511V17.3798C29.8139 15.8011 29.1053 14.3035 27.8779 13.3105C26.6508 12.3174 25.0384 11.9365 23.4966 12.2761C21.9548 12.6152 20.6512 13.6378 19.9541 15.0543C19.2574 16.4708 19.2428 18.1275 19.9148 19.5561C20.5868 20.9843 21.8723 22.0296 23.4082 22.3959C24.9437 22.7618 26.5625 22.4095 27.8069 21.438C28.372 22.4485 29.3584 23.1543 30.4974 23.3625C31.6363 23.571 32.8088 23.2605 33.6952 22.5153C34.5814 21.7705 35.0891 20.6689 35.08 19.5111V17.3799C35.08 14.6075 33.9787 11.9491 32.0183 9.9888C30.058 8.0285 27.3996 6.92712 24.6272 6.92712C21.8549 6.92712 19.1964 8.02841 17.2361 9.9888C15.2758 11.9491 14.1745 14.6075 14.1745 17.3799C14.1745 20.1522 15.2758 22.8106 17.2361 24.7709C19.1964 26.7312 21.8549 27.8326 24.6272 27.8326L24.6272 27.8324ZM24.6272 20.0601C23.9162 20.0601 23.2344 19.7777 22.7316 19.2753C22.2292 18.7725 21.9468 18.0908 21.9468 17.3797C21.9468 16.6687 22.2292 15.9869 22.7316 15.4841C23.2344 14.9817 23.9161 14.699 24.6272 14.699C25.3382 14.699 26.0199 14.9817 26.5228 15.4841C27.0252 15.9869 27.3076 16.6687 27.3076 17.3797C27.3076 18.0907 27.0252 18.7725 26.5228 19.2753C26.02 19.7777 25.3382 20.0601 24.6272 20.0601Z" fill="#616F89"/>
</svg>
