<svg width="379" height="282" viewBox="0 0 379 282" fill="none" xmlns="http://www.w3.org/2000/svg">
<path d="M378.413 248.009H0V247.82H378.413V248.009Z" fill="#E7E8E5"/>
<path d="M33.2342 0.189255C30.9561 0.189255 29.1033 2.04274 29.1033 4.31927V209.746C29.1033 212.024 30.9561 213.877 33.2342 213.877H179.376C181.653 213.877 183.506 212.024 183.506 209.746V4.31927C183.506 2.04274 181.653 0.189255 179.376 0.189255H33.2342ZM179.376 214.066H33.2342C30.852 214.066 28.9141 212.128 28.9141 209.746V4.31927C28.9141 1.93831 30.852 4.57764e-05 33.2342 4.57764e-05H179.376C181.757 4.57764e-05 183.695 1.93831 183.695 4.31927V209.746C183.695 212.128 181.757 214.066 179.376 214.066Z" fill="#E7E8E5"/>
<path d="M196.936 0.189255C194.659 0.189255 192.806 2.04274 192.806 4.31927V209.746C192.806 212.024 194.659 213.877 196.936 213.877H343.079C345.356 213.877 347.209 212.024 347.209 209.746V4.31927C347.209 2.04274 345.356 0.189255 343.079 0.189255H196.936ZM343.079 214.066H196.936C194.555 214.066 192.617 212.128 192.617 209.746V4.31927C192.617 1.93831 194.555 4.57764e-05 196.936 4.57764e-05H343.079C345.46 4.57764e-05 347.399 1.93831 347.399 4.31927V209.746C347.399 212.128 345.46 214.066 343.079 214.066Z" fill="#E7E8E5"/>
<path d="M58.484 255.216H38.8086V255.027H58.484V255.216Z" fill="#E7E8E5"/>
<path d="M143.933 253.162H109.855V252.973H143.933V253.162Z" fill="#E7E8E5"/>
<path d="M105.251 262.244H59.2422V262.055H105.251V262.244Z" fill="#E7E8E5"/>
<path d="M339.604 260.972H325.047V260.783H339.604V260.972Z" fill="#E7E8E5"/>
<path d="M318.307 260.972H276.461V260.783H318.307V260.972Z" fill="#E7E8E5"/>
<path d="M250.897 257.777H194.539V257.588H250.897V257.777Z" fill="#E7E8E5"/>
<path d="M202.478 210.775C201.697 221.082 192.708 229.437 182.4 229.437C172.092 229.437 164.37 221.082 165.151 210.775L168.518 166.348C169.299 156.04 178.289 147.678 188.596 147.678C193.751 147.678 198.261 149.766 201.381 153.15C204.501 156.524 206.235 161.194 205.845 166.348L202.478 210.775ZM144.425 121.461L134.848 247.821H227.165L236.742 121.461H144.425Z" fill="#E2E2E0"/>
<path d="M256.468 247.82H121.852L122.627 239.529H257.243L256.468 247.82Z" fill="#E2E2E0"/>
<path d="M308.2 200.902H320.12C320.801 200.902 321.33 200.345 321.296 199.663L321.253 198.818C321.219 198.136 320.634 197.579 319.953 197.579H308.033C307.352 197.579 306.823 198.136 306.857 198.818L306.899 199.663C306.933 200.345 307.518 200.902 308.2 200.902Z" fill="#DADBD8"/>
<path d="M288.266 200.902H300.187C300.868 200.902 301.397 200.345 301.363 199.663L301.321 198.818C301.286 198.136 300.701 197.579 300.02 197.579H288.1C287.419 197.579 286.889 198.136 286.923 198.818L286.966 199.663C287.001 200.345 287.586 200.902 288.266 200.902Z" fill="#DADBD8"/>
<path d="M329.391 199.965H51.1637C47.9549 199.965 45.2233 197.364 45.0628 194.155L36.6871 27.0339C36.5263 23.8257 38.9972 21.2237 42.206 21.2237H320.434C323.642 21.2237 326.374 23.8257 326.535 27.0339L334.911 194.155C335.071 197.364 332.6 199.965 329.391 199.965Z" fill="#DADBD8"/>
<path d="M332.802 199.965H54.574C51.3651 199.965 48.6337 197.364 48.4729 194.155L40.0972 27.0339C39.9367 23.8257 42.4074 21.2237 45.6162 21.2237H323.844C327.053 21.2237 329.784 23.8257 329.945 27.0339L338.32 194.155C338.482 197.364 336.01 199.965 332.802 199.965Z" fill="#E2E2E0"/>
<path d="M56.1998 188.302L48.4109 32.8879C48.3101 30.877 49.8583 29.2468 51.8693 29.2468H318.391C320.402 29.2468 322.113 30.877 322.214 32.8879L330.003 188.302C330.104 190.313 328.555 191.943 326.544 191.943H60.0229C58.0123 191.943 56.3003 190.313 56.1998 188.302Z" fill="#F3F2F1"/>
<path d="M64.833 37.198C64.922 38.9766 63.5523 40.4191 61.7731 40.4191C59.9943 40.4191 58.4801 38.9766 58.3908 37.198C58.3018 35.4187 59.6715 33.977 61.4507 33.977C63.2292 33.977 64.7437 35.4187 64.833 37.198Z" fill="white"/>
<path d="M79.4189 37.198C79.5082 38.9766 78.1383 40.4191 76.359 40.4191C74.5803 40.4191 73.0658 38.9766 72.9768 37.198C72.8875 35.4187 74.2575 33.977 76.0366 33.977C77.8152 33.977 79.3296 35.4187 79.4189 37.198Z" fill="white"/>
<path d="M94.0048 37.198C94.0941 38.9766 92.7243 40.4191 90.945 40.4191C89.1664 40.4191 87.652 38.9766 87.5627 37.198C87.4734 35.4187 88.8433 33.977 90.6226 33.977C92.4011 33.977 93.9155 35.4187 94.0048 37.198Z" fill="white"/>
<mask id="mask0_274_2593" style="mask-type:luminance" maskUnits="userSpaceOnUse" x="83" y="29" width="75" height="163">
<path d="M113.62 191.943H83.9141L119.031 29.2466H157.44L154.745 41.7274H154.553C154.374 41.7274 154.202 41.7985 154.076 41.9257L114.671 81.3298C114.552 81.4494 114.481 81.6091 114.474 81.7771C112.933 115.726 112.648 152.68 113.62 191.943Z" fill="white"/>
</mask>
<g mask="url(#mask0_274_2593)">
<path d="M83.9141 191.943H157.44V29.2466H83.9141V191.943Z" fill="#FBFBFA"/>
</g>
<path d="M258.932 191.943H249.211L284.328 29.2468H294.049L258.932 191.943Z" fill="#FBFBFA"/>
<path d="M217.778 41.7277H163.285L165.979 29.2469H220.472L217.778 41.7277Z" fill="#FBFBFA"/>
<path d="M335.949 273.43C335.949 278.164 270.252 282 189.209 282C108.167 282 42.4688 278.164 42.4688 273.43C42.4688 268.697 108.167 264.86 189.209 264.86C270.252 264.86 335.949 268.697 335.949 273.43Z" fill="#F3F2F1"/>
<path d="M272.914 157.496C272.822 157.496 272.73 157.492 272.638 157.485C252.482 155.836 238.606 138.604 238.025 137.872C236.865 136.409 237.111 134.282 238.573 133.123C240.036 131.962 242.16 132.207 243.32 133.669C243.483 133.871 255.356 148.51 271.797 150.601C277.129 145.31 281.619 131.313 281.129 127.081L281.118 126.962C281.008 125.6 280.754 120.935 282.093 118.149C282.903 116.466 284.921 115.761 286.605 116.568C288.288 117.378 288.996 119.397 288.186 121.081C287.852 121.776 287.695 124.287 287.853 126.372C288.606 133.337 282.569 150.911 274.985 156.788C274.39 157.249 273.661 157.496 272.914 157.496Z" fill="#17282F"/>
<path d="M112.632 139.157C106.632 139.157 89.6416 137.683 75.8765 122.296C74.8059 121.099 74.7253 119.314 75.6827 118.025C81.144 110.679 90.789 93.3219 92.292 87.6661C91.6729 86.5937 90.5483 85.0437 89.1572 84.3898C88.0788 83.8835 87.3469 82.8474 87.2296 81.663L86.6824 76.1207C86.4985 74.262 87.8563 72.6076 89.7135 72.4237C91.57 72.2398 93.2267 73.5967 93.4106 75.4555L93.7913 79.3085C97.0948 81.6766 98.7402 85.3737 98.9415 85.8497C99.1708 86.3894 99.2556 86.9782 99.1882 87.5602C98.4912 93.5671 88.7508 110.945 82.7575 119.734C96.749 133.68 113.474 132.409 114.21 132.344C116.059 132.193 117.708 133.551 117.876 135.408C118.043 137.264 116.682 138.905 114.827 139.077C114.671 139.092 113.894 139.157 112.632 139.157Z" fill="#17282F"/>
<path d="M221.646 273.321H212.587C211.53 273.321 210.535 272.826 209.895 271.985C209.256 271.143 209.047 270.052 209.33 269.033C211.698 260.528 212.861 253.606 213.731 242.767C210.525 227.669 207.504 213.847 207.474 213.708C207.074 211.883 208.23 210.082 210.054 209.683C211.881 209.286 213.679 210.44 214.078 212.263C214.109 212.405 217.198 226.538 220.446 241.843C220.514 242.161 220.535 242.487 220.51 242.811C219.745 252.542 218.762 259.273 216.971 266.56H221.646C223.513 266.56 225.027 268.074 225.027 269.94C225.027 271.807 223.513 273.321 221.646 273.321Z" fill="#17282F"/>
<path d="M151.61 273.321H146.494C145.515 273.321 144.585 272.898 143.944 272.159C143.302 271.421 143.01 270.441 143.146 269.473C144.012 263.265 148.473 251.964 153.209 240.606C154.897 225.62 156.279 212.754 156.293 212.625C156.492 210.768 158.154 209.417 160.015 209.624C161.87 209.824 163.215 211.49 163.016 213.346C163.001 213.477 161.588 226.634 159.872 241.841C159.837 242.158 159.756 242.47 159.633 242.765C156.275 250.808 152.451 260.282 150.701 266.56H151.61C153.477 266.56 154.991 268.074 154.991 269.94C154.991 271.807 153.477 273.321 151.61 273.321Z" fill="#17282F"/>
<path d="M154.554 42.4034L115.149 81.8076C113.167 125.488 113.329 171.363 115.149 218.935H245.446C242.867 157.551 242.622 98.4653 245.446 42.4034H154.554Z" fill="white"/>
<path d="M115.797 218.259H244.74C242.059 154.036 242.057 96.717 244.734 43.0785H154.831L115.809 82.1004C113.942 123.448 113.938 169.252 115.797 218.259ZM245.445 219.609H115.146C114.784 219.609 114.486 219.323 114.471 218.96C112.582 169.568 112.582 123.413 114.472 81.7773C114.48 81.6093 114.55 81.4496 114.669 81.33L154.074 41.9259C154.2 41.7987 154.372 41.7276 154.551 41.7276H245.445C245.629 41.7276 245.806 41.804 245.933 41.938C246.061 42.0719 246.128 42.2528 246.119 42.4375C243.398 96.4332 243.398 154.156 246.119 218.906C246.127 219.089 246.059 219.269 245.932 219.402C245.804 219.535 245.628 219.609 245.445 219.609Z" fill="#17282F"/>
<path d="M162.172 124.296C162.023 121.001 160.149 118.393 157.986 118.471C155.824 118.548 154.192 121.282 154.342 124.577C154.491 127.872 156.365 130.48 158.527 130.401C160.69 130.324 162.322 127.589 162.172 124.296Z" fill="#406FBF"/>
<path d="M207.861 123.267C207.711 119.971 205.837 117.363 203.675 117.441C201.512 117.519 199.88 120.253 200.029 123.548C200.179 126.843 202.053 129.45 204.215 129.373C206.377 129.295 208.01 126.561 207.861 123.267Z" fill="#406FBF"/>
<path d="M173.578 137.8C185.558 133.522 194.815 138.548 195.243 138.787C195.712 139.049 195.879 139.636 195.617 140.101C195.353 140.564 194.76 140.729 194.29 140.469C194.183 140.41 183.396 134.596 170.521 141.238C170.043 141.481 169.455 141.3 169.205 140.827C168.955 140.354 169.14 139.771 169.617 139.525C170.964 138.83 172.287 138.261 173.578 137.8Z" fill="#406FBF"/>
<path d="M155.635 93.3817C155.959 93.3901 156.286 93.4786 156.585 93.6557C157.513 94.2029 157.824 95.3911 157.281 96.3084C151.84 105.501 142.871 105.956 142.492 105.97C141.417 106.014 140.507 105.181 140.455 104.114C140.405 103.049 141.228 102.151 142.297 102.104C142.592 102.089 149.581 101.661 153.922 94.3255C154.29 93.7041 154.956 93.3658 155.635 93.3817Z" fill="#406FBF"/>
<path d="M201.357 92.2714C201.975 92.1518 202.642 92.3327 203.122 92.8118C209.201 98.8899 216.091 97.6517 216.381 97.5964C217.432 97.3944 218.46 98.0732 218.676 99.1169C218.892 100.161 218.224 101.175 217.175 101.387C216.793 101.455 207.984 103.142 200.367 95.5265C199.606 94.7659 199.607 93.5421 200.367 92.7929C200.649 92.5151 200.994 92.3418 201.357 92.2714Z" fill="#406FBF"/>
<path d="M237.585 113.989C235.752 113.989 234.137 112.719 233.731 110.899L226.064 76.5537C225.602 74.48 226.862 72.4108 228.917 71.8712L243.693 67.994C243.19 82.8429 242.884 97.9945 242.774 113.519L237.956 113.971C237.831 113.983 237.707 113.989 237.585 113.989Z" fill="#C3C5C2"/>
<path d="M242.773 113.519C242.883 97.9945 243.19 82.8429 243.692 67.994L243.743 67.9811L243.482 113.453L242.773 113.519Z" fill="#111D23"/>
<path d="M145.656 86.0798C134.926 86.0791 123.835 84.5806 115.867 82.0429L154.238 43.6719C150.692 58.8894 154.44 75.0915 158.187 85.3245C154.218 85.8377 149.967 86.0798 145.656 86.0798Z" fill="#C3C5C2"/>
<path d="M115.868 82.0428C115.625 81.9657 115.385 81.887 115.148 81.8075L154.553 42.4034C154.442 42.8257 154.338 43.248 154.239 43.6718L115.868 82.0428Z" fill="#111D23"/>
<path d="M154.553 81.8076C150.233 69.0475 151.994 51.7018 154.553 42.4034L115.148 81.8076C127.078 83.9789 140.403 83.6376 154.553 81.8076Z" fill="white"/>
<path d="M116.546 81.3648C127.015 83.0995 139.179 83.0594 153.657 81.2407C150.095 69.9398 150.899 54.9773 153.298 44.6134L116.546 81.3648ZM133.168 83.9865C126.589 83.9865 120.574 83.4817 115.027 82.4721C114.78 82.4274 114.579 82.2488 114.503 82.0089C114.429 81.7697 114.493 81.5079 114.67 81.33L154.075 41.9259C154.292 41.7087 154.628 41.6655 154.892 41.8192C155.157 41.9743 155.285 42.2877 155.204 42.5821C152.822 51.2401 150.853 68.7728 155.192 81.5911C155.257 81.7826 155.233 81.993 155.126 82.1655C155.019 82.3373 154.84 82.4516 154.639 82.4773C146.861 83.4832 139.734 83.9865 133.168 83.9865Z" fill="#17282F"/>
<path d="M289.945 139.379C289.444 139.379 288.986 139.042 288.853 138.534L274.975 85.6485C274.816 85.0445 275.178 84.4262 275.782 84.268C276.387 84.1076 277.003 84.4708 277.161 85.0748L291.039 137.961C291.198 138.564 290.836 139.183 290.233 139.341C290.136 139.366 290.04 139.379 289.945 139.379Z" fill="#17282F"/>
<path d="M315.645 66.1458L314.586 62.1111L315.318 61.9189L316.377 65.9535L315.645 66.1458Z" fill="#406FBF"/>
<path d="M313.41 57.6255L310.494 46.5168C309.818 43.9413 307.489 42.1431 304.829 42.1431C304.328 42.1431 303.827 42.2082 303.34 42.3361L295.72 44.3364L295.527 43.6045L303.148 41.6042C303.697 41.4597 304.263 41.3863 304.829 41.3863C307.833 41.3863 310.463 43.4168 311.226 46.3246L314.141 57.4333L313.41 57.6255Z" fill="#406FBF"/>
<path d="M314.966 86.6444L242.81 105.578C240.691 106.134 238.523 104.867 237.967 102.748L228.834 67.944C228.278 65.8249 229.545 63.6566 231.665 63.1003L303.82 44.1661C305.939 43.6105 308.107 44.8767 308.663 46.9966L317.796 81.8007C318.352 83.9191 317.085 86.0881 314.966 86.6444Z" fill="#406FBF"/>
<path d="M305.095 103.27L259.57 115.216C257.451 115.772 255.283 114.505 254.726 112.386L251.873 101.51C251.317 99.3917 252.584 97.2218 254.703 96.6663L300.228 84.7206C302.347 84.1644 304.516 85.4313 305.072 87.5504L307.926 98.4252C308.482 100.545 307.215 102.713 305.095 103.27Z" fill="#406FBF"/>
<path d="M261.159 101.93C261.733 101.78 262.231 101.709 262.653 101.716C263.08 101.715 263.45 101.811 263.762 102.005C264.075 102.199 264.344 102.508 264.572 102.931C264.798 103.347 265.001 103.901 265.181 104.591C265.359 105.275 265.452 105.857 265.46 106.337C265.468 106.817 265.383 107.218 265.206 107.54C265.028 107.862 264.753 108.13 264.382 108.344C264.015 108.55 263.545 108.728 262.971 108.877C262.403 109.025 261.906 109.1 261.479 109.101C261.057 109.094 260.689 108.993 260.377 108.799C260.065 108.605 259.795 108.297 259.567 107.874C259.34 107.451 259.137 106.897 258.959 106.214C258.779 105.523 258.685 104.941 258.679 104.468C258.671 103.987 258.756 103.586 258.934 103.264C259.111 102.942 259.384 102.679 259.75 102.473C260.122 102.259 260.591 102.078 261.159 101.93ZM261.565 103.488C261.326 103.55 261.156 103.649 261.054 103.786C260.952 103.923 260.911 104.137 260.932 104.428C260.953 104.719 261.03 105.122 261.165 105.638C261.299 106.154 261.429 106.544 261.553 106.808C261.677 107.072 261.817 107.239 261.972 107.308C262.128 107.378 262.326 107.382 262.564 107.319C262.803 107.257 262.973 107.158 263.076 107.021C263.178 106.884 263.218 106.67 263.198 106.379C263.177 106.088 263.099 105.685 262.965 105.169C262.83 104.653 262.701 104.263 262.577 103.999C262.453 103.735 262.313 103.568 262.157 103.499C262.001 103.429 261.804 103.425 261.565 103.488ZM273.929 98.7442L275.67 105.421L273.618 105.956L271.877 99.2792L273.929 98.7442ZM267.223 100.493L268.964 107.17L266.913 107.705L265.171 101.028L267.223 100.493ZM273.724 104.461L274.083 105.835L268.877 107.192L268.519 105.818L273.724 104.461ZM270.571 99.6198L272.312 106.297L270.27 106.829L268.529 100.152L270.571 99.6198ZM281.027 96.893L282.768 103.57L280.775 104.09L279.975 101.022C279.929 100.848 279.894 100.675 279.87 100.502C279.85 100.321 279.831 100.14 279.811 99.959L279.743 99.9767C279.739 100.171 279.726 100.36 279.705 100.545C279.685 100.729 279.651 100.917 279.604 101.108L278.772 104.612L276.769 105.134L275.027 98.4576L277.021 97.9378L277.793 100.899C277.835 101.06 277.871 101.237 277.9 101.429C277.93 101.621 277.953 101.815 277.969 102.01L278.037 101.993C278.048 101.797 278.066 101.603 278.092 101.41C278.117 101.217 278.152 101.033 278.195 100.856L279.033 97.4129L281.027 96.893ZM287.184 95.2872L287.421 96.8274L284.615 97.5592L285.965 102.736L283.865 103.284L282.124 96.6069C282.541 96.4637 282.962 96.3333 283.386 96.2158C283.808 96.0919 284.21 95.9803 284.59 95.881C285.048 95.7616 285.489 95.6536 285.911 95.5572C286.341 95.459 286.765 95.369 287.184 95.2872ZM285.565 98.4688C286.255 98.2888 286.816 98.2079 287.248 98.2262C287.687 98.2428 288.032 98.3767 288.283 98.628C288.535 98.8794 288.73 99.2727 288.87 99.8082C288.976 100.215 289.013 100.57 288.983 100.874C288.956 101.17 288.861 101.426 288.697 101.641C288.537 101.848 288.309 102.028 288.011 102.182C287.718 102.327 287.359 102.455 286.933 102.566C286.514 102.675 286.132 102.772 285.789 102.854C285.453 102.942 285.136 103.018 284.836 103.082C284.535 103.147 284.231 103.209 283.923 103.268L283.702 101.828C283.865 101.792 284.177 101.718 284.636 101.605C285.102 101.49 285.648 101.351 286.274 101.188C286.461 101.139 286.598 101.083 286.685 101.019C286.771 100.955 286.817 100.867 286.823 100.755C286.826 100.637 286.803 100.482 286.752 100.288C286.7 100.088 286.645 99.9407 286.585 99.8459C286.526 99.751 286.443 99.6969 286.336 99.6834C286.23 99.67 286.083 99.6876 285.896 99.7364L283.322 100.408L282.991 99.1401L285.565 98.4688ZM294.204 93.4565C294.184 94.013 294.168 94.482 294.158 94.8638C294.152 95.2373 294.133 95.5488 294.102 95.7981C294.07 96.0475 294.014 96.255 293.933 96.4208C293.857 96.5784 293.741 96.7154 293.586 96.8318C293.428 96.9417 293.216 97.0522 292.949 97.1632L292.964 97.2213C293.26 97.1924 293.506 97.1867 293.704 97.2041C293.907 97.2198 294.092 97.2786 294.256 97.3804C294.42 97.4822 294.586 97.6423 294.753 97.8605C294.92 98.0787 295.113 98.3694 295.332 98.7326C295.549 99.0894 295.818 99.5394 296.139 100.083L293.952 100.653C293.611 100.06 293.34 99.5896 293.14 99.2424C292.939 98.8951 292.767 98.6438 292.623 98.4884C292.485 98.3314 292.345 98.2438 292.203 98.2259C292.059 98.2015 291.88 98.217 291.667 98.2725L291.285 96.9254C291.504 96.8682 291.67 96.7905 291.782 96.6924C291.899 96.5861 291.979 96.4309 292.023 96.2267C292.066 96.0225 292.086 95.745 292.084 95.3941C292.087 95.0351 292.084 94.5743 292.075 94.0117L294.204 93.4565ZM290.508 94.4205L290.947 96.1042C291.011 96.3493 291.051 96.6109 291.069 96.8888C291.091 97.1586 291.08 97.4199 291.035 97.6726C291.167 97.8588 291.293 98.0669 291.415 98.2969C291.542 98.5188 291.631 98.7265 291.681 98.92L292.249 101.097L290.149 101.645L288.408 94.9681L290.508 94.4205ZM291.788 96.7942L292.141 98.1489L291.019 98.4416L290.666 97.0869L291.788 96.7942ZM298.7 92.2839C298.868 92.2402 299.029 92.2499 299.183 92.313C299.338 92.3761 299.459 92.4857 299.548 92.6416L302.88 98.3247L300.741 98.8824L298.602 94.8002C298.544 94.6843 298.489 94.5644 298.436 94.4404C298.381 94.31 298.331 94.1852 298.287 94.066L298.025 94.1341C298.044 94.2601 298.062 94.3933 298.078 94.5338C298.092 94.6679 298.102 94.7996 298.109 94.9289L298.235 99.536L296.097 100.094L296.229 93.5072C296.23 93.3277 296.283 93.1727 296.387 93.0423C296.491 92.9119 296.626 92.8248 296.794 92.7811L298.7 92.2839ZM300.504 95.8335L300.888 97.3044L297.337 98.2305L296.953 96.7597L300.504 95.8335Z" fill="#F8F8FC"/>
<path d="M249.123 68.4977L247.762 83.2506C247.736 83.5303 247.802 83.7363 247.96 83.8686C248.119 84.0009 248.326 84.0337 248.581 83.9671L261.923 80.4877L262.995 84.5982L260.494 85.9944L243.913 90.3187C243.263 90.4883 242.651 90.4741 242.079 90.2761C241.524 90.0489 241.08 89.6808 240.749 89.1719C240.441 88.657 240.325 88.0673 240.4 87.4029L242.156 70.3146L249.123 68.4977ZM256.664 71.5909L261.697 90.8895L254.834 92.6791L250.764 77.0731L251.021 73.0626L256.664 71.5909ZM270.077 62.5122C272.632 61.846 274.764 61.6992 276.473 62.0719C278.177 62.4214 279.593 63.4287 280.721 65.0937C281.844 66.7356 282.82 69.1473 283.65 72.3289C284.48 75.5105 284.809 78.1034 284.637 80.1076C284.459 82.0886 283.715 83.6591 282.405 84.8191C281.09 85.9559 279.155 86.8574 276.6 87.5236C274.069 88.1838 271.951 88.3391 270.248 87.9897C268.562 87.6109 267.158 86.6006 266.035 84.9588C264.906 83.2937 263.927 80.8704 263.097 77.6888C262.268 74.5072 261.942 71.9259 262.119 69.9449C262.291 67.9407 263.023 66.3732 264.316 65.2425C265.626 64.0824 267.546 63.1723 270.077 62.5122ZM271.505 68.1297C270.948 68.275 270.516 68.4744 270.21 68.7278C269.898 68.958 269.698 69.3326 269.61 69.8516C269.54 70.3413 269.579 71.0627 269.728 72.0158C269.895 72.9397 270.181 74.1796 270.587 75.7356C270.993 77.2916 271.351 78.5249 271.663 79.4357C271.992 80.3172 272.31 80.9659 272.617 81.3819C272.941 81.7687 273.299 81.9979 273.69 82.0696C274.074 82.1181 274.545 82.0697 275.103 81.9243C275.683 81.7729 276.141 81.5791 276.476 81.3428C276.806 81.0834 277.017 80.7058 277.111 80.21C277.199 79.691 277.16 78.9696 276.993 78.0457C276.844 77.0926 276.566 75.838 276.16 74.2821C275.755 72.7261 275.387 71.5074 275.058 70.6259C274.746 69.7151 274.428 69.0664 274.104 68.6797C273.774 68.2697 273.405 68.0435 272.997 68.0011C272.583 67.9354 272.086 67.9783 271.505 68.1297ZM295.014 56.5298L293.653 71.2828C293.627 71.5624 293.693 71.7684 293.851 71.9007C294.01 72.033 294.217 72.0658 294.472 71.9992L307.814 68.5198L308.886 72.6303L306.385 74.0265L289.804 78.3508C289.154 78.5204 288.542 78.5062 287.97 78.3082C287.415 78.081 286.971 77.713 286.64 77.204C286.332 76.6891 286.216 76.0994 286.29 75.4351L288.047 58.3467L295.014 56.5298ZM302.555 59.623L307.588 78.9216L300.725 80.7112L296.655 65.1052L296.911 61.0947L302.555 59.623Z" fill="#F8F8FC"/>
<path d="M154.408 170.576C154.8 170.576 155.132 170.588 155.404 170.612C155.684 170.628 155.94 170.656 156.172 170.696C156.404 170.736 156.644 170.792 156.892 170.864L156.748 172.208C156.484 172.192 156.24 172.18 156.016 172.172C155.8 172.164 155.564 172.16 155.308 172.16C155.06 172.152 154.76 172.148 154.408 172.148C154 172.148 153.68 172.228 153.448 172.388C153.224 172.548 153.064 172.828 152.968 173.228C152.872 173.62 152.824 174.164 152.824 174.86C152.824 175.556 152.872 176.104 152.968 176.504C153.064 176.896 153.224 177.172 153.448 177.332C153.68 177.492 154 177.572 154.408 177.572C154.96 177.572 155.424 177.564 155.8 177.548C156.176 177.532 156.548 177.504 156.916 177.464L157.072 178.808C156.688 178.928 156.296 179.012 155.896 179.06C155.496 179.116 155 179.144 154.408 179.144C153.552 179.144 152.864 179.008 152.344 178.736C151.832 178.456 151.46 178.004 151.228 177.38C151.004 176.756 150.892 175.916 150.892 174.86C150.892 173.804 151.004 172.964 151.228 172.34C151.46 171.716 151.832 171.268 152.344 170.996C152.864 170.716 153.552 170.576 154.408 170.576ZM161.367 173.072V179H159.591V173.072H161.367ZM163.335 173.072V174.44H157.611V173.072H163.335ZM168.203 172.928C168.955 172.928 169.491 173.2 169.811 173.744C170.131 174.288 170.291 175.068 170.291 176.084C170.291 176.876 170.207 177.496 170.039 177.944C169.871 178.392 169.619 178.708 169.283 178.892C168.955 179.068 168.543 179.156 168.047 179.156C167.631 179.156 167.227 179.096 166.835 178.976C166.451 178.856 166.115 178.656 165.827 178.376L165.935 177.584C166.207 177.664 166.451 177.736 166.667 177.8C166.883 177.856 167.131 177.884 167.411 177.884C167.667 177.884 167.871 177.84 168.023 177.752C168.175 177.664 168.283 177.492 168.347 177.236C168.419 176.972 168.455 176.592 168.455 176.096C168.455 175.608 168.423 175.236 168.359 174.98C168.295 174.716 168.191 174.536 168.047 174.44C167.911 174.336 167.727 174.284 167.495 174.284C167.231 174.284 166.991 174.336 166.775 174.44C166.559 174.536 166.315 174.676 166.043 174.86L165.815 174.044C165.975 173.828 166.179 173.636 166.427 173.468C166.683 173.3 166.963 173.168 167.267 173.072C167.571 172.976 167.883 172.928 168.203 172.928ZM165.743 173.072L165.923 174.152L166.079 174.332V178.184L166.019 178.328C166.043 178.568 166.059 178.816 166.067 179.072C166.083 179.336 166.087 179.596 166.079 179.852V181.28H164.315V173.072H165.743ZM174.653 172.916C175.157 172.916 175.577 172.984 175.913 173.12C176.257 173.248 176.517 173.472 176.693 173.792C176.877 174.104 176.969 174.536 176.969 175.088V179H175.553L175.301 177.716L175.193 177.536V175.076C175.185 174.796 175.113 174.592 174.977 174.464C174.849 174.336 174.605 174.272 174.245 174.272C173.933 174.272 173.549 174.284 173.093 174.308C172.637 174.324 172.169 174.348 171.689 174.38L171.521 173.204C171.809 173.148 172.141 173.1 172.517 173.06C172.893 173.02 173.269 172.988 173.645 172.964C174.021 172.932 174.357 172.916 174.653 172.916ZM176.237 175.352L176.225 176.348L173.597 176.36C173.381 176.36 173.225 176.412 173.129 176.516C173.033 176.62 172.985 176.76 172.985 176.936V177.224C172.985 177.424 173.041 177.58 173.153 177.692C173.273 177.796 173.453 177.848 173.693 177.848C173.901 177.848 174.125 177.804 174.365 177.716C174.613 177.628 174.857 177.504 175.097 177.344C175.337 177.184 175.549 176.996 175.733 176.78V177.548C175.669 177.668 175.565 177.82 175.421 178.004C175.285 178.18 175.109 178.356 174.893 178.532C174.677 178.7 174.421 178.844 174.125 178.964C173.837 179.084 173.509 179.144 173.141 179.144C172.781 179.144 172.457 179.08 172.169 178.952C171.881 178.824 171.653 178.636 171.485 178.388C171.317 178.14 171.233 177.832 171.233 177.464V176.852C171.233 176.38 171.393 176.012 171.713 175.748C172.033 175.484 172.473 175.352 173.033 175.352H176.237ZM180.164 173.072V179H178.412V173.072H180.164ZM182.54 175.268V176.48H180.092V175.268H182.54ZM184.184 173.072V179H182.432V173.072H184.184ZM191.498 173.072V179L189.902 179.012V175.904C189.902 175.744 189.906 175.588 189.914 175.436C189.93 175.284 189.95 175.12 189.974 174.944H189.926C189.878 175.088 189.81 175.244 189.722 175.412C189.634 175.572 189.55 175.712 189.47 175.832L187.226 179H185.678V173.072H187.262V176.264C187.262 176.408 187.258 176.552 187.25 176.696C187.242 176.832 187.226 176.98 187.202 177.14H187.238C187.302 176.988 187.37 176.848 187.442 176.72C187.522 176.584 187.602 176.456 187.682 176.336L189.962 173.072H191.498ZM194.754 173.072V179H193.014V173.072H194.754ZM199.47 177.776V179H194.646L194.634 177.776H199.47ZM198.594 173.072V179H196.842V173.072H198.594ZM199.47 178.94V180.68H198.306L198.162 178.94H199.47ZM203.645 172.916C204.149 172.916 204.569 172.984 204.905 173.12C205.249 173.248 205.509 173.472 205.685 173.792C205.869 174.104 205.961 174.536 205.961 175.088V179H204.545L204.293 177.716L204.185 177.536V175.076C204.177 174.796 204.105 174.592 203.969 174.464C203.841 174.336 203.597 174.272 203.237 174.272C202.925 174.272 202.541 174.284 202.085 174.308C201.629 174.324 201.161 174.348 200.681 174.38L200.513 173.204C200.801 173.148 201.133 173.1 201.509 173.06C201.885 173.02 202.261 172.988 202.637 172.964C203.013 172.932 203.349 172.916 203.645 172.916ZM205.229 175.352L205.217 176.348L202.589 176.36C202.373 176.36 202.217 176.412 202.121 176.516C202.025 176.62 201.977 176.76 201.977 176.936V177.224C201.977 177.424 202.033 177.58 202.145 177.692C202.265 177.796 202.445 177.848 202.685 177.848C202.893 177.848 203.117 177.804 203.357 177.716C203.605 177.628 203.849 177.504 204.089 177.344C204.329 177.184 204.541 176.996 204.725 176.78V177.548C204.661 177.668 204.557 177.82 204.413 178.004C204.277 178.18 204.101 178.356 203.885 178.532C203.669 178.7 203.413 178.844 203.117 178.964C202.829 179.084 202.501 179.144 202.133 179.144C201.773 179.144 201.449 179.08 201.161 178.952C200.873 178.824 200.645 178.636 200.477 178.388C200.309 178.14 200.225 177.832 200.225 177.464V176.852C200.225 176.38 200.385 176.012 200.705 175.748C201.025 175.484 201.465 175.352 202.025 175.352H205.229ZM145.904 187.072V193H144.152V187.072H145.904ZM148.28 189.268V190.48H145.832V189.268H148.28ZM149.924 187.072V193H148.172V187.072H149.924ZM154.202 186.916C155.21 186.916 155.93 187.088 156.362 187.432C156.794 187.768 157.014 188.272 157.022 188.944C157.03 189.488 156.894 189.896 156.614 190.168C156.334 190.432 155.85 190.564 155.162 190.564H151.838V189.568H154.67C154.934 189.568 155.106 189.512 155.186 189.4C155.266 189.28 155.302 189.116 155.294 188.908C155.294 188.628 155.214 188.436 155.054 188.332C154.902 188.22 154.638 188.164 154.262 188.164C153.934 188.164 153.678 188.208 153.494 188.296C153.318 188.384 153.194 188.552 153.122 188.8C153.05 189.048 153.014 189.408 153.014 189.88C153.014 190.376 153.058 190.76 153.146 191.032C153.234 191.296 153.382 191.48 153.59 191.584C153.806 191.688 154.098 191.74 154.466 191.74C154.746 191.74 155.086 191.732 155.486 191.716C155.894 191.692 156.302 191.656 156.71 191.608L156.866 192.7C156.642 192.812 156.382 192.9 156.086 192.964C155.79 193.028 155.486 193.072 155.174 193.096C154.862 193.128 154.558 193.144 154.262 193.144C153.518 193.144 152.914 193.036 152.45 192.82C151.994 192.596 151.662 192.256 151.454 191.8C151.254 191.344 151.154 190.76 151.154 190.048C151.154 189.272 151.258 188.656 151.466 188.2C151.674 187.744 152.002 187.416 152.45 187.216C152.898 187.016 153.482 186.916 154.202 186.916ZM162.545 187.072V193H160.793V187.072H162.545ZM164.921 189.268V190.48H162.473V189.268H164.921ZM166.565 187.072V193H164.813V187.072H166.565ZM171.178 186.916C171.682 186.916 172.102 186.984 172.438 187.12C172.782 187.248 173.042 187.472 173.218 187.792C173.402 188.104 173.494 188.536 173.494 189.088V193H172.078L171.826 191.716L171.718 191.536V189.076C171.71 188.796 171.638 188.592 171.502 188.464C171.374 188.336 171.13 188.272 170.77 188.272C170.458 188.272 170.074 188.284 169.618 188.308C169.162 188.324 168.694 188.348 168.214 188.38L168.046 187.204C168.334 187.148 168.666 187.1 169.042 187.06C169.418 187.02 169.794 186.988 170.17 186.964C170.546 186.932 170.882 186.916 171.178 186.916ZM172.762 189.352L172.75 190.348L170.122 190.36C169.906 190.36 169.75 190.412 169.654 190.516C169.558 190.62 169.51 190.76 169.51 190.936V191.224C169.51 191.424 169.566 191.58 169.678 191.692C169.798 191.796 169.978 191.848 170.218 191.848C170.426 191.848 170.65 191.804 170.89 191.716C171.138 191.628 171.382 191.504 171.622 191.344C171.862 191.184 172.074 190.996 172.258 190.78V191.548C172.194 191.668 172.09 191.82 171.946 192.004C171.81 192.18 171.634 192.356 171.418 192.532C171.202 192.7 170.946 192.844 170.65 192.964C170.362 193.084 170.034 193.144 169.666 193.144C169.306 193.144 168.982 193.08 168.694 192.952C168.406 192.824 168.178 192.636 168.01 192.388C167.842 192.14 167.758 191.832 167.758 191.464V190.852C167.758 190.38 167.918 190.012 168.238 189.748C168.558 189.484 168.998 189.352 169.558 189.352H172.762ZM180.757 187.072V193L179.161 193.012V189.904C179.161 189.744 179.165 189.588 179.173 189.436C179.189 189.284 179.209 189.12 179.233 188.944H179.185C179.137 189.088 179.069 189.244 178.981 189.412C178.893 189.572 178.809 189.712 178.729 189.832L176.485 193H174.937V187.072H176.521V190.264C176.521 190.408 176.517 190.552 176.509 190.696C176.501 190.832 176.485 190.98 176.461 191.14H176.497C176.561 190.988 176.629 190.848 176.701 190.72C176.781 190.584 176.861 190.456 176.941 190.336L179.221 187.072H180.757ZM178.657 184.456H179.809C179.857 184.784 179.805 185.088 179.653 185.368C179.509 185.648 179.281 185.876 178.969 186.052C178.665 186.228 178.293 186.316 177.853 186.316C177.413 186.316 177.037 186.228 176.725 186.052C176.413 185.876 176.181 185.648 176.029 185.368C175.877 185.088 175.821 184.784 175.861 184.456H177.025C177.001 184.808 177.061 185.064 177.205 185.224C177.357 185.376 177.573 185.452 177.853 185.452C178.125 185.452 178.333 185.376 178.477 185.224C178.621 185.064 178.681 184.808 178.657 184.456ZM187.722 187.072V188.248H185.394C185.034 188.248 184.834 188.436 184.794 188.812C184.714 189.452 184.61 190.016 184.482 190.504C184.354 190.992 184.19 191.436 183.99 191.836C183.798 192.236 183.55 192.624 183.246 193H181.878C182.166 192.504 182.398 192.008 182.574 191.512C182.75 191.008 182.89 190.504 182.994 190C183.098 189.496 183.178 188.988 183.234 188.476C183.29 188.012 183.45 187.664 183.714 187.432C183.978 187.192 184.362 187.072 184.866 187.072H187.722ZM183.054 192.94L182.922 194.68H181.746V192.94H183.054ZM188.778 191.776V193H181.746V191.776H188.778ZM188.778 192.94V194.68H187.614L187.482 192.94H188.778ZM187.866 187.072V193H186.186V187.072H187.866ZM192.581 186.916C193.589 186.916 194.309 187.088 194.741 187.432C195.173 187.768 195.393 188.272 195.401 188.944C195.409 189.488 195.273 189.896 194.993 190.168C194.713 190.432 194.229 190.564 193.541 190.564H190.217V189.568H193.049C193.313 189.568 193.485 189.512 193.565 189.4C193.645 189.28 193.681 189.116 193.673 188.908C193.673 188.628 193.593 188.436 193.433 188.332C193.281 188.22 193.017 188.164 192.641 188.164C192.313 188.164 192.057 188.208 191.873 188.296C191.697 188.384 191.573 188.552 191.501 188.8C191.429 189.048 191.393 189.408 191.393 189.88C191.393 190.376 191.437 190.76 191.525 191.032C191.613 191.296 191.761 191.48 191.969 191.584C192.185 191.688 192.477 191.74 192.845 191.74C193.125 191.74 193.465 191.732 193.865 191.716C194.273 191.692 194.681 191.656 195.089 191.608L195.245 192.7C195.021 192.812 194.761 192.9 194.465 192.964C194.169 193.028 193.865 193.072 193.553 193.096C193.241 193.128 192.937 193.144 192.641 193.144C191.897 193.144 191.293 193.036 190.829 192.82C190.373 192.596 190.041 192.256 189.833 191.8C189.633 191.344 189.533 190.76 189.533 190.048C189.533 189.272 189.637 188.656 189.845 188.2C190.053 187.744 190.381 187.416 190.829 187.216C191.277 187.016 191.861 186.916 192.581 186.916ZM198.334 187.072V193H196.582V187.072H198.334ZM200.71 189.268V190.48H198.262V189.268H200.71ZM202.354 187.072V193H200.602V187.072H202.354ZM206.968 186.916C207.472 186.916 207.892 186.984 208.228 187.12C208.572 187.248 208.832 187.472 209.008 187.792C209.192 188.104 209.284 188.536 209.284 189.088V193H207.868L207.616 191.716L207.508 191.536V189.076C207.5 188.796 207.428 188.592 207.292 188.464C207.164 188.336 206.92 188.272 206.56 188.272C206.248 188.272 205.864 188.284 205.408 188.308C204.952 188.324 204.484 188.348 204.004 188.38L203.836 187.204C204.124 187.148 204.456 187.1 204.832 187.06C205.208 187.02 205.584 186.988 205.96 186.964C206.336 186.932 206.672 186.916 206.968 186.916ZM208.552 189.352L208.54 190.348L205.912 190.36C205.696 190.36 205.54 190.412 205.444 190.516C205.348 190.62 205.3 190.76 205.3 190.936V191.224C205.3 191.424 205.356 191.58 205.468 191.692C205.588 191.796 205.768 191.848 206.008 191.848C206.216 191.848 206.44 191.804 206.68 191.716C206.928 191.628 207.172 191.504 207.412 191.344C207.652 191.184 207.864 190.996 208.048 190.78V191.548C207.984 191.668 207.88 191.82 207.736 192.004C207.6 192.18 207.424 192.356 207.208 192.532C206.992 192.7 206.736 192.844 206.44 192.964C206.152 193.084 205.824 193.144 205.456 193.144C205.096 193.144 204.772 193.08 204.484 192.952C204.196 192.824 203.968 192.636 203.8 192.388C203.632 192.14 203.548 191.832 203.548 191.464V190.852C203.548 190.38 203.708 190.012 204.028 189.748C204.348 189.484 204.788 189.352 205.348 189.352H208.552ZM212.67 184.66V187.9L212.49 190.372H211.086L210.906 187.9V184.66H212.67ZM211.998 191.176C212.23 191.176 212.39 191.224 212.478 191.32C212.574 191.408 212.622 191.568 212.622 191.8V192.376C212.622 192.608 212.574 192.772 212.478 192.868C212.39 192.956 212.23 193 211.998 193H211.59C211.35 193 211.186 192.956 211.098 192.868C211.01 192.772 210.966 192.608 210.966 192.376V191.8C210.966 191.568 211.01 191.408 211.098 191.32C211.186 191.224 211.35 191.176 211.59 191.176H211.998Z" fill="#213353"/>
</svg>
