<svg width="15" height="9" viewBox="0 0 15 9" fill="none" xmlns="http://www.w3.org/2000/svg">
<g clip-path="url(#clip0_112_4795)">
<path d="M0 4.49988C0 4.49988 6.10714 14.657 14.1429 4.49988C6.10714 -5.65726 0 4.49988 0 4.49988ZM7.07143 7.97131C5.14286 7.97131 3.6 6.42845 3.6 4.49988C3.6 2.57131 5.14286 1.02845 7.07143 1.02845C9 1.02845 10.5429 2.57131 10.5429 4.49988C10.5429 6.42845 9 7.97131 7.07143 7.97131Z" fill="#959EAD"/>
<path d="M7.07277 6.55716C8.2089 6.55716 9.12991 5.63614 9.12991 4.50001C9.12991 3.36389 8.2089 2.44287 7.07277 2.44287C5.93664 2.44287 5.01562 3.36389 5.01562 4.50001C5.01562 5.63614 5.93664 6.55716 7.07277 6.55716Z" fill="#959EAD"/>
</g>
<defs>
<clipPath id="clip0_112_4795">
<rect width="14.1429" height="9" fill="white"/>
</clipPath>
</defs>
</svg>
