<svg width="44" height="44" viewBox="0 0 44 44" fill="none" xmlns="http://www.w3.org/2000/svg">
<path d="M19.0653 21.2687L16.1318 18.3347L13.9316 20.5352L19.0653 25.6697L21.9988 22.7357V18.3347L19.0653 21.2687Z" fill="#FF1C2D"/>
<path d="M27.8651 12.4668L21.998 18.3348V22.7357L30.0652 14.6673L27.8651 12.4668Z" fill="#FF1C2D"/>
<path d="M30.5834 14.1486L28.3832 11.9482C28.2457 11.8106 28.0592 11.7334 27.8647 11.7334C27.6703 11.7334 27.4838 11.8106 27.3462 11.9482L19.0642 20.2315L16.6491 17.8161C16.5116 17.6786 16.3251 17.6014 16.1306 17.6014C15.9362 17.6014 15.7497 17.6786 15.6121 17.8161L13.412 20.0166C13.2745 20.1542 13.1973 20.3407 13.1973 20.5352C13.1973 20.7297 13.2745 20.9162 13.412 21.0538L18.5457 26.1882C18.6832 26.3257 18.8697 26.403 19.0642 26.403C19.2586 26.403 19.4451 26.3257 19.5827 26.1882L30.5834 15.1858C30.7209 15.0483 30.7981 14.8617 30.7981 14.6672C30.7981 14.4727 30.7209 14.2862 30.5834 14.1486ZM19.0642 24.6325L14.9675 20.5352L16.1306 19.3719L18.5457 21.7873C18.6832 21.9248 18.8697 22.002 19.0642 22.002C19.2586 22.002 19.4451 21.9248 19.5827 21.7873L27.8647 13.5039L29.0279 14.6672L19.0642 24.6325Z" fill="#FF1C2D"/>
<path d="M8.19713 29.5653C7.14421 26.9389 6.60136 24.1358 6.59762 21.3061V6.29003C12.0618 6.15466 17.386 4.53358 21.9986 1.60079C26.6113 4.53358 31.9355 6.15466 37.3997 6.29003V21.3061C37.3931 25.3036 36.3153 29.2263 34.2784 32.6658L35.8126 32.902C37.8053 29.3615 38.8568 25.369 38.8664 21.3061V5.56533C38.8664 5.3708 38.7892 5.18423 38.6516 5.04667C38.5141 4.90912 38.3275 4.83184 38.133 4.83184C32.6789 4.83015 27.3388 3.2699 22.7416 0.33478L22.3925 0.114732C22.2748 0.039801 22.1382 0 21.9986 0C21.8591 0 21.7225 0.039801 21.6048 0.114732L21.2557 0.33478C16.6586 3.27016 11.3184 4.83044 5.86424 4.83184C5.66974 4.83184 5.4832 4.90912 5.34566 5.04667C5.20813 5.18423 5.13086 5.3708 5.13086 5.56533V21.3061C5.13595 24.3902 5.74305 27.4437 6.91811 30.2951L8.19713 29.5653Z" fill="#727374"/>
<path d="M34.4643 21.3061V9.6795C34.4642 9.50155 34.3994 9.32969 34.282 9.19596C34.1646 9.06223 34.0027 8.97574 33.8262 8.95261C29.802 8.42428 25.9103 7.156 22.3473 5.21178C22.2398 5.15323 22.1193 5.12256 21.9968 5.12256C21.8743 5.12256 21.7538 5.15323 21.6462 5.21178C18.0832 7.15632 14.1911 8.42462 10.1666 8.95261C9.99032 8.9759 9.82851 9.06246 9.71127 9.19618C9.59403 9.3299 9.52936 9.50166 9.5293 9.6795V21.3061C9.53215 23.6285 9.95246 25.9313 10.7702 28.1049C11.2163 27.9015 11.6816 27.7432 12.1592 27.6325C11.3925 25.6113 10.9984 23.4679 10.9961 21.3061V10.3147C14.8419 9.73655 18.5616 8.50958 21.9968 6.68611C25.432 8.50958 29.1517 9.73655 32.9975 10.3147V21.3061C32.9892 24.8035 31.9613 28.2225 30.0398 31.1445L31.3254 31.8457C33.3643 28.708 34.4542 25.0483 34.4643 21.3061Z" fill="#727374"/>
<path d="M43.8225 38.3343L43.2402 36.4521C43.2286 36.4141 43.2139 36.377 43.1962 36.3414C42.9768 36.0049 42.6794 35.7264 42.3293 35.5296C41.9792 35.3329 41.5867 35.2236 41.1853 35.211L31.8523 33.7771C31.8065 33.77 31.7624 33.7551 31.7217 33.7331L24.8925 30.0054C22.598 29.0143 20.115 28.536 17.6166 28.6037C12.6648 28.6037 11.3938 29.3981 10.8511 29.7377L6.77353 32.0724C6.54631 32.2028 6.2889 32.2713 6.02695 32.2712H3.68966C2.18916 32.2712 1.12282 33.2878 0.778865 35.0277L0.0381497 37.9925C-0.0246058 38.3332 -0.00978887 38.6837 0.0814997 39.0179C0.172788 39.3522 0.338202 39.6615 0.565451 39.923C0.85758 40.2757 1.22246 40.561 1.63512 40.7596C2.04777 40.9581 2.49844 41.065 2.95628 41.0731H5.22976C5.40018 41.8998 5.85051 42.6425 6.50477 43.1757C7.15903 43.7089 7.97716 44 8.82113 44C9.6651 44 10.4832 43.7089 11.1375 43.1757C11.7917 42.6425 12.2421 41.8998 12.4125 41.0731H30.8849C31.0553 41.8998 31.5057 42.6425 32.1599 43.1757C32.8142 43.7089 33.6323 44 34.4763 44C35.3203 44 36.1384 43.7089 36.7927 43.1757C37.4469 42.6425 37.8972 41.8998 38.0677 41.0731H42.0646C42.3887 41.0734 42.7077 40.9922 42.9922 40.8369C43.2767 40.6817 43.5177 40.4574 43.6929 40.1847C43.8682 39.912 43.9721 39.5997 43.9951 39.2763C44.0181 38.953 43.9595 38.629 43.8247 38.3343H43.8225ZM28.5982 33.7008C25.1796 33.6477 21.7621 33.5384 18.347 33.3729V30.0847C20.3542 30.1 22.3386 30.5108 24.1869 31.2935L28.5982 33.7008ZM11.6285 30.9817C12.004 30.747 12.9713 30.1448 16.8832 30.0773V33.2981C14.078 33.1404 11.2508 32.9269 8.74853 32.6379L11.6285 30.9817ZM8.8204 42.5401C8.38525 42.5401 7.95987 42.4111 7.59806 42.1693C7.23625 41.9275 6.95425 41.5838 6.78773 41.1817C6.6212 40.7796 6.57763 40.3372 6.66253 39.9104C6.74742 39.4835 6.95696 39.0914 7.26466 38.7837C7.57236 38.4759 7.96438 38.2663 8.39117 38.1814C8.81796 38.0965 9.26033 38.1401 9.66236 38.3067C10.0644 38.4732 10.408 38.7553 10.6498 39.1171C10.8915 39.479 11.0205 39.9044 11.0205 40.3396C11.0205 40.9233 10.7887 41.483 10.3761 41.8956C9.96353 42.3083 9.40391 42.5401 8.8204 42.5401ZM34.4763 42.5401C34.0411 42.5401 33.6158 42.4111 33.254 42.1693C32.8921 41.9275 32.6101 41.5838 32.4436 41.1817C32.2771 40.7796 32.2335 40.3372 32.3184 39.9104C32.4033 39.4835 32.6129 39.0914 32.9206 38.7837C33.2283 38.4759 33.6203 38.2663 34.0471 38.1814C34.4739 38.0965 34.9162 38.1401 35.3183 38.3067C35.7203 38.4732 36.0639 38.7553 36.3056 39.1171C36.5474 39.479 36.6764 39.9044 36.6764 40.3396C36.6764 40.9233 36.4446 41.483 36.032 41.8956C35.6194 42.3083 35.0598 42.5401 34.4763 42.5401ZM42.4592 39.3861C42.4177 39.454 42.3593 39.5099 42.2898 39.5485C42.2203 39.587 42.1419 39.6069 42.0624 39.6062H38.0655C37.895 38.7794 37.4447 38.0368 36.7905 37.5036C36.1362 36.9704 35.3181 36.6792 34.4741 36.6792C33.6301 36.6792 32.812 36.9704 32.1577 37.5036C31.5035 38.0368 31.0531 38.7794 30.8827 39.6062H12.4118C12.2413 38.7794 11.791 38.0368 11.1368 37.5036C10.4825 36.9704 9.66436 36.6792 8.8204 36.6792C7.97643 36.6792 7.1583 36.9704 6.50404 37.5036C5.84978 38.0368 5.39945 38.7794 5.22903 39.6062H2.95554C2.71503 39.598 2.47891 39.5394 2.26249 39.4342C2.04607 39.3289 1.85418 39.1793 1.69926 38.9951C1.6147 38.905 1.55034 38.7979 1.5105 38.6809C1.47067 38.5638 1.45626 38.4397 1.46824 38.3167L2.20896 35.3519C2.42311 34.2832 2.92107 33.7382 3.68966 33.7382H5.93014C14.0751 35.0159 28.1699 35.181 31.5252 35.2052C31.5589 35.2118 40.9601 36.6663 40.9601 36.6663C41.2851 36.6838 41.5985 36.7927 41.8644 36.9802L42.435 38.822C42.4466 38.8602 42.4616 38.8973 42.4797 38.9328C42.5155 39.0037 42.5325 39.0827 42.5289 39.1621C42.5253 39.2416 42.5013 39.3187 42.4592 39.3861Z" fill="#727374"/>
</svg>
