<svg width="44" height="44" viewBox="0 0 44 44" fill="none" xmlns="http://www.w3.org/2000/svg">
<path d="M38.3229 5.65968V19.5261L23.3274 28.032C22.9223 28.2601 22.4652 28.3799 22.0003 28.3799C21.5354 28.3799 21.0784 28.2601 20.6732 28.032L5.67773 19.5261V5.65968C5.67773 5.09477 5.90204 4.55299 6.30131 4.15353C6.70058 3.75408 7.24211 3.52966 7.80677 3.52966H36.1939C36.7585 3.52966 37.3 3.75408 37.6993 4.15353C38.0986 4.55299 38.3229 5.09477 38.3229 5.65968Z" fill="#FF1C2D"/>
<path d="M28.387 36.9H41.1612V38.32H28.387V36.9ZM24.1289 39.74H41.1612V41.16H24.1289V39.74Z" fill="white"/>
<path d="M42.5885 14.8855L39.0323 12.1868V5.65968C39.0323 4.90646 38.7332 4.18408 38.2008 3.65148C37.6685 3.11887 36.9464 2.81965 36.1935 2.81965H26.6895L23.7032 0.554024C23.2083 0.193951 22.612 0 22 0C21.388 0 20.7917 0.193951 20.2968 0.554024L17.309 2.81965H7.80645C7.05358 2.81965 6.33154 3.11887 5.79918 3.65148C5.26682 4.18408 4.96774 4.90646 4.96774 5.65968V12.1868L1.41155 14.8848C0.973964 15.219 0.619068 15.6494 0.374305 16.1427C0.129543 16.636 0.00147328 17.179 0 17.7298V41.16C0 41.9132 0.299078 42.6356 0.831439 43.1682C1.3638 43.7008 2.08584 44 2.83871 44H41.1613C41.9142 44 42.6362 43.7008 43.1686 43.1682C43.7009 42.6356 44 41.9132 44 41.16V17.7298C43.9984 17.1791 43.8703 16.6363 43.6255 16.1431C43.3808 15.6499 43.0259 15.2196 42.5885 14.8855ZM41.729 16.0172C41.9084 16.1589 42.0637 16.3287 42.1889 16.5199L39.0323 18.3099V13.9667L41.729 16.0172ZM21.1534 1.68364C21.3992 1.50471 21.6953 1.40833 21.9993 1.40833C22.3033 1.40833 22.5994 1.50471 22.8452 1.68364L24.3419 2.81965H19.6581L21.1534 1.68364ZM7.80645 4.23967H36.1935C36.57 4.23967 36.931 4.38927 37.1972 4.65558C37.4634 4.92188 37.6129 5.28307 37.6129 5.65968V19.115L22.9772 27.4121C22.6781 27.5777 22.3418 27.6645 22 27.6645C21.6582 27.6645 21.3219 27.5777 21.0228 27.4121L6.3871 19.1143V5.65968C6.3871 5.28307 6.53664 4.92188 6.80282 4.65558C7.069 4.38927 7.43002 4.23967 7.80645 4.23967ZM2.27097 16.0172L4.96774 13.9667V18.307L1.80968 16.5228C1.9352 16.3305 2.09097 16.1598 2.27097 16.0172ZM41.1613 42.58H2.83871C2.46227 42.58 2.10125 42.4304 1.83507 42.1641C1.56889 41.8978 1.41935 41.5366 1.41935 41.16V17.9307L20.323 28.6475C20.8344 28.9375 21.4122 29.0899 22 29.0899C22.5878 29.0899 23.1656 28.9375 23.677 28.6475L42.5806 17.9307V41.16C42.5806 41.5366 42.4311 41.8978 42.1649 42.1641C41.8987 42.4304 41.5377 42.58 41.1613 42.58Z" fill="#727374"/>
<path d="M28.3876 36.9H41.1618V38.32H28.3876V36.9ZM24.1295 39.74H41.1618V41.16H24.1295V39.74ZM22.0005 24.1199C24.1743 24.1236 26.2666 23.2917 27.8447 21.796L26.8703 20.7637C25.6824 21.8848 24.1444 22.5617 22.5157 22.6803C20.887 22.7989 19.2672 22.3519 17.9296 21.4147C16.5919 20.4775 15.6183 19.1075 15.1728 17.5356C14.7274 15.9638 14.8374 14.2864 15.4844 12.7862C16.1313 11.2861 17.2756 10.0551 18.7242 9.30085C20.1727 8.54659 21.837 8.31521 23.4363 8.64575C25.0356 8.97629 26.4719 9.84852 27.5032 11.1153C28.5344 12.3821 29.0975 13.966 29.0973 15.5998V17.0198C29.0973 17.3964 28.9477 17.7576 28.6816 18.0239C28.4154 18.2902 28.0544 18.4398 27.6779 18.4398C27.3015 18.4398 26.9405 18.2902 26.6743 18.0239C26.4081 17.7576 26.2586 17.3964 26.2586 17.0198V11.3398H24.8392V12.4332C24.2106 11.8676 23.428 11.502 22.591 11.383C21.754 11.264 20.9005 11.3969 20.1393 11.7649C19.3781 12.1329 18.7436 12.7192 18.3167 13.4492C17.8897 14.1792 17.6897 15.0199 17.7419 15.8641C17.7942 16.7082 18.0965 17.5177 18.6102 18.1895C19.124 18.8612 19.826 19.3647 20.6268 19.6358C21.4275 19.907 22.2909 19.9335 23.1068 19.712C23.9227 19.4906 24.6543 19.0311 25.2082 18.3922C25.5109 18.9437 25.9885 19.3786 26.5657 19.6281C27.143 19.8777 27.7868 19.9277 28.3956 19.7703C29.0045 19.6129 29.5435 19.257 29.9276 18.7589C30.3117 18.2608 30.5189 17.6489 30.5166 17.0198V15.5998C30.5166 13.9147 30.0172 12.2674 29.0814 10.8663C28.1456 9.46517 26.8156 8.37313 25.2595 7.72827C23.7034 7.0834 21.9911 6.91468 20.3391 7.24343C18.6871 7.57218 17.1697 8.38363 15.9787 9.57519C14.7877 10.7667 13.9766 12.2849 13.648 13.9376C13.3194 15.5903 13.4881 17.3034 14.1326 18.8603C14.7772 20.4171 15.8687 21.7478 17.2692 22.684C18.6697 23.6202 20.3162 24.1199 22.0005 24.1199ZM22.0005 18.4398C21.4391 18.4398 20.8902 18.2732 20.4234 17.9612C19.9566 17.6491 19.5927 17.2056 19.3779 16.6866C19.163 16.1677 19.1068 15.5966 19.2163 15.0457C19.3259 14.4948 19.5962 13.9888 19.9932 13.5916C20.3902 13.1944 20.896 12.9239 21.4467 12.8143C21.9974 12.7048 22.5681 12.761 23.0868 12.9759C23.6055 13.1909 24.0489 13.5549 24.3608 14.022C24.6727 14.489 24.8392 15.0381 24.8392 15.5998C24.8392 16.353 24.5401 17.0754 24.0078 17.608C23.4754 18.1406 22.7534 18.4398 22.0005 18.4398Z" fill="white"/>
</svg>
