<svg width="44" height="44" viewBox="0 0 44 44" fill="none" xmlns="http://www.w3.org/2000/svg">
<path d="M18.0671 5.21521H15.1356C15.0088 5.21521 14.8872 5.26379 14.7975 5.35027C14.7078 5.43674 14.6574 5.55403 14.6574 5.67633V8.50299C14.6574 8.62529 14.7078 8.74257 14.7975 8.82905C14.8872 8.91553 15.0088 8.96411 15.1356 8.96411H18.0671C18.1939 8.96411 18.3156 8.91553 18.4052 8.82905C18.4949 8.74257 18.5453 8.62529 18.5453 8.50299V5.67633C18.5453 5.55403 18.4949 5.43674 18.4052 5.35027C18.3156 5.26379 18.1939 5.21521 18.0671 5.21521ZM17.5889 8.04187H15.6139V6.13745H17.5889V8.04187ZM23.9109 8.50299V5.67633C23.9109 5.55403 23.8605 5.43674 23.7708 5.35027C23.6811 5.26379 23.5595 5.21521 23.4327 5.21521H20.4725C20.3457 5.21521 20.2241 5.26379 20.1344 5.35027C20.0447 5.43674 19.9943 5.55403 19.9943 5.67633V8.50299C19.9943 8.62529 20.0447 8.74257 20.1344 8.82905C20.2241 8.91553 20.3457 8.96411 20.4725 8.96411H23.4327C23.5595 8.96411 23.6811 8.91553 23.7708 8.82905C23.8605 8.74257 23.9109 8.62529 23.9109 8.50299ZM22.9545 8.04187H20.9507V6.13745H22.9545V8.04187ZM6.75254 12.4732H3.82587C3.69904 12.4732 3.5774 12.5218 3.48772 12.6083C3.39804 12.6948 3.34766 12.812 3.34766 12.9343V15.7656C3.34766 15.8879 3.39804 16.0052 3.48772 16.0917C3.5774 16.1782 3.69904 16.2267 3.82587 16.2267H6.75733C6.88416 16.2267 7.00579 16.1782 7.09547 16.0917C7.18516 16.0052 7.23554 15.8879 7.23554 15.7656V12.9343C7.23554 12.8734 7.22302 12.8131 7.19869 12.7568C7.17436 12.7006 7.1387 12.6495 7.09379 12.6066C7.04887 12.5638 6.99559 12.5299 6.93702 12.507C6.87844 12.4841 6.81575 12.4726 6.75254 12.4732ZM6.27433 15.3045H4.30409V13.3955H6.27911L6.27433 15.3045ZM9.15796 16.2267C12.3094 16.2267 12.1516 16.2267 12.2568 16.1945C12.3476 16.1618 12.4259 16.1032 12.4814 16.0267C12.5369 15.9501 12.567 15.859 12.5676 15.7656V12.9343C12.5676 12.812 12.5172 12.6948 12.4276 12.6083C12.3379 12.5218 12.2162 12.4732 12.0894 12.4732H9.15796C9.03113 12.4732 8.9095 12.5218 8.81981 12.6083C8.73013 12.6948 8.67975 12.812 8.67975 12.9343V15.7656C8.67975 15.8879 8.73013 16.0052 8.81981 16.0917C8.9095 16.1782 9.03113 16.2267 9.15796 16.2267ZM9.63618 13.3955H11.6112V15.3045H9.63618V13.3955ZM14.4948 16.2267H17.4311C17.5579 16.2267 17.6795 16.1782 17.7692 16.0917C17.8589 16.0052 17.9093 15.8879 17.9093 15.7656V12.9343C17.9093 12.812 17.8589 12.6948 17.7692 12.6083C17.6795 12.5218 17.5579 12.4732 17.4311 12.4732H14.4948C14.368 12.4732 14.2464 12.5218 14.1567 12.6083C14.067 12.6948 14.0166 12.812 14.0166 12.9343V15.7656C14.0166 15.8879 14.067 16.0052 14.1567 16.0917C14.2464 16.1782 14.368 16.2267 14.4948 16.2267ZM14.9731 13.3955H16.9529V15.3045H14.9731V13.3955ZM6.75254 17.7761H3.82587C3.69904 17.7761 3.5774 17.8247 3.48772 17.9112C3.39804 17.9976 3.34766 18.1149 3.34766 18.2372V21.0777C3.34766 21.2 3.39804 21.3173 3.48772 21.4038C3.5774 21.4902 3.69904 21.5388 3.82587 21.5388H6.75733C6.88416 21.5388 7.00579 21.4902 7.09547 21.4038C7.18516 21.3173 7.23554 21.2 7.23554 21.0777V18.2372C7.23554 18.1763 7.22302 18.1159 7.19869 18.0597C7.17436 18.0034 7.1387 17.9524 7.09379 17.9095C7.04887 17.8666 6.99559 17.8328 6.93702 17.8099C6.87844 17.787 6.81575 17.7755 6.75254 17.7761ZM6.27433 20.6074H4.30409V18.6983H6.27911L6.27433 20.6074ZM9.15796 21.5388C12.3094 21.5388 12.1516 21.5388 12.2568 21.5066C12.3476 21.4739 12.4259 21.4153 12.4814 21.3388C12.5369 21.2622 12.567 21.1711 12.5676 21.0777V18.2372C12.5676 18.1149 12.5172 17.9976 12.4276 17.9112C12.3379 17.8247 12.2162 17.7761 12.0894 17.7761H9.15796C9.03113 17.7761 8.9095 17.8247 8.81981 17.9112C8.73013 17.9976 8.67975 18.1149 8.67975 18.2372V21.0777C8.67975 21.2 8.73013 21.3173 8.81981 21.4038C8.9095 21.4902 9.03113 21.5388 9.15796 21.5388ZM9.63618 18.7076H11.6112V20.6166H9.63618V18.7076ZM14.4948 21.5388H17.4311C17.5579 21.5388 17.6795 21.4902 17.7692 21.4038C17.8589 21.3173 17.9093 21.2 17.9093 21.0777V18.2372C17.9093 18.1149 17.8589 17.9976 17.7692 17.9112C17.6795 17.8247 17.5579 17.7761 17.4311 17.7761H14.4948C14.368 17.7761 14.2464 17.8247 14.1567 17.9112C14.067 17.9976 14.0166 18.1149 14.0166 18.2372V21.0777C14.0166 21.2 14.067 21.3173 14.1567 21.4038C14.2464 21.4902 14.368 21.5388 14.4948 21.5388ZM14.9731 18.7076H16.9529V20.6166H14.9731V18.7076ZM6.75254 23.079H3.82587C3.69904 23.079 3.5774 23.1276 3.48772 23.214C3.39804 23.3005 3.34766 23.4178 3.34766 23.5401V26.3714C3.34766 26.4937 3.39804 26.6109 3.48772 26.6974C3.5774 26.7839 3.69904 26.8325 3.82587 26.8325H6.75733C6.88416 26.8325 7.00579 26.7839 7.09547 26.6974C7.18516 26.6109 7.23554 26.4937 7.23554 26.3714V23.5401C7.23554 23.4791 7.22302 23.4188 7.19869 23.3626C7.17436 23.3063 7.1387 23.2553 7.09379 23.2124C7.04887 23.1695 6.99559 23.1356 6.93702 23.1127C6.87844 23.0898 6.81575 23.0784 6.75254 23.079ZM6.27433 25.9102H4.30409V24.0012H6.27911L6.27433 25.9102ZM9.15796 26.8325C12.3094 26.8325 12.1516 26.8325 12.2568 26.8002C12.3476 26.7675 12.4259 26.709 12.4814 26.6324C12.5369 26.5558 12.567 26.4648 12.5676 26.3714V23.5401C12.5676 23.4178 12.5172 23.3005 12.4276 23.214C12.3379 23.1276 12.2162 23.079 12.0894 23.079H9.15796C9.03113 23.079 8.9095 23.1276 8.81981 23.214C8.73013 23.3005 8.67975 23.4178 8.67975 23.5401V26.3714C8.67975 26.4937 8.73013 26.6109 8.81981 26.6974C8.9095 26.7839 9.03113 26.8325 9.15796 26.8325ZM9.63618 24.0012H11.6112V25.9102H9.63618V24.0012ZM14.4948 26.8325H17.4311C17.5579 26.8325 17.6795 26.7839 17.7692 26.6974C17.8589 26.6109 17.9093 26.4937 17.9093 26.3714V23.5401C17.9093 23.4178 17.8589 23.3005 17.7692 23.214C17.6795 23.1276 17.5579 23.079 17.4311 23.079H14.4948C14.368 23.079 14.2464 23.1276 14.1567 23.214C14.067 23.3005 14.0166 23.4178 14.0166 23.5401V26.3714C14.0166 26.4937 14.067 26.6109 14.1567 26.6974C14.2464 26.7839 14.368 26.8325 14.4948 26.8325ZM14.9731 24.0012H16.9529V25.9102H14.9731V24.0012ZM6.75254 28.3818H3.82587C3.69904 28.3818 3.5774 28.4304 3.48772 28.5169C3.39804 28.6034 3.34766 28.7207 3.34766 28.843V31.6835C3.34766 31.8058 3.39804 31.923 3.48772 32.0095C3.5774 32.096 3.69904 32.1446 3.82587 32.1446H6.75733C6.88416 32.1446 7.00579 32.096 7.09547 32.0095C7.18516 31.923 7.23554 31.8058 7.23554 31.6835V28.843C7.23554 28.782 7.22302 28.7217 7.19869 28.6654C7.17436 28.6092 7.1387 28.5581 7.09379 28.5153C7.04887 28.4724 6.99559 28.4385 6.93702 28.4156C6.87844 28.3927 6.81575 28.3812 6.75254 28.3818ZM6.27433 31.2131H4.30409V29.3041H6.27911L6.27433 31.2131ZM12.5676 31.6835V28.843C12.567 28.7495 12.5369 28.6585 12.4814 28.5819C12.4259 28.5053 12.3476 28.4468 12.2568 28.4141C12.1516 28.368 12.3572 28.3818 9.15796 28.3818C9.03113 28.3818 8.9095 28.4304 8.81981 28.5169C8.73013 28.6034 8.67975 28.7207 8.67975 28.843V31.6835C8.67975 31.8058 8.73013 31.923 8.81981 32.0095C8.9095 32.096 9.03113 32.1446 9.15796 32.1446H12.0894C12.2162 32.1446 12.3379 32.096 12.4276 32.0095C12.5172 31.923 12.5676 31.8058 12.5676 31.6835ZM11.6112 31.2223H9.63618V29.3041H11.6112V31.2223ZM14.4948 32.1446H17.4311C17.5579 32.1446 17.6795 32.096 17.7692 32.0095C17.8589 31.923 17.9093 31.8058 17.9093 31.6835V28.843C17.9093 28.7207 17.8589 28.6034 17.7692 28.5169C17.6795 28.4304 17.5579 28.3818 17.4311 28.3818H14.4948C14.368 28.3818 14.2464 28.4304 14.1567 28.5169C14.067 28.6034 14.0166 28.7207 14.0166 28.843V31.6835C14.0166 31.8058 14.067 31.923 14.1567 32.0095C14.2464 32.096 14.368 32.1446 14.4948 32.1446ZM14.9731 29.3133H16.9529V31.2223H14.9731V29.3133Z" fill="#727374"/>
<path d="M43.8188 10.14C43.7674 10.0842 43.7013 10.0428 43.6275 10.0201C43.441 9.98323 33.6137 7.24418 33.475 7.24418C33.3363 7.24418 33.5228 7.2119 31.6195 7.73758V0.461119C31.6195 0.338823 31.5692 0.221535 31.4795 0.135059C31.3898 0.0485821 31.2682 0 31.1413 0H12.7349C12.608 0 12.4864 0.0485821 12.3967 0.135059C12.307 0.221535 12.2566 0.338823 12.2566 0.461119V10.0847H10.1573V7.97275C10.1573 7.85046 10.1069 7.73317 10.0172 7.64669C9.92753 7.56021 9.80589 7.51163 9.67906 7.51163H3.82572C3.69889 7.51163 3.57725 7.56021 3.48757 7.64669C3.39789 7.73317 3.3475 7.85046 3.3475 7.97275V10.0847H0.478215C0.351384 10.0847 0.229748 10.1333 0.140066 10.2197C0.0503832 10.3062 0 10.4235 0 10.5458V43.5389C0 43.6612 0.0503832 43.7785 0.140066 43.8649C0.229748 43.9514 0.351384 44 0.478215 44H34.7566C34.8835 44 35.0051 43.9514 35.0948 43.8649C35.1845 43.7785 35.2348 43.6612 35.2348 43.5389V34.9113C35.2348 34.789 35.1845 34.6718 35.0948 34.5853C35.0051 34.4988 34.8835 34.4502 34.7566 34.4502H31.6243V32.2691C33.4415 33.1914 33.322 33.1914 33.4798 33.1914C33.6376 33.1914 33.6376 33.1545 34.5653 32.6934C37.8555 31.0103 43.9957 27.9254 43.9957 19.8973C43.9957 9.54978 44.0436 10.3429 43.8188 10.14ZM42.4415 10.6519L40.9208 11.7539L33.9532 9.82184V8.30015C45.1769 11.3943 41.796 10.4951 42.4415 10.6519ZM33.475 29.4794C30.2997 27.847 27.8321 26.1639 26.78 22.7516C26.2588 20.9671 26.3927 19.9111 26.3927 12.607L33.475 10.6519L40.5335 12.6116V19.8973C40.5382 25.7489 36.2295 28.0868 33.475 29.4794ZM32.9968 8.30015V9.82184L26.0388 11.7539L24.5181 10.6519L32.9968 8.30015ZM0.956429 37.4475V35.3725H20.2763V37.4475H0.956429ZM21.2327 29.5209H22.9543V31.4253H21.2327V29.5209ZM22.9878 16.9277H21.2327V14.8112H22.9878V16.9277ZM21.2327 17.8499H22.9543V19.759H21.2327V17.8499ZM22.9543 13.8889H21.2327V11.9799H22.9543V13.8889ZM21.2327 23.6739H22.9543V25.5783H21.2327V23.6739ZM21.2327 22.7516V20.6581H23.0069C23.0371 21.3616 23.1251 22.0616 23.2699 22.7516H21.2327ZM28.2673 8.04192H26.3018V6.1375H28.2816L28.2673 8.04192ZM13.2131 0.922239H30.6679V3.16789H13.2131V0.922239ZM13.2131 4.09013H30.6679V7.98659L29.2333 8.38776V5.67638C29.2333 5.55408 29.1829 5.43679 29.0932 5.35032C29.0035 5.26384 28.8819 5.21526 28.755 5.21526H25.8236C25.6968 5.21526 25.5751 5.26384 25.4854 5.35032C25.3958 5.43679 25.3454 5.55408 25.3454 5.67638V8.50304C25.3454 8.62533 25.3958 8.74262 25.4854 8.8291C25.5751 8.91558 25.6968 8.96416 25.8236 8.96416H27.1578C23.1073 10.0893 23.2412 10.0017 23.0978 10.1861C22.9543 10.3706 23.0021 10.4167 23.0021 11.0576H21.2327V10.5458C21.2327 10.4235 21.1823 10.3062 21.0927 10.2197C21.003 10.1333 20.8813 10.0847 20.7545 10.0847H13.2131V4.09013ZM4.30393 8.43387H9.20085V10.0847H4.30393V8.43387ZM0.956429 11.0069H20.2763V34.4502H0.956429V11.0069ZM0.956429 38.3697H7.22582V43.0778H0.956429V38.3697ZM8.1679 38.3697H10.1286V43.0778H8.1679V38.3697ZM11.085 43.0778V38.3697H13.0505V43.0778H11.085ZM14.0069 43.0778V38.3697H20.2763V43.0778H14.0069ZM26.5792 43.0778V38.3697H28.5398V43.0778H26.5792ZM29.4963 43.0778V38.3697H31.4617V43.0778H29.4963ZM34.2784 43.0778H32.4325V37.9086C32.4325 37.7863 32.3821 37.669 32.2924 37.5826C32.2028 37.4961 32.0811 37.4475 31.9543 37.4475H26.1153C25.9885 37.4475 25.8668 37.4961 25.7771 37.5826C25.6875 37.669 25.6371 37.7863 25.6371 37.9086V43.0778H21.2327V35.3725H34.2784V43.0778ZM30.6679 34.4502H21.2327V32.3475H23.4325C23.5593 32.3475 23.681 32.2989 23.7707 32.2125C23.8603 32.126 23.9107 32.0087 23.9107 31.8864V29.0597C23.9107 28.9374 23.8603 28.8202 23.7707 28.7337C23.681 28.6472 23.5593 28.5986 23.4325 28.5986H21.2327V26.5005H23.4325C23.5593 26.5005 23.681 26.4519 23.7707 26.3655C23.8603 26.279 23.9107 26.1617 23.9107 26.0394V24.8128C24.4769 26.2184 25.3216 27.5043 26.3974 28.5986H25.8236C25.6968 28.5986 25.5751 28.6472 25.4854 28.7337C25.3958 28.8202 25.3454 28.9374 25.3454 29.0597V31.8864C25.3454 32.0087 25.3958 32.126 25.4854 32.2125C25.5751 32.2989 25.6968 32.3475 25.8236 32.3475H28.7598C28.8867 32.3475 29.0083 32.2989 29.098 32.2125C29.1877 32.126 29.238 32.0087 29.238 31.8864V30.895C29.7163 31.2086 30.1945 31.4944 30.6727 31.7573L30.6679 34.4502ZM28.2768 30.2448V31.4345H26.3018V29.5209H27.3778C27.6599 29.7745 27.9612 30.0143 28.2673 30.2356L28.2768 30.2448ZM31.6243 31.227C26.7226 28.5986 23.9442 25.2278 23.9442 19.8973V11.3943L25.4601 12.4963V19.8973C25.4432 21.3589 25.7293 22.8091 26.3018 24.1626C27.6073 27.1968 30.204 28.8153 32.9968 30.2725V31.9325C32.9203 31.891 32.3225 31.5913 31.6243 31.2224V31.227ZM33.9532 31.9371V30.3001C36.7221 28.9168 41.4899 26.293 41.4899 19.9157V12.4917L43.0393 11.3943V19.8973C43.0393 25.8872 39.4575 29.2857 33.9532 31.9371Z" fill="#727374"/>
<path d="M39.2137 15.5444C39.1912 15.2574 39.0811 14.9834 38.8973 14.7567C38.7135 14.53 38.4642 14.3609 38.1808 14.2707C37.8975 14.1804 37.5928 14.1731 37.3051 14.2496C37.0175 14.3261 36.7597 14.483 36.5644 14.7005L32.0453 19.7728C30.8737 18.8875 31.3853 19.284 30.1324 18.3433C29.8153 18.1061 29.4135 18 29.0153 18.0484C28.6171 18.0969 28.2552 18.2958 28.0092 18.6016C27.7631 18.9073 27.6531 19.2948 27.7033 19.6787C27.7535 20.0627 27.9599 20.4117 28.277 20.6489L30.6393 22.4243C30.9316 22.6817 31.2524 22.9075 31.5958 23.0975C31.8937 23.2358 32.2308 23.2751 32.5544 23.2092C32.878 23.1433 33.1698 22.9759 33.3843 22.7332L38.8694 16.6003C39.1247 16.3062 39.2485 15.9264 39.2137 15.5444ZM38.1282 16.0055L32.6909 22.1061C32.5956 22.2065 32.465 22.2691 32.3245 22.2819C32.184 22.2947 32.0436 22.2567 31.9305 22.1752L28.8938 19.8697C28.8037 19.801 28.738 19.707 28.7056 19.6008C28.6732 19.4945 28.6759 19.3812 28.7131 19.2765C28.7504 19.1717 28.8204 19.0807 28.9136 19.016C29.0068 18.9513 29.1185 18.916 29.2334 18.9151C29.5251 18.9151 29.4725 18.9659 31.8349 20.7273C31.9313 20.8001 32.0529 20.8345 32.1748 20.8233C32.2967 20.8122 32.4095 20.7563 32.49 20.6674L37.3009 15.3C37.3735 15.2252 37.4669 15.1721 37.5699 15.147C37.6729 15.122 37.7812 15.1259 37.8819 15.1585C37.9826 15.191 38.0716 15.2507 38.1381 15.3306C38.2046 15.4105 38.246 15.507 38.2573 15.6089C38.2683 15.6787 38.2643 15.75 38.2453 15.8183C38.2264 15.8865 38.193 15.9503 38.1473 16.0055H38.1282Z" fill="#FF1C2D"/>
</svg>
