<svg width="44" height="44" viewBox="0 0 44 44" fill="none" xmlns="http://www.w3.org/2000/svg">
<path d="M1.9999 22.0031C1.99936 18.2468 3.05671 14.5663 5.05087 11.383C7.04503 8.19967 9.89538 5.6423 13.2755 4.0037C16.6557 2.3651 20.429 1.71152 24.1633 2.11779C27.8977 2.52406 31.4422 3.97377 34.3908 6.3009H31.348C31.0845 6.30345 30.8325 6.40994 30.6471 6.59723C30.4616 6.78451 30.3575 7.03744 30.3575 7.30102C30.3575 7.56461 30.4616 7.81754 30.6471 8.00482C30.8325 8.19211 31.0845 8.2986 31.348 8.30115H37.0058C37.271 8.30115 37.5255 8.19578 37.713 8.00821C37.9006 7.82064 38.006 7.56624 38.006 7.30098V1.6432C38.0073 1.51104 37.9823 1.37995 37.9326 1.25748C37.883 1.13502 37.8095 1.02362 37.7165 0.929714C37.6235 0.835812 37.5128 0.761271 37.3908 0.710401C37.2688 0.65953 37.138 0.633338 37.0058 0.633338C36.8737 0.633338 36.7428 0.65953 36.6208 0.710401C36.4988 0.761271 36.3882 0.835812 36.2952 0.929714C36.2022 1.02362 36.1287 1.13502 36.079 1.25748C36.0293 1.37995 36.0044 1.51104 36.0057 1.6432V5.02993C31.6445 1.43235 26.0658 -0.348544 20.4268 0.0566162C14.7877 0.461776 9.52093 3.0219 5.71887 7.206C1.9168 11.3901 -0.128814 16.8771 0.00629036 22.5289C0.141395 28.1808 2.44685 33.5638 6.4445 37.5615C6.53697 37.6561 6.64729 37.7314 6.76909 37.7831C6.89088 37.8348 7.02172 37.8618 7.15402 37.8625C7.28632 37.8633 7.41746 37.8378 7.53984 37.7875C7.66222 37.7373 7.77341 37.6632 7.86697 37.5696C7.96052 37.4761 8.03458 37.3649 8.08486 37.2425C8.13514 37.1202 8.16064 36.989 8.15987 36.8567C8.15911 36.7244 8.1321 36.5936 8.08042 36.4718C8.02873 36.35 7.95339 36.2397 7.85877 36.1472C5.99547 34.2941 4.51823 32.0898 3.51256 29.662C2.50688 27.2341 1.99275 24.631 1.9999 22.0031ZM13.2616 40.0013C12.6912 39.7236 12.1342 39.4192 11.5925 39.089C11.3661 38.9508 11.0941 38.9082 10.8363 38.9706C10.5785 39.033 10.356 39.1952 10.2178 39.4216C10.0796 39.648 10.037 39.92 10.0993 40.1778C10.1617 40.4356 10.3239 40.6581 10.5503 40.7963C11.1465 41.1599 11.7596 41.495 12.3876 41.8003C12.5057 41.8577 12.634 41.8913 12.7651 41.8991C12.8962 41.9069 13.0275 41.8888 13.1517 41.8459C13.2758 41.803 13.3902 41.736 13.4885 41.6488C13.5867 41.5617 13.6668 41.456 13.7242 41.3379C13.7816 41.2197 13.8152 41.0915 13.823 40.9604C13.8308 40.8293 13.8127 40.6979 13.7698 40.5738C13.7269 40.4497 13.6599 40.3352 13.5727 40.237C13.4855 40.1388 13.3799 40.0587 13.2617 40.0013H13.2616ZM40.0107 13.2802C40.0679 13.3984 40.1479 13.5042 40.2461 13.5915C40.3442 13.6788 40.4586 13.7459 40.5826 13.789C40.7067 13.8321 40.8381 13.8503 40.9692 13.8426C41.1003 13.835 41.2286 13.8016 41.3469 13.7443C41.4651 13.6871 41.5708 13.6071 41.6581 13.5089C41.7454 13.4108 41.8126 13.2964 41.8557 13.1724C41.8988 13.0483 41.917 12.917 41.9093 12.7858C41.9017 12.6547 41.8683 12.5264 41.811 12.4082C41.5066 11.7801 41.1725 11.1668 40.8099 10.5704C40.7416 10.4582 40.6519 10.3605 40.5459 10.2829C40.4398 10.2054 40.3196 10.1495 40.1919 10.1184C39.9342 10.0556 39.662 10.0978 39.4353 10.2357C39.2087 10.3736 39.0461 10.5958 38.9833 10.8536C38.9205 11.1114 38.9627 11.3835 39.1006 11.6102C39.4301 12.1522 39.7338 12.7095 40.0107 13.2802ZM24.3762 41.8658C23.7448 41.9409 23.1059 41.9855 22.477 42.0007C22.2165 42.0106 21.9702 42.1219 21.7906 42.3107C21.611 42.4995 21.5121 42.751 21.5152 43.0117C21.5182 43.2723 21.6228 43.5214 21.8068 43.706C21.9908 43.8906 22.2396 43.9961 22.5002 44C22.508 44 22.5163 44 22.5241 43.9995C23.2156 43.9834 23.9174 43.9339 24.6109 43.852C24.8741 43.8207 25.1141 43.6861 25.2781 43.4779C25.4422 43.2697 25.5169 43.0049 25.4858 42.7417C25.4548 42.4784 25.3205 42.2383 25.1125 42.074C24.9045 41.9097 24.6397 41.8347 24.3765 41.8655L24.3762 41.8658ZM18.6839 41.7301C18.0581 41.6255 17.4377 41.4909 16.8248 41.3269C16.5684 41.2584 16.2954 41.2945 16.0657 41.4273C15.836 41.5601 15.6684 41.7787 15.5999 42.035C15.5314 42.2914 15.5675 42.5644 15.7003 42.7941C15.8332 43.0238 16.0518 43.1913 16.3081 43.2598C16.9829 43.4399 17.6659 43.5877 18.3548 43.7028C18.4844 43.7244 18.6169 43.7203 18.7449 43.6907C18.8728 43.661 18.9937 43.6065 19.1006 43.5302C19.2075 43.4539 19.2983 43.3572 19.3678 43.2458C19.4374 43.1344 19.4843 43.0104 19.5059 42.8808C19.5275 42.7513 19.5234 42.6188 19.4938 42.4908C19.4642 42.3628 19.4096 42.242 19.3333 42.1351C19.257 42.0282 19.1604 41.9374 19.0489 41.8679C18.9375 41.7983 18.8135 41.7514 18.6839 41.7298V41.7301ZM43.0249 21.5209C42.7597 21.5144 42.5029 21.6135 42.3107 21.7964C42.1186 21.9792 42.007 22.2309 42.0003 22.496C41.9842 23.1309 41.9384 23.7646 41.863 24.3952C41.8317 24.6586 41.9062 24.9237 42.0702 25.1322C42.2342 25.3407 42.4743 25.4755 42.7377 25.5071C42.7776 25.5116 42.8177 25.5139 42.8578 25.514C43.1023 25.5136 43.3381 25.4237 43.5209 25.2614C43.7036 25.099 43.8206 24.8753 43.8497 24.6326C43.9321 23.9397 43.9821 23.2434 43.9997 22.5459C44.003 22.4146 43.9805 22.2839 43.9333 22.1613C43.8861 22.0387 43.8152 21.9266 43.7247 21.8314C43.6341 21.7362 43.5257 21.6598 43.4057 21.6065C43.2856 21.5532 43.1562 21.5241 43.0249 21.5209ZM39.955 32.9608C39.7355 32.812 39.4659 32.7563 39.2055 32.806C38.945 32.8558 38.7149 33.0068 38.5656 33.2259C38.2087 33.751 37.8271 34.259 37.4223 34.7481C37.3365 34.849 37.2717 34.9659 37.2314 35.092C37.1912 35.2182 37.1765 35.351 37.188 35.4829C37.1996 35.6148 37.2372 35.7431 37.2987 35.8604C37.3603 35.9776 37.4445 36.0815 37.5465 36.1659C37.6484 36.2503 37.7662 36.3137 37.8929 36.3522C38.0195 36.3908 38.1526 36.4038 38.2843 36.3906C38.4161 36.3773 38.5439 36.338 38.6603 36.2749C38.7767 36.2119 38.8795 36.1263 38.9626 36.0233C39.408 35.4856 39.8276 34.9271 40.2201 34.3497C40.2939 34.2411 40.3456 34.119 40.3722 33.9904C40.3988 33.8619 40.3998 33.7293 40.3752 33.6003C40.3506 33.4713 40.3008 33.3485 40.2287 33.2387C40.1566 33.129 40.0636 33.0345 39.955 32.9608ZM41.3332 16.8432C41.4962 17.4564 41.63 18.0769 41.7341 18.7028C41.7729 18.9363 41.8931 19.1485 42.0736 19.3016C42.254 19.4548 42.4829 19.539 42.7196 19.5394C42.7747 19.5392 42.8298 19.5347 42.8841 19.5257C43.0137 19.5042 43.1378 19.4574 43.2493 19.3879C43.3608 19.3185 43.4576 19.2277 43.534 19.1209C43.6104 19.014 43.665 18.8932 43.6947 18.7652C43.7244 18.6372 43.7286 18.5047 43.707 18.3751C43.5927 17.6863 43.4457 17.0033 43.2663 16.3284C43.1981 16.0721 43.0308 15.8534 42.8013 15.7204C42.5717 15.5874 42.2988 15.5511 42.0425 15.6193C41.7861 15.6876 41.5674 15.8549 41.4344 16.0844C41.3014 16.3139 41.2651 16.5869 41.3334 16.8432H41.3332ZM34.7315 37.4355C34.2425 37.84 33.7345 38.221 33.2093 38.5773C33.1006 38.651 33.0075 38.7453 32.9352 38.855C32.863 38.9647 32.8131 39.0875 32.7883 39.2165C32.7636 39.3455 32.7645 39.4781 32.7909 39.6067C32.8174 39.7353 32.869 39.8575 32.9427 39.9662C33.0164 40.0749 33.1107 40.168 33.2204 40.2402C33.3301 40.3124 33.4529 40.3624 33.5819 40.3871C33.7109 40.4119 33.8435 40.411 33.9721 40.3845C34.1007 40.358 34.2229 40.3065 34.3316 40.2328C34.9092 39.8411 35.4681 39.4223 36.0061 38.9777C36.2107 38.8087 36.3396 38.5654 36.3647 38.3012C36.3898 38.0371 36.309 37.7738 36.1399 37.5693C35.9709 37.3648 35.7276 37.2358 35.4634 37.2107C35.1993 37.1856 34.936 37.2665 34.7315 37.4355ZM42.3113 27.4614C42.0586 27.3812 41.7844 27.4044 41.5489 27.5261C41.3133 27.6478 41.1357 27.858 41.0549 28.1105C40.8618 28.7147 40.64 29.3094 40.3902 29.8924C40.3356 30.0136 40.3057 30.1443 40.3023 30.2771C40.2988 30.4099 40.3219 30.5421 40.3701 30.6659C40.4183 30.7897 40.4906 30.9026 40.583 30.9981C40.6753 31.0936 40.7857 31.1698 40.9078 31.2221C41.0299 31.2745 41.1612 31.302 41.294 31.3031C41.4269 31.3041 41.5586 31.2787 41.6815 31.2283C41.8044 31.1779 41.916 31.1035 42.0098 31.0094C42.1037 30.9154 42.1778 30.8036 42.228 30.6806C42.5036 30.0386 42.7479 29.3836 42.96 28.718C43 28.5929 43.0149 28.4611 43.0039 28.3303C42.993 28.1994 42.9563 28.072 42.8961 27.9553C42.8358 27.8386 42.7532 27.7349 42.6529 27.6502C42.5525 27.5654 42.4365 27.5013 42.3113 27.4614ZM29.8737 40.3978C29.2904 40.6473 28.6956 40.8687 28.0912 41.0615C27.9661 41.1013 27.85 41.1655 27.7497 41.2502C27.6493 41.3349 27.5667 41.4386 27.5064 41.5553C27.4461 41.672 27.4094 41.7994 27.3984 41.9302C27.3874 42.0611 27.4022 42.1929 27.4421 42.318C27.482 42.4431 27.5462 42.5591 27.6309 42.6595C27.7156 42.7598 27.8193 42.8425 27.936 42.9027C28.0527 42.963 28.1801 42.9997 28.3109 43.0107C28.4418 43.0217 28.5736 43.0069 28.6987 42.967C29.364 42.7551 30.0189 42.5114 30.6609 42.237C30.9048 42.1325 31.0972 41.9355 31.1958 41.6892C31.2944 41.4429 31.2912 41.1675 31.1867 40.9236C31.0823 40.6797 30.8852 40.4873 30.6389 40.3887C30.3926 40.2901 30.1172 40.2934 29.8733 40.3978H29.8737Z" fill="#727374"/>
<path d="M13.5443 19.9598C13.5443 18.3206 12.4665 17.0072 10.7983 16.6133C9.88184 16.3963 8.91888 16.4963 8.0666 16.897C7.21431 17.2977 6.52302 17.9755 6.10558 18.8197C5.98869 19.0568 5.97039 19.3305 6.05467 19.581C6.13895 19.8315 6.31897 20.0385 6.55539 20.1567C6.7918 20.2749 7.0654 20.2947 7.31639 20.2119C7.56739 20.129 7.77538 19.9501 7.89491 19.7144C8.10845 19.2712 8.46765 18.9148 8.91246 18.7047C9.35727 18.4946 9.86072 18.4436 10.3386 18.5602C10.6214 18.6268 11.5439 18.9252 11.5439 19.9598C11.5439 21.0029 10.3391 21.8075 9.06352 22.6594C7.62721 23.618 6 24.7046 6 26.5037C6 26.769 6.10538 27.0234 6.29295 27.2109C6.48053 27.3985 6.73493 27.5039 7.0002 27.5039H12.5441C12.6763 27.5052 12.8074 27.4802 12.9298 27.4305C13.0523 27.3809 13.1637 27.3074 13.2576 27.2144C13.3515 27.1214 13.4261 27.0107 13.4769 26.8887C13.5278 26.7668 13.554 26.6359 13.554 26.5038C13.554 26.3716 13.5278 26.2407 13.4769 26.1188C13.4261 25.9968 13.3515 25.8861 13.2576 25.7931C13.1637 25.7001 13.0523 25.6266 12.9298 25.577C12.8074 25.5273 12.6763 25.5023 12.5441 25.5036H8.58156C9.0006 25.1066 9.59292 24.711 10.1741 24.3228C11.7541 23.2679 13.5443 22.0724 13.5443 19.9598ZM23.0029 23.2532C23.0029 22.988 22.8975 22.7336 22.7099 22.546C22.5224 22.3585 22.268 22.2531 22.0027 22.2531H21.1901V16.9398C21.19 16.7327 21.1257 16.5307 21.0059 16.3617C20.8862 16.1927 20.7169 16.065 20.5214 15.9963C20.326 15.9276 20.1141 15.9213 19.9149 15.9782C19.7158 16.0351 19.5392 16.1525 19.4095 16.3141L14.3462 22.6277C14.2284 22.7748 14.1545 22.9522 14.1331 23.1394C14.1117 23.3266 14.1436 23.5161 14.2252 23.6859C14.3067 23.8558 14.4346 23.9992 14.5941 24.0996C14.7536 24.2 14.9382 24.2533 15.1266 24.2534H19.1898V27.0663C19.1885 27.1984 19.2134 27.3295 19.2631 27.452C19.3128 27.5745 19.3862 27.6859 19.4792 27.7798C19.5722 27.8737 19.6829 27.9482 19.8049 27.9991C19.9269 28.05 20.0577 28.0761 20.1899 28.0761C20.3221 28.0761 20.4529 28.05 20.5749 27.9991C20.6969 27.9482 20.8076 27.8737 20.9006 27.7798C20.9936 27.6859 21.067 27.5745 21.1167 27.452C21.1664 27.3295 21.1913 27.1984 21.1901 27.0663V24.2534H22.0027C22.268 24.2534 22.5224 24.148 22.71 23.9604C22.8975 23.7729 23.0029 23.5185 23.0029 23.2532ZM19.1898 22.2531H17.2113L19.1898 19.7855V22.2531ZM28.1219 15.3967C27.9931 15.3706 27.8604 15.3703 27.7314 15.3957C27.6025 15.421 27.4798 15.4716 27.3705 15.5445C27.2611 15.6174 27.1672 15.7112 27.0942 15.8204C27.0212 15.9297 26.9705 16.0523 26.9449 16.1812L24.6946 27.4328C24.6425 27.6929 24.6959 27.963 24.843 28.1837C24.9901 28.4044 25.2188 28.5577 25.4789 28.6097C25.5438 28.6226 25.6097 28.6292 25.6758 28.6292C25.9068 28.629 26.1306 28.5488 26.3092 28.4023C26.4878 28.2557 26.6101 28.0519 26.6555 27.8254L28.9059 16.5738C28.9317 16.445 28.932 16.3124 28.9065 16.1835C28.8811 16.0547 28.8306 15.9321 28.7578 15.8228C28.685 15.7135 28.5913 15.6196 28.4822 15.5465C28.3731 15.4733 28.2507 15.4224 28.1219 15.3967ZM33.2542 27.5043C33.4517 27.5042 33.6447 27.4457 33.8091 27.3361C33.9734 27.2265 34.1016 27.0708 34.1777 26.8885L37.9283 17.8872C37.9917 17.7352 38.0166 17.57 38.0008 17.406C37.985 17.2421 37.9289 17.0847 37.8376 16.9476C37.7462 16.8106 37.6225 16.6982 37.4773 16.6205C37.3321 16.5428 37.1699 16.5022 37.0053 16.5022H31.9419C31.6783 16.5048 31.4264 16.6113 31.2409 16.7986C31.0554 16.9858 30.9514 17.2388 30.9514 17.5024C30.9514 17.7659 31.0554 18.0189 31.2409 18.2062C31.4264 18.3934 31.6783 18.4999 31.9419 18.5025H35.505L32.3316 26.1193C32.2685 26.2713 32.2438 26.4364 32.2597 26.6002C32.2756 26.764 32.3317 26.9214 32.4229 27.0584C32.5141 27.1953 32.6377 27.3077 32.7827 27.3856C32.9277 27.4634 33.0896 27.5043 33.2542 27.5047V27.5043Z" fill="#FF1C2D"/>
</svg>
