<svg width="44" height="44" viewBox="0 0 44 44" fill="none" xmlns="http://www.w3.org/2000/svg">
<path fill-rule="evenodd" clip-rule="evenodd" d="M22.001 43.3124H22.002C24.8013 43.32 27.5742 42.7724 30.1605 41.7012C32.7467 40.63 35.0948 39.0565 37.069 37.0718L37.0696 37.0712L37.0703 37.0705C41.0671 33.0736 43.3125 27.6527 43.3125 22.0002C43.3125 16.3477 41.0671 10.9267 37.0703 6.92983C33.0734 2.93293 27.6525 0.687492 22.0001 0.687492C16.3477 0.687492 10.9268 2.93293 6.92994 6.92983L6.92993 6.92984C3.94928 9.91042 1.91941 13.708 1.09703 17.8422C0.274652 21.9765 0.696701 26.2617 2.3098 30.1561C3.92291 34.0505 6.65461 37.3791 10.1595 39.7209C13.6643 42.0627 17.7849 43.3125 22.0001 43.3124H22.001ZM37.5564 37.5567C41.6822 33.4308 44 27.835 44 22.0002C44 16.1654 41.6822 10.5695 37.5564 6.4437C33.4306 2.31787 27.8348 0 22.0001 0C16.1654 0 10.5696 2.31787 6.44382 6.4437C3.36701 9.52043 1.27166 13.4405 0.422758 17.7081C-0.426148 21.9757 0.00951539 26.3992 1.67465 30.4192C3.33979 34.4392 6.15962 37.8751 9.77752 40.2925C13.3954 42.7099 17.6489 44 22.0001 43.9999C24.8903 44.0078 27.7533 43.4423 30.4236 42.3364C33.0938 41.2304 35.5182 39.6058 37.5564 37.5567ZM2.63725 22.0002C2.63725 11.3231 11.3232 2.63708 22.0001 2.63708C32.6779 2.63708 41.363 11.3223 41.363 22.0002C41.363 32.6781 32.677 41.3633 22.0001 41.3633C11.3232 41.3633 2.63725 32.6772 2.63725 22.0002ZM3.32473 22.0002C3.32473 11.7028 11.7029 3.32458 22.0001 3.32458C32.2982 3.32458 40.6755 11.702 40.6755 22.0002C40.6755 32.2984 32.2973 40.6758 22.0001 40.6758C11.7029 40.6758 3.32473 32.2976 3.32473 22.0002Z" fill="#727374"/>
<path d="M16.6427 32.0834C16.4659 32.0834 16.2963 32.0132 16.1713 31.8882C16.0463 31.7631 15.976 31.5936 15.976 31.4168V29.2501H14.401C14.2242 29.2501 14.0547 29.1799 13.9296 29.0549C13.8046 28.9298 13.7344 28.7603 13.7344 28.5835V26.0685C13.7344 25.8917 13.8046 25.7221 13.9296 25.5971C14.0547 25.4721 14.2242 25.4018 14.401 25.4018H15.976V24.7785H14.401C14.2242 24.7785 14.0547 24.7083 13.9296 24.5832C13.8046 24.4582 13.7344 24.2887 13.7344 24.1118V21.5985C13.7344 21.4217 13.8046 21.2522 13.9296 21.1271C14.0547 21.0021 14.2242 20.9319 14.401 20.9319H15.976V12.5837C15.976 12.4068 16.0463 12.2373 16.1713 12.1123C16.2963 11.9872 16.4659 11.917 16.6427 11.917H23.9376C25.1701 11.917 26.2784 12.1878 27.23 12.7211C28.185 13.2529 28.9662 14.0489 29.48 15.0136C30.0017 15.9811 30.2658 17.1078 30.2658 18.3627C30.2658 19.6177 30.0017 20.7427 29.4792 21.706C28.965 22.6673 28.1836 23.4591 27.2292 23.986C26.2784 24.5143 25.1709 24.7818 23.9384 24.7818H19.9526V25.4052H23.0834C23.2602 25.4052 23.4298 25.4754 23.5548 25.6004C23.6799 25.7254 23.7501 25.895 23.7501 26.0718V28.5835C23.7501 28.7603 23.6799 28.9298 23.5548 29.0549C23.4298 29.1799 23.2602 29.2501 23.0834 29.2501H19.9526V31.4168C19.9526 31.5936 19.8824 31.7631 19.7574 31.8882C19.6324 32.0132 19.4628 32.0834 19.286 32.0834H16.6427ZM24.0276 20.9286C24.4327 20.9402 24.8326 20.8355 25.1801 20.6269C25.5103 20.4187 25.7727 20.1186 25.9351 19.7636C26.1267 19.3167 26.2255 18.8356 26.2255 18.3494C26.2255 17.8632 26.1267 17.3821 25.9351 16.9353C25.7718 16.5773 25.5084 16.2743 25.1767 16.0628C24.8316 15.8519 24.4327 15.7457 24.0284 15.7569H19.9535V20.9286H24.0276Z" fill="#727374"/>
<path d="M14.4023 21.5985H23.0847V24.1118H14.4023V21.5985ZM14.4023 26.0685H23.0847V28.5834H14.4023V26.0685ZM16.644 12.5836H19.2873V31.4167H16.644V12.5836ZM18.0015 21.5985H24.0264C24.5543 21.609 25.0744 21.4698 25.5264 21.1968C25.9645 20.9223 26.3134 20.5262 26.5305 20.0569C26.7657 19.5195 26.8872 18.9393 26.8872 18.3527C26.8872 17.7661 26.7657 17.1859 26.5305 16.6486C26.314 16.1785 25.9676 15.78 25.5322 15.5002C25.0816 15.2234 24.561 15.0816 24.0322 15.0919H18.0015V12.5836H23.9364C25.0592 12.5836 26.048 12.8233 26.903 13.3028C27.7483 13.7719 28.4393 14.4762 28.8922 15.3303C29.3627 16.203 29.598 17.2138 29.598 18.3627C29.598 19.5116 29.3627 20.5199 28.8922 21.3877C28.4388 22.2382 27.7476 22.9383 26.903 23.4027C26.048 23.8776 25.0592 24.1151 23.9364 24.1151H18.0015V21.5985Z" fill="#FF1C2D"/>
</svg>
