<svg width="355" height="404" viewBox="0 0 355 404" fill="none" xmlns="http://www.w3.org/2000/svg">
<path d="M234.7 402.358L352.282 334.472C354.859 332.986 354.859 330.574 352.282 329.086L129.668 200.558C127.091 199.07 122.914 199.07 120.338 200.558L2.7549 268.445C0.178055 269.933 0.178055 272.345 2.7549 273.832L225.37 402.358C227.947 403.846 232.124 403.846 234.7 402.358Z" fill="#DADBD8"/>
<path d="M345.157 311.395C346.828 312.69 346.647 314.528 344.62 315.692L233.638 379.776C231.409 381.055 227.791 381.055 225.565 379.77L13.461 257.313C11.4086 256.128 11.2415 254.258 12.9872 252.97C10.9819 254.39 9.42597 257.256 9.42435 259.649L9.418 264.983C9.41002 267.557 11.218 270.69 13.4539 271.982L225.548 394.435C227.784 395.725 231.401 395.724 233.626 394.431L344.613 330.361C346.841 329.083 348.651 325.947 348.649 323.369L348.661 318.024C348.655 315.664 347.137 312.833 345.157 311.395Z" fill="#33535F"/>
<path d="M315.848 301.131C317.754 302.232 317.761 304.02 315.841 305.123L214.936 363.393C213.021 364.487 209.925 364.496 208.009 363.39L42.8715 268.048C40.9557 266.941 40.9637 265.149 42.8693 264.051L143.784 205.786C145.694 204.677 147.682 204.041 149.588 205.141L315.848 301.131ZM344.623 311.037L132.519 188.579C130.292 187.293 126.675 187.294 124.446 188.572L13.4639 252.657C11.2347 253.936 11.2373 256.027 13.4639 257.313L225.568 379.77C227.794 381.056 231.412 381.055 233.641 379.776L344.623 315.692C346.852 314.412 346.849 312.322 344.623 311.037Z" fill="#273E47"/>
<path d="M12.9872 252.97C10.9819 254.391 9.42594 257.256 9.42433 259.649L9.41797 264.985C9.41969 267.563 11.2179 270.69 13.4539 271.982L225.548 394.435C226.665 395.08 228.131 395.4 229.596 395.403L229.603 380.734C228.137 380.731 226.673 380.41 225.565 379.77L13.461 257.313C11.4086 256.128 11.2411 254.258 12.9872 252.97Z" fill="#17282F"/>
<path d="M79.5968 226.907C81.0911 226.044 81.0911 224.646 79.5968 223.783C78.1025 222.921 75.6795 222.921 74.1852 223.783C72.6909 224.646 72.6909 226.044 74.1852 226.907C75.6795 227.771 78.1025 227.771 79.5968 226.907Z" fill="#040606"/>
<path d="M285.017 344.097L285.286 344.563C287.148 343.493 288.194 342.002 288.195 340.417C288.194 338.832 287.148 337.341 285.286 336.272C283.417 335.196 281.031 334.678 278.645 334.676C276.26 334.678 273.874 335.196 272.004 336.272C270.143 337.341 269.098 338.832 269.096 340.417C269.098 342.001 270.143 343.493 272.004 344.563C273.874 345.64 276.26 346.156 278.645 346.159C281.031 346.156 283.417 345.64 285.286 344.563L285.017 344.097L284.748 343.63C283.098 344.585 280.872 345.084 278.645 345.082C276.417 345.084 274.192 344.585 272.542 343.63C270.885 342.667 270.171 341.496 270.173 340.417C270.171 339.339 270.885 338.167 272.542 337.205C274.192 336.25 276.417 335.751 278.645 335.754C280.872 335.751 283.098 336.25 284.748 337.205C286.406 338.167 287.12 339.339 287.118 340.417C287.12 341.496 286.406 342.668 284.748 343.63L285.017 344.097Z" fill="#E2E2E0"/>
<path d="M76.9263 237.274L97.8186 225.213C99.064 224.493 99.1265 223.362 97.9576 222.687C96.7886 222.012 94.83 222.047 93.5835 222.767L72.6923 234.829C71.4458 235.549 71.3833 236.68 72.5522 237.355C73.7222 238.029 75.6809 237.993 76.9263 237.274Z" fill="#040606"/>
<path d="M149.584 205.141C147.678 204.041 145.691 204.677 143.781 205.786L42.8656 264.051C40.9599 265.15 40.9519 266.941 42.8677 268.048L208.006 363.39C209.921 364.496 213.017 364.487 214.932 363.394L315.837 305.123C317.757 304.02 317.75 302.232 315.845 301.131L149.584 205.141Z" fill="#519FE7"/>
<path d="M211.465 364.217C210.245 364.217 209.027 363.956 208.08 363.432C208.055 363.418 208.03 363.404 208.005 363.39L42.8675 268.048C41.9096 267.495 41.4327 266.77 41.4336 266.047C41.434 265.323 41.9125 264.6 42.8653 264.051L109.302 225.692V231.193C109.302 232.91 110.519 235.018 112.006 235.875L115.052 237.635C115.796 238.063 116.776 238.279 117.755 238.279C118.429 238.279 119.103 238.177 119.7 237.974C119.7 237.974 119.7 237.974 119.701 237.974C119.714 237.97 119.727 237.964 119.74 237.96C119.743 237.959 119.745 237.959 119.747 237.958C119.752 237.956 119.756 237.955 119.76 237.953C119.765 237.951 119.769 237.95 119.774 237.948C119.777 237.947 119.779 237.947 119.781 237.946C119.799 237.939 119.816 237.933 119.835 237.927C119.837 237.925 119.839 237.924 119.841 237.923C119.956 237.88 120.07 237.833 120.178 237.781C120.213 237.765 120.246 237.749 120.281 237.732C120.283 237.729 120.286 237.728 120.289 237.727C120.293 237.725 120.296 237.724 120.298 237.722C120.3 237.722 120.301 237.721 120.302 237.72C120.32 237.711 120.336 237.702 120.353 237.694C120.354 237.693 120.356 237.692 120.357 237.691C120.392 237.672 120.425 237.654 120.459 237.635L153.163 218.753L163.162 212.98L315.844 301.131C316.797 301.682 317.275 302.404 317.275 303.127C317.275 303.848 316.797 304.571 315.837 305.123L214.932 363.394C214.902 363.409 214.872 363.427 214.842 363.443C214.839 363.444 214.837 363.446 214.834 363.447C214.827 363.452 214.82 363.455 214.812 363.459C213.872 363.962 212.67 364.215 211.469 364.217C211.468 364.217 211.466 364.217 211.465 364.217Z" fill="#CEDBEE"/>
<path d="M54.4914 269.287L53.417 268.666C53.1843 268.531 53.1839 268.314 53.4158 268.18L53.5319 268.112C53.7634 267.979 54.1401 267.979 54.3723 268.112L55.448 268.734C55.6799 268.867 55.6803 269.085 55.4484 269.22L55.3323 269.287C55.1009 269.421 54.7241 269.421 54.4914 269.287Z" fill="#33535F"/>
<path d="M56.4069 268.18L54.5493 267.108C54.3169 266.973 54.3169 266.756 54.5493 266.622L54.6667 266.554C54.8994 266.421 55.2761 266.421 55.5079 266.554L57.366 267.626C57.5982 267.761 57.5982 267.979 57.366 268.112L57.2485 268.18C57.0158 268.314 56.6387 268.314 56.4069 268.18Z" fill="#33535F"/>
<path d="M58.3274 267.073L55.6883 265.549C55.4555 265.414 55.4555 265.197 55.6878 265.063L55.8036 264.996C56.0359 264.862 56.4121 264.862 56.6444 264.996L59.2844 266.52C59.5167 266.655 59.5167 266.871 59.2848 267.006L59.1687 267.073C58.9368 267.207 58.5602 267.207 58.3274 267.073Z" fill="#33535F"/>
<path d="M60.2406 265.966L55.6835 263.335C55.4516 263.202 55.4516 262.984 55.6848 262.85L55.8026 262.782C56.0354 262.648 56.412 262.648 56.6439 262.782L61.1973 265.413C61.4301 265.547 61.4301 265.765 61.1973 265.899L61.081 265.966C60.8494 266.101 60.4734 266.101 60.2406 265.966Z" fill="#33535F"/>
<path d="M64.434 262.299L62.7673 261.337L62.875 263.199L64.434 262.299ZM65.7419 263.151L65.5307 263.097L64.8617 262.71L62.7145 263.951C62.596 264.018 62.4904 264.026 62.3956 263.971L62.1553 263.832L62.0487 263.748L62.0163 263.641L61.9043 260.94L61.9258 260.827L62.0508 260.727L62.3503 260.554L62.5992 260.471L62.8244 260.531L65.1601 261.881L65.6341 261.606L65.8733 261.525L66.0888 261.588L66.2482 261.679L66.3463 261.798L66.2041 261.935L65.73 262.209L66.398 262.595L66.4928 262.717L66.342 262.859L65.98 263.067L65.7419 263.151Z" fill="#33535F"/>
<path d="M67.8876 261.443C67.1065 261.48 66.3815 261.303 65.7135 260.917C65.0477 260.533 64.746 260.114 64.8064 259.661C64.8667 259.209 65.2793 258.762 66.0421 258.321C66.3492 258.142 66.6637 257.993 66.9859 257.871C67.3069 257.749 67.6064 257.666 67.8844 257.623L68.0223 257.632L68.0654 257.688L68.1624 257.971L68.1343 258.049L68.0169 258.083C67.5612 258.175 67.1195 258.343 66.6961 258.587C66.1811 258.885 65.901 259.192 65.8589 259.507C65.8191 259.823 66.054 260.128 66.5668 260.424C67.0839 260.722 67.6097 260.862 68.1451 260.841C68.6795 260.822 69.1956 260.668 69.6933 260.381C69.8743 260.277 70.037 260.168 70.1835 260.054C70.3289 259.94 70.4334 259.838 70.4959 259.749L69.41 259.122L68.5147 259.638L68.2755 259.718L68.0589 259.657L67.9059 259.569L67.8068 259.448L67.9512 259.312L69.3809 258.487C69.48 258.43 69.5726 258.401 69.6567 258.4L69.912 258.473L71.4623 259.367L71.5733 259.456L71.5647 259.551C71.3761 259.922 70.9247 260.314 70.2104 260.727C69.4412 261.171 68.6676 261.41 67.8876 261.443Z" fill="#33535F"/>
<path d="M97.7047 240.51L100.242 241.974C100.432 242.084 100.74 242.084 100.93 241.975L103.476 240.509C103.666 240.399 103.667 240.221 103.476 240.111L100.936 238.644C100.746 238.535 100.438 238.535 100.247 238.645L97.7047 240.113C97.5151 240.222 97.5151 240.4 97.7047 240.51Z" fill="#33535F"/>
<path d="M99.4587 238.523C99.185 238.365 98.7993 238.278 98.3705 238.278C97.9407 238.279 97.555 238.365 97.2813 238.523C96.7922 238.807 96.7911 239.251 97.2813 239.534L98.154 240.037L98.7972 239.914L97.9245 239.41C97.5679 239.203 97.569 238.854 97.9245 238.647C98.0592 238.57 98.2251 238.526 98.3694 238.526C98.5192 238.526 98.6819 238.57 98.8166 238.647L99.6903 239.151L100.333 239.028L99.4587 238.523Z" fill="#33535F"/>
<path d="M141.591 218.285C141.416 218.285 141.227 218.233 141.071 218.144L138.728 216.791C138.32 216.555 138.32 216.156 138.729 215.92L145.165 212.207C145.266 212.148 145.381 212.106 145.496 212.084L145.686 212.066C145.86 212.066 146.05 212.117 146.204 212.206L148.547 213.56C148.958 213.796 148.958 214.193 148.548 214.429L142.111 218.144C141.956 218.234 141.77 218.285 141.591 218.285ZM145.686 211.794C145.202 211.794 144.77 211.892 144.461 212.07L138.025 215.785C137.469 216.105 137.469 216.607 138.022 216.927L140.366 218.28C140.675 218.458 141.11 218.557 141.592 218.557C141.798 218.557 141.998 218.538 142.186 218.502C142.431 218.455 142.642 218.38 142.816 218.28L149.253 214.566C149.808 214.245 149.809 213.744 149.254 213.423L146.91 212.07C146.602 211.892 146.167 211.794 145.686 211.794Z" fill="#33535F"/>
<path d="M141.785 217.829L141.694 217.778L139.583 216.56C139.292 216.391 139.292 216.084 139.584 215.916L145.378 212.573L145.495 212.521L145.589 212.573L147.698 213.79C147.99 213.96 147.989 214.267 147.697 214.436L141.904 217.778L141.785 217.829Z" fill="#33535F"/>
<path d="M147.246 211.895C147.482 211.757 148.064 211.871 148.544 212.148L148.979 212.4C149.461 212.677 149.666 213.021 149.437 213.166L149.024 213.428L146.82 212.145C146.82 212.145 147.011 212.033 147.246 211.895Z" fill="#33535F"/>
<path d="M111.948 266.647C108.794 265.282 106.104 265.472 104.068 266.647C102.36 267.633 102.009 269.059 103.905 270.154C105.754 271.221 107.927 271.074 110.029 269.861C111.211 269.179 112.106 268.065 111.948 266.647ZM110.424 275.207C111.902 275.15 113.674 274.695 114.953 273.957C117.582 272.439 118.262 270.368 114.092 267.771C114.009 269.126 112.862 270.586 111.351 271.458C107.773 273.525 103.7 274.055 100.424 272.163C97.2965 270.357 98.2877 267.48 101.868 265.413C105.938 263.064 111.782 262.42 117.053 265.463C123.137 268.976 121.768 272.696 117.468 275.18C114.973 276.619 112.344 277.227 110.114 277.378L110.424 275.207Z" fill="#33535F"/>
<path d="M127.875 264.734C129.253 263.936 131.117 263.801 132.225 264.44C133.333 265.079 133.096 266.156 131.718 266.952C130.34 267.747 128.442 267.904 127.334 267.264C126.226 266.624 126.497 265.529 127.875 264.734ZM119.452 259.869C120.829 259.074 122.693 258.936 123.801 259.576C124.91 260.216 124.673 261.292 123.293 262.088C121.915 262.884 120.019 263.041 118.908 262.4C117.801 261.76 118.073 260.665 119.452 259.869Z" fill="#33535F"/>
<path d="M139.9 252.757C135.465 250.198 132.618 250.222 130.583 251.396C128.58 252.553 128.506 254.216 132.94 256.776C137.373 259.335 140.403 259.378 142.406 258.222C144.44 257.048 144.333 255.316 139.9 252.757ZM129.329 258.86C124.032 255.803 124.031 252.619 128.366 250.116C132.7 247.614 138.238 247.629 143.51 250.673C148.806 253.73 148.956 257 144.624 259.503C140.289 262.005 134.625 261.918 129.329 258.86Z" fill="#33535F"/>
<path d="M156.742 243.032C152.309 240.472 149.46 240.496 147.425 241.671C145.422 242.827 145.348 244.491 149.78 247.051C154.215 249.611 157.245 249.653 159.248 248.498C161.282 247.321 161.177 245.592 156.742 243.032ZM146.17 249.135C140.874 246.078 140.874 242.893 145.207 240.39C149.542 237.889 155.082 237.904 160.354 240.947C165.65 244.005 165.8 247.275 161.464 249.776C157.131 252.279 151.466 252.193 146.17 249.135Z" fill="#33535F"/>
<path d="M119.017 298.851L203.785 249.914C205.575 248.881 208.479 248.881 210.27 249.914L231.934 262.424C233.725 263.457 233.725 265.133 231.934 266.166L147.18 315.104C145.389 316.138 142.486 316.138 140.694 315.105L119.018 302.594C117.226 301.56 117.226 299.885 119.017 298.851Z" fill="#519FE7"/>
<path d="M128.09 300.508L143.252 309.262C144.025 309.708 145.278 309.708 146.052 309.262L168.4 296.36C169.173 295.914 169.173 295.19 168.4 294.744L153.237 285.99C152.464 285.543 151.21 285.543 150.438 285.99L128.09 298.891C127.316 299.338 127.316 300.062 128.09 300.508Z" fill="#FAFAF9"/>
<path d="M150.984 296.301L168.972 295.588L151.058 295.321L151.776 285.655L148.839 297.58L127.51 299.689L144.925 298.87L144.494 309.589L145.833 298.828L150.813 298.593L150.984 296.301Z" fill="#519FE7"/>
<path d="M160.441 281.389L182.344 268.794C183.339 268.219 184.919 268.2 185.871 268.749C186.822 269.298 186.787 270.21 185.791 270.785L163.888 283.38C162.892 283.954 161.314 283.974 160.361 283.425C159.409 282.875 159.445 281.964 160.441 281.389Z" fill="#FAFAF9"/>
<path d="M167.179 285.279L211.571 259.63C212.568 259.055 214.147 259.034 215.099 259.584C216.051 260.134 216.015 261.046 215.02 261.62L170.627 287.27C169.63 287.844 168.051 287.866 167.099 287.316C166.147 286.766 166.184 285.854 167.179 285.279Z" fill="#FAFAF9"/>
<path d="M173.92 289.17L218.312 263.52C219.308 262.945 220.888 262.925 221.839 263.475C222.791 264.025 222.756 264.936 221.76 265.511L177.366 291.16C176.371 291.736 174.791 291.756 173.84 291.207C172.888 290.657 172.923 289.745 173.92 289.17Z" fill="#FAFAF9"/>
<path d="M109.305 122.068L253.005 39.1019L258.755 42.4212C260.242 43.2799 261.458 45.3862 261.458 47.1035V153.109C261.458 154.825 260.242 156.932 258.755 157.79L120.461 237.635C118.974 238.493 116.541 238.493 115.055 237.635L112.008 235.875C110.521 235.018 109.305 232.91 109.305 231.193V122.068Z" fill="#519FE7"/>
<path d="M117.758 238.279C116.778 238.279 115.798 238.063 115.055 237.635C115.798 238.063 116.778 238.278 117.758 238.278C118.432 238.278 119.105 238.176 119.702 237.974C119.105 238.176 118.431 238.279 117.758 238.279ZM120.461 237.635L121.982 236.756L122.123 236.674L153.165 218.753L120.461 237.635ZM168.078 210.143V210.14L196.188 193.914L168.078 210.142M126.06 128.093L126.048 128.09V114.938L126.06 114.931V128.093ZM119.172 127.767L116.464 126.203L116.955 126.485L119.173 127.767C119.173 127.767 119.173 127.767 119.172 127.767ZM119.191 127.759C119.326 127.699 119.471 127.658 119.616 127.627C119.769 127.6 119.928 127.586 120.09 127.586C120.155 127.586 120.221 127.588 120.286 127.593C120.227 127.589 120.168 127.587 120.11 127.587C119.779 127.587 119.47 127.647 119.191 127.759ZM121.363 126.498L113.648 122.098L121.363 117.643V126.498ZM249.4 56.4905V43.7173L253.048 41.6099L258.187 44.5727C258.03 44.6718 257.884 44.7839 257.754 44.9131C257.753 44.9131 257.753 44.9142 257.753 44.9142C257.752 44.9153 257.752 44.9153 257.751 44.9164C257.669 44.9972 257.591 45.0866 257.519 45.1868L249.4 56.4905ZM260.437 44.0739C260.428 44.0609 260.419 44.048 260.411 44.0351C260.405 44.0264 260.399 44.0178 260.393 44.0092C260.407 44.0308 260.423 44.0523 260.437 44.0739Z" fill="#2567B5"/>
<path d="M252.211 29.7826L252.798 29.4626L250.566 28.1654V28.1676C250.374 28.0555 250.176 27.9596 249.973 27.8842L186.73 4.44936C185.057 3.82879 182.883 4.52047 181.874 5.99323L111.129 109.306C110.12 110.779 109.303 113.42 109.303 115.205C109.304 118.157 109.304 122.065 109.304 122.065L111.496 123.339L253.004 39.1018V32.2389C253.004 31.404 252.698 30.5367 252.211 29.7826Z" fill="#519FE7"/>
<path d="M111.998 113.525L109.809 112.259C109.97 111.721 110.165 111.193 110.38 110.697L110.401 110.654C110.498 110.439 110.595 110.234 110.704 110.029L110.757 109.932C110.875 109.706 111.004 109.491 111.134 109.307L121.363 94.3687V98.8354L113.321 110.579C113.216 110.734 113.113 110.902 113.013 111.08C112.616 111.78 112.263 112.642 111.998 113.525ZM126.049 91.9931V87.5263L126.06 87.5091L126.061 91.9769L126.049 91.9931ZM143.064 62.6779L181.874 5.99879C181.946 5.89105 182.022 5.79733 182.103 5.70575C182.145 5.65942 182.188 5.61309 182.231 5.56676C182.225 5.57323 182.219 5.57968 182.213 5.58507C182.218 5.57968 182.224 5.57323 182.229 5.56784C182.235 5.56245 182.241 5.55598 182.246 5.55059C182.241 5.55598 182.236 5.56138 182.231 5.56676C182.249 5.54953 182.266 5.53229 182.283 5.51398C182.333 5.46657 182.382 5.41916 182.433 5.37391C182.478 5.33297 182.523 5.29417 182.57 5.25647C182.583 5.2457 182.595 5.23492 182.608 5.22414L184.792 6.48684C184.513 6.71309 184.268 6.97488 184.068 7.26685L148.126 59.755L143.064 62.6779ZM182.486 5.32652C182.525 5.29096 182.566 5.25646 182.606 5.22307L182.608 5.22414C182.595 5.23492 182.583 5.2457 182.57 5.25647C182.542 5.27909 182.514 5.30281 182.486 5.32652Z" fill="#1D3EB3"/>
<path d="M250.411 28.0814C250.268 28.0059 250.121 27.9391 249.972 27.8842L249.398 27.6709V27.6676L249.971 27.8799C250.122 27.9348 250.268 28.0027 250.411 28.0814ZM221.564 17.3573L186.729 4.44932C186.437 4.34051 186.13 4.27264 185.816 4.2414C186.13 4.27156 186.437 4.33943 186.73 4.44717L221.568 17.3551L221.564 17.3573Z" fill="white"/>
<path d="M252.599 29.3484C252.458 29.2763 252.314 29.2116 252.169 29.1578L249.402 28.1321V27.671L249.976 27.8843C250.125 27.9392 250.271 28.0061 250.415 28.0815C250.465 28.1095 250.517 28.1396 250.568 28.1709L252.599 29.3484ZM221.081 17.6375L188.921 5.71749C188.507 5.5645 188.063 5.49231 187.613 5.49231C187.21 5.49231 186.803 5.5505 186.409 5.66146C185.819 5.8263 185.26 6.10751 184.793 6.48674L182.61 5.22405L182.607 5.22297C183.391 4.5884 184.423 4.2232 185.431 4.2232C185.562 4.2232 185.691 4.22858 185.82 4.2415C186.134 4.27275 186.441 4.34061 186.733 4.44943L221.568 17.3574L221.081 17.6375Z" fill="#5279C5"/>
<path d="M110.752 109.928C110.874 109.705 111 109.496 111.129 109.306C111 109.495 110.874 109.705 110.752 109.928Z" fill="#519FE7"/>
<path d="M182.232 5.56677C182.351 5.44611 182.478 5.33081 182.611 5.22307C182.478 5.33189 182.349 5.44288 182.232 5.56677Z" fill="#519FE7"/>
<path d="M109.807 112.262C109.968 111.721 110.164 111.189 110.381 110.695C110.163 111.189 109.968 111.72 109.807 112.262Z" fill="#519FE7"/>
<path d="M181.883 5.97928C181.884 5.97928 181.884 5.97928 181.884 5.97828C181.884 5.97828 181.884 5.97928 181.883 5.97928Z" fill="#C3C5C2"/>
<path d="M181.875 5.99329C181.877 5.98898 181.88 5.98358 181.884 5.97927C181.885 5.97927 181.885 5.97819 181.885 5.97819C181.887 5.97603 181.888 5.9739 181.89 5.97174C181.885 5.97821 181.879 5.98574 181.875 5.99329ZM181.89 5.97174C181.986 5.83384 182.095 5.70563 182.212 5.58496C182.175 5.6259 182.138 5.66578 182.102 5.70564C182.027 5.79075 181.955 5.87801 181.89 5.97174Z" fill="#1436B0"/>
<path d="M182.102 5.70566C182.137 5.6658 182.174 5.62592 182.211 5.58498C182.218 5.57959 182.223 5.57314 182.23 5.56667C182.187 5.613 182.144 5.65933 182.102 5.70566Z" fill="#092DAC"/>
<path d="M184.068 7.26667L113.323 110.58C112.315 112.052 111.497 114.693 111.498 116.478C111.498 119.43 111.498 123.339 111.498 123.339L255.2 40.3688L255.198 33.5124C255.198 31.7272 253.842 29.7782 252.168 29.1577L188.925 5.7228C187.251 5.10223 185.077 5.79391 184.068 7.26667Z" fill="#519FE7"/>
<path d="M127.134 223.202L122.529 220.537H122.517L122.471 220.502V220.49C121.791 220.064 121.363 219.209 121.363 217.975V74.3522C121.363 73.0248 121.872 71.5359 122.656 70.2442L127.342 72.944C126.545 74.2369 126.049 75.7258 126.049 77.0639V220.687C126.049 221.899 126.465 222.776 127.134 223.202Z" fill="#DADBD8"/>
<path d="M130.018 70.2075L245.44 3.5746C247.626 2.31192 249.4 3.33542 249.4 5.85968V149.479C249.4 152.003 247.626 155.073 245.44 156.335L130.02 222.969C127.833 224.231 126.061 223.209 126.061 220.683L126.059 77.065C126.059 74.5407 127.831 71.4702 130.018 70.2075Z" fill="#EDEDEB"/>
<path d="M243.558 0.599998L248.082 3.21909C247.379 2.89587 246.456 2.97775 245.435 3.59724L130.008 70.2129C128.974 70.7818 128.043 71.7902 127.339 72.9451L122.654 70.2442C123.346 69.0903 124.293 68.097 125.32 67.4969L240.743 0.865028C241.851 0.230461 242.844 0.173378 243.558 0.611862V0.599998Z" fill="#FAFAF9"/>
<path d="M139.018 77.7255L235.007 22.3058C236.297 21.5613 237.34 22.0903 237.34 23.4855C237.34 24.8807 236.296 26.6153 235.006 27.3586L139.018 82.7783C137.73 83.5217 136.686 82.9938 136.686 81.5986C136.686 80.2034 137.73 78.4689 139.018 77.7255Z" fill="#DADBD8"/>
<path d="M139.018 87.7978L235.007 32.3781C236.297 31.6336 237.34 32.1615 237.34 33.5578C237.34 34.953 236.296 36.6876 235.006 37.431L139.018 92.8507C137.73 93.5941 136.686 93.0661 136.686 91.671C136.686 90.2758 137.73 88.5423 139.018 87.7978Z" fill="#DADBD8"/>
<path d="M139.018 97.87L235.007 42.4503C236.297 41.7058 237.34 42.2348 237.34 43.63C237.34 45.0252 236.296 46.7598 235.006 47.5031L139.018 102.923C137.73 103.667 136.686 103.138 136.686 101.743C136.686 100.348 137.73 98.6145 139.018 97.87Z" fill="#DADBD8"/>
<path d="M139.018 107.942L235.007 52.5226C236.297 51.7792 237.34 52.3071 237.34 53.7023C237.34 55.0975 236.296 56.832 235.006 57.5754L139.018 112.995C137.73 113.74 136.686 113.211 136.686 111.816C136.686 110.42 137.73 108.687 139.018 107.942Z" fill="#DADBD8"/>
<path d="M139.018 118.015L235.007 62.5949C236.297 61.8515 237.34 62.3794 237.34 63.7746C237.34 65.1709 236.296 66.9043 235.006 67.6488L139.018 123.067C137.73 123.812 136.686 123.284 136.686 121.889C136.686 120.493 137.73 118.759 139.018 118.015Z" fill="#DADBD8"/>
<path d="M139.018 128.088L235.007 72.6672C236.297 71.9238 237.341 72.4517 237.341 73.848C237.341 75.2432 236.296 76.9767 235.006 77.72L139.018 133.141C137.73 133.884 136.686 133.356 136.686 131.961C136.686 130.565 137.73 128.831 139.018 128.088Z" fill="#DADBD8"/>
<path d="M139.018 138.16L235.007 82.7395C236.297 81.9961 237.341 82.5241 237.341 83.9193C237.341 85.3155 236.296 87.049 235.006 87.7935L139.018 143.213C137.73 143.957 136.686 143.429 136.686 142.033C136.686 140.637 137.73 138.904 139.018 138.16Z" fill="#DADBD8"/>
<path d="M139.018 148.233L235.007 92.8118C236.297 92.0685 237.341 92.5964 237.341 93.9927C237.341 95.3878 236.296 97.1224 235.006 97.8658L139.018 153.285C137.73 154.029 136.686 153.501 136.686 152.106C136.686 150.711 137.73 148.976 139.018 148.233Z" fill="#DADBD8"/>
<path d="M257.811 154.521L257.661 154.736L197.779 128.175C193.075 126.087 187.569 127.789 184.838 132.159L120.82 234.881L118.453 236.248L118.431 236.259C117.714 236.657 117.07 236.711 116.6 236.463L182.437 130.814C185.17 126.442 190.687 124.742 195.39 126.819L257.811 154.521Z" fill="#519FE7"/>
<path d="M184.426 128.484C186.318 126.832 188.743 125.934 191.227 125.934C192.627 125.934 194.043 126.219 195.396 126.814L198.046 127.991V127.996L195.392 126.819C194.042 126.223 192.626 125.937 191.226 125.937C188.745 125.937 186.319 126.836 184.426 128.484Z" fill="#F4F4F2"/>
<path d="M184.817 132.146L182.467 130.779C183.017 129.903 183.68 129.135 184.425 128.485C186.318 126.836 188.745 125.938 191.226 125.938C192.625 125.938 194.042 126.223 195.392 126.819L198.046 127.996V128L197.923 128.17L197.845 128.137C196.485 127.535 195.058 127.249 193.649 127.249C190.158 127.249 186.782 129.01 184.826 132.13L184.817 132.146Z" fill="#5C81C8"/>
<path d="M261.407 46.4257H261.397C261.267 45.65 260.857 45.4345 260.329 45.8008C260.126 45.9408 259.889 46.1779 259.641 46.5118L259.338 46.932L200.246 129.2L191.422 141.492C190.431 142.893 188.255 143.701 186.563 143.313L178.946 141.503L120.801 127.67C120.38 127.573 119.982 127.562 119.616 127.627C119.465 127.659 119.314 127.702 119.174 127.767L120.779 126.84L176.834 140.167L184.451 141.977C186.132 142.376 188.308 141.568 189.31 140.157L198.134 127.875L257.518 45.1867C257.712 44.9174 257.948 44.7234 258.186 44.5726L253.046 41.6098L255.202 40.3708L258.756 42.4178C260.05 43.172 261.137 44.8635 261.407 46.4257Z" fill="#519FE7"/>
<path d="M197.923 128.171L197.922 128.17L198.045 127.999H198.046L197.923 128.171Z" fill="#91A5DA"/>
<path d="M178.953 141.501L178.969 141.475L178.971 141.473L178.953 141.501ZM200.231 129.19L197.921 128.171L198.044 128L200.231 129.19Z" fill="#5C81C8"/>
<path d="M249.398 56.4927V56.4905L257.517 45.1868L249.398 56.4927Z" fill="#1956B1"/>
<path d="M198.048 127.993L198.043 127.991V127.989L198.129 127.87L208.823 112.981L208.834 112.976L198.133 127.875L198.048 127.993ZM215.023 104.349L221.184 95.7724L221.192 95.7681L215.033 104.344L215.023 104.349ZM227.384 87.1394L233.544 78.5636L233.55 78.5604L227.391 87.1362L227.384 87.1394ZM237.288 73.3545C237.288 73.3535 237.288 73.3535 237.288 73.3513L249.399 56.4905V56.4927L237.288 73.3545Z" fill="#D1D2D0"/>
<path d="M233.545 78.5636L237.289 73.3513C237.289 73.3535 237.289 73.3535 237.289 73.3545L233.55 78.5604L233.545 78.5636Z" fill="#C0C1BF"/>
<path d="M221.186 95.7724L227.386 87.1395L227.393 87.1362L221.194 95.7681L221.186 95.7724Z" fill="#C0C1BF"/>
<path d="M208.824 112.981L215.024 104.349L215.034 104.344L208.835 112.976L208.824 112.981Z" fill="#C0C1BF"/>
<path d="M257.752 44.9164C257.753 44.9153 257.753 44.9153 257.754 44.9142C257.753 44.9142 257.753 44.9153 257.752 44.9164ZM257.755 44.9131C257.886 44.7838 258.031 44.6718 258.188 44.5727C258.04 44.6664 257.892 44.7784 257.755 44.9131Z" fill="#1956B1"/>
<path d="M260.393 44.0093C260.29 43.8596 260.182 43.7141 260.069 43.5762C259.68 43.0989 259.232 42.6949 258.757 42.418L255.751 40.6878L255.199 40.3689V40.3668L258.753 42.4137C259.369 42.7714 259.936 43.3424 260.393 44.0093Z" fill="#E0E1DE"/>
<path d="M260.411 44.0351C260.303 43.8768 260.189 43.7227 260.069 43.5762C260.183 43.7141 260.29 43.8595 260.394 44.0093C260.399 44.0179 260.406 44.0265 260.411 44.0351ZM253.398 41.4085L255.2 40.3689L255.751 40.6878L255.203 40.371L253.398 41.4085Z" fill="#1956B1"/>
<path d="M253.05 41.6089L253.045 41.6057L255.2 40.3667V40.3688L253.398 41.4085L253.05 41.6089Z" fill="#1D3EB3"/>
<path d="M198.045 127.997L198.043 127.996V127.991L198.049 127.993L198.045 127.997Z" fill="#D6D8D5"/>
<path d="M198.044 128H198.043V127.997L198.045 127.998L198.044 128Z" fill="#506AC4"/>
<path d="M200.242 129.194L200.232 129.19L198.045 128L198.046 127.998L198.049 127.993L198.134 127.875L208.835 112.976L215.034 104.344L221.193 95.7681L227.392 87.1362L233.551 78.5604L237.289 73.3546L249.4 56.4927L257.519 45.1869C257.59 45.0888 257.667 44.9994 257.75 44.9164C257.751 44.9154 257.751 44.9143 257.753 44.9143C257.753 44.9143 257.753 44.9132 257.754 44.9132C257.89 44.7785 258.038 44.6665 258.187 44.5727L258.195 44.5781L258.182 44.5684L253.05 41.6089L253.398 41.4085L255.202 40.371L255.751 40.6878L258.757 42.418C259.232 42.6949 259.68 43.0989 260.069 43.5762C260.188 43.7227 260.303 43.8768 260.41 44.0351C260.878 44.7268 261.225 45.5208 261.38 46.2901C261.271 45.8462 261.061 45.6189 260.785 45.6189C260.538 45.6189 260.236 45.802 259.906 46.1769C259.819 46.2739 259.73 46.3838 259.638 46.5077L259.335 46.9268L200.242 129.196" fill="#1D3EB3"/>
<path d="M121.982 129.389L109.305 122.068V231.193C109.305 232.91 110.521 235.018 112.008 235.875L115.055 237.635C116.541 238.493 118.974 238.493 120.461 237.635L121.982 236.757V129.389Z" fill="#519FE7"/>
<path d="M117.758 238.278C116.778 238.278 115.798 238.063 115.055 237.635L112.008 235.875C110.521 235.018 109.305 232.91 109.305 231.193V225.692V197.314V122.068L111.499 123.336L111.493 123.339L116.464 126.203L119.172 127.767C118.322 128.118 117.763 128.959 117.763 130.062V234.306L117.76 234.309V234.312L117.759 234.314V236.07C117.759 236.327 117.786 236.559 117.835 236.768C117.96 237.292 118.231 237.662 118.603 237.852C118.792 237.95 119.006 238.002 119.242 238.002C119.3 238.002 119.359 237.999 119.418 237.992C119.734 237.962 120.079 237.848 120.445 237.641H120.446L120.463 237.632L121.982 236.756V236.757L120.461 237.635C119.717 238.063 118.738 238.279 117.758 238.278Z" fill="#1956B1"/>
<path d="M259.339 46.9321V151.781C259.339 152.665 259.027 153.656 258.5 154.518C258.079 155.229 257.53 155.865 256.915 156.285L256.818 156.349L256.636 156.468L118.345 236.301L118.324 236.312C118.141 236.419 117.968 236.505 117.796 236.559C117.774 236.408 117.764 236.247 117.764 236.075V130.062C117.764 128.349 119.11 127.271 120.802 127.67L178.947 141.503L186.564 143.313C188.256 143.701 190.432 142.893 191.423 141.493L200.247 129.2L259.339 46.9321Z" fill="#33535F"/>
<path d="M261.463 47.1045V153.107C261.463 154.001 261.138 154.981 260.622 155.843C260.19 156.554 259.652 157.19 259.039 157.621L258.93 157.675L258.758 157.793L120.468 237.626L120.446 237.637C119.723 238.046 119.078 238.1 118.604 237.852C118.184 237.637 117.893 237.195 117.796 236.559C117.774 236.408 117.764 236.247 117.764 236.075V130.062C117.764 128.349 119.11 127.271 120.802 127.67L178.947 141.503L186.564 143.313C188.256 143.701 190.432 142.893 191.423 141.493L200.247 129.2L259.339 46.9321L259.642 46.5119C260.643 45.1221 261.463 45.3807 261.463 47.1045Z" fill="#519FE7"/>
<path d="M258.755 157.794L258.933 157.68L259.036 157.618C259.65 157.191 260.191 156.556 260.618 155.849C261.129 155 261.447 154.03 261.456 153.157L200.25 129.202L241.238 167.908L258.755 157.794Z" fill="#519FE7"/>
<path d="M241.051 147.211L200.318 129.229L241.992 145.539C241.67 146.092 241.355 146.649 241.051 147.211Z" fill="#1436B0"/>
<path d="M117.76 236.07C117.76 236.965 118.083 237.579 118.602 237.85C119.082 238.099 119.727 238.047 120.445 237.641L120.466 237.63L168.078 210.143L178.951 141.5L117.76 234.309V236.07Z" fill="#519FE7"/>
<path d="M117.836 236.768C117.787 236.559 117.76 236.327 117.76 236.07V234.314L117.761 236.07C117.761 236.228 117.772 236.376 117.79 236.515C117.792 236.53 117.794 236.545 117.796 236.559C117.807 236.632 117.821 236.702 117.836 236.768Z" fill="#0A2EAC"/>
<path d="M118.552 237.821C118.207 237.623 117.955 237.265 117.835 236.768C117.82 236.702 117.806 236.632 117.796 236.559C117.793 236.545 117.791 236.53 117.789 236.515C117.876 237.143 118.151 237.589 118.552 237.821Z" fill="#1956B1"/>
<path d="M176.639 140.121L176.637 140.12L178.93 136.443L176.639 140.121Z" fill="#C3C5C2"/>
<path d="M179.406 140.778L176.835 140.167L176.64 140.121H176.639L178.93 136.443L182.444 130.812L182.465 130.779L184.814 132.148L179.406 140.778Z" fill="#1956B1"/>
<path d="M178.952 141.505H178.95V141.5L178.954 141.501L178.952 141.505ZM178.948 141.505L178.946 141.503L176.182 140.846L176.184 140.842L176.636 140.12L176.638 140.121H176.64L176.835 140.167L179.406 140.778L178.97 141.475L178.942 141.499L178.95 141.501L178.948 141.505Z" fill="#1956B1"/>
<path d="M178.953 141.501H178.95V141.5L178.941 141.499L178.97 141.475L178.953 141.501Z" fill="#4A6CC2"/>
<path d="M117.797 234.254L176.183 140.846L178.947 141.503L178.949 141.504L117.797 234.254ZM178.95 141.509L178.951 141.504H178.952L178.95 141.509Z" fill="#1956B1"/>
<path d="M118.599 237.848C118.583 237.839 118.568 237.831 118.552 237.821C118.151 237.589 117.876 237.143 117.789 236.515C117.771 236.376 117.76 236.228 117.76 236.07V234.312L117.796 234.254L178.949 141.504L178.951 141.5V141.504L178.95 141.509L118.599 237.848Z" fill="#1956B1"/>
<path d="M260.62 155.849C260.193 156.556 259.651 157.191 259.038 157.618L258.935 157.68L120.467 237.63L120.446 237.641C119.728 238.047 119.083 238.099 118.604 237.85L184.826 132.13C187.571 127.75 193.116 126.049 197.845 128.137L260.62 155.849Z" fill="#519FE7"/>
<path d="M260.618 155.849C260.198 156.561 259.649 157.196 259.034 157.616L258.937 157.681L120.463 237.632L120.442 237.643C119.731 238.042 119.084 238.096 118.6 237.848L120.442 234.917L256.524 156.334L256.633 156.27C257.181 155.882 257.677 155.332 258.065 154.718L260.618 155.849Z" fill="#519FE7"/>
<path d="M109.306 122.064L109.303 122.063C109.303 122.063 109.303 118.152 109.303 115.2C109.303 114.865 109.333 114.499 109.388 114.116C109.334 114.5 109.305 114.868 109.305 115.205C109.306 118.128 109.306 121.989 109.306 122.064Z" fill="#D2D4D1"/>
<path d="M111.496 123.334L109.304 122.064C109.304 121.989 109.304 118.128 109.303 115.205C109.303 114.868 109.332 114.5 109.386 114.116C109.472 113.522 109.617 112.886 109.807 112.259L111.996 113.525C111.686 114.557 111.496 115.618 111.496 116.478C111.496 119.362 111.496 123.159 111.496 123.334Z" fill="#1956B1"/>
<path d="M111.5 123.335L111.498 123.334C111.498 123.159 111.498 119.362 111.498 116.478C111.498 115.617 111.688 114.557 111.998 113.525L112.007 113.531C111.694 114.565 111.5 115.621 111.5 116.483C111.5 119.435 111.5 123.335 111.5 123.335Z" fill="#1956B1"/>
<path d="M122.809 127.323L120.781 126.84L119.176 127.767L116.956 126.485L111.494 123.339L113.617 122.078L122.809 127.323Z" fill="#519FE7"/>
<path d="M126.059 128.097L126.047 128.093V128.09L126.059 128.093V128.097Z" fill="#1956B1"/>
<path d="M126.049 128.093L121.363 126.979L122.808 127.323L121.363 126.498L122.799 127.318L122.812 127.321L126.049 128.09V128.093Z" fill="#C0C1BF"/>
<path d="M176.638 140.12L166.142 137.625L166.143 137.624L176.638 140.12ZM159.943 136.151L153.784 134.687L153.787 134.686L159.945 136.15L159.943 136.151ZM147.585 133.213L141.427 131.749L141.43 131.748L147.588 133.212L147.585 133.213ZM136.933 130.681L126.061 128.097V128.093L136.934 130.679C136.934 130.679 136.934 130.68 136.933 130.681Z" fill="#D1D2D0"/>
<path d="M141.425 131.749L136.932 130.681C136.933 130.68 136.933 130.679 136.933 130.679L141.429 131.748L141.425 131.749Z" fill="#C0C1BF"/>
<path d="M153.785 134.687L147.586 133.213L147.589 133.212L153.787 134.686L153.785 134.687Z" fill="#C0C1BF"/>
<path d="M166.143 137.625L159.943 136.151L159.946 136.15L166.144 137.624L166.143 137.625Z" fill="#C0C1BF"/>
<path d="M176.185 140.842L125.269 128.732L120.798 127.666C120.553 127.609 120.315 127.582 120.087 127.582C119.924 127.582 119.766 127.596 119.613 127.623C119.473 127.653 119.333 127.695 119.201 127.753L120.781 126.84L121.363 126.979L126.049 128.093L126.061 128.097L136.934 130.681L141.427 131.749L147.585 133.213L153.785 134.687L159.943 136.151L166.142 137.625L176.638 140.12L176.185 140.842Z" fill="#1D3EB3"/>
<path d="M119.176 127.767L116.956 126.485L116.465 126.203L111.494 123.339L113.617 122.078L113.649 122.098L121.364 126.498L122.809 127.323L121.364 126.979L120.781 126.84L119.202 127.753C119.201 127.753 119.199 127.753 119.198 127.754L119.176 127.767Z" fill="#1D3EB3"/>
<path d="M287.016 131.553L276.789 125.627L276.778 125.621L276.686 125.568L276.676 125.583C272.214 123.064 266.087 123.443 259.313 127.353C245.672 135.231 234.609 154.389 234.609 170.143C234.609 178.007 237.369 183.533 241.823 186.119V186.122L241.844 186.134L241.847 186.136L251.167 191.484L253.353 187.829C255.609 187.311 257.959 186.505 260.438 185.073C274.081 177.196 285.142 158.039 285.145 142.284C285.145 139.945 284.831 137.884 284.371 135.974L287.016 131.553Z" fill="#F47089"/>
<path d="M260.482 185.047C260.491 185.042 260.498 185.038 260.506 185.033C260.499 185.038 260.491 185.042 260.482 185.047ZM260.582 184.989C260.595 184.982 260.607 184.975 260.62 184.967C260.607 184.975 260.594 184.982 260.582 184.989ZM260.646 184.952C260.653 184.948 260.659 184.944 260.666 184.94C260.66 184.943 260.652 184.948 260.646 184.952Z" fill="#C7C9C7"/>
<path d="M251.167 191.484L241.847 186.136L241.844 186.134L241.823 186.122V186.119C237.669 183.708 234.991 178.74 234.647 171.705C234.622 171.195 234.609 170.674 234.609 170.143C234.609 170.123 234.609 170.104 234.609 170.085C234.609 170.08 234.609 170.076 234.609 170.073C234.609 170.053 234.609 170.035 234.61 170.017V170.016C234.62 167.363 234.95 164.616 235.542 161.843L267.172 180.103C265.114 181.964 262.951 183.593 260.712 184.914C260.711 184.914 260.711 184.915 260.71 184.915C260.696 184.923 260.681 184.932 260.667 184.941C260.659 184.945 260.654 184.948 260.646 184.952C260.637 184.958 260.629 184.962 260.62 184.967C260.607 184.975 260.595 184.983 260.583 184.989C260.574 184.994 260.565 185 260.557 185.004C260.548 185.009 260.538 185.015 260.53 185.02C260.522 185.025 260.515 185.029 260.507 185.033C260.498 185.037 260.492 185.042 260.483 185.047C260.468 185.056 260.453 185.064 260.438 185.073C257.959 186.505 255.609 187.311 253.353 187.829L251.167 191.484Z" fill="#E96374"/>
<path d="M269.037 132.959C255.393 140.836 244.333 159.993 244.332 175.747C244.332 191.502 255.392 197.887 269.036 190.011C282.68 182.133 293.741 162.975 293.742 147.222C293.742 131.468 282.682 125.082 269.037 132.959Z" fill="#F6879F"/>
<path d="M278.799 154.894V148.841C278.799 141.935 274.6 138.76 269.421 141.751C264.241 144.742 260.043 152.764 260.043 159.671V165.08C260.043 168.483 258.86 172.349 256.887 175.645L256.873 175.668C256.402 176.516 256.105 177.514 256.105 178.434C256.105 180.173 257.163 180.973 258.468 180.22L280.374 167.572C281.679 166.819 282.736 164.798 282.736 163.059C282.736 162.189 282.472 161.554 282.044 161.231L282.008 161.209C280.073 160.337 278.799 158.153 278.799 154.894Z" fill="white"/>
<path d="M273.924 173.167C273.924 176.482 271.907 180.334 269.42 181.77C266.934 183.205 264.918 181.682 264.918 178.367L273.924 173.167Z" fill="white"/>
</svg>
