<svg width="40" height="41" viewBox="0 0 40 41" fill="none" xmlns="http://www.w3.org/2000/svg">
<rect y="0.5" width="40" height="40" rx="20" fill="url(#paint0_linear_185_743)"/>
<g clip-path="url(#clip0_185_743)">
<path d="M20.0032 15.365C17.1674 15.365 14.8716 17.6633 14.8716 20.4967C14.8716 23.3325 17.1699 25.6283 20.0032 25.6283C22.8391 25.6283 25.1349 23.33 25.1349 20.4967C25.1349 17.6608 22.8366 15.365 20.0032 15.365ZM20.0032 23.8275C18.1624 23.8275 16.6724 22.3367 16.6724 20.4967C16.6724 18.6567 18.1632 17.1658 20.0032 17.1658C21.8432 17.1658 23.3341 18.6567 23.3341 20.4967C23.3349 22.3367 21.8441 23.8275 20.0032 23.8275Z" fill="white"/>
<path d="M24.123 10.5644C22.283 10.4785 17.7255 10.4827 15.8839 10.5644C14.2655 10.6402 12.838 11.031 11.6872 12.1819C9.76387 14.1052 10.0097 16.6969 10.0097 20.4977C10.0097 24.3877 9.79303 26.9194 11.6872 28.8135C13.618 30.7435 16.2472 30.491 20.003 30.491C23.8564 30.491 25.1864 30.4935 26.5489 29.966C28.4014 29.2468 29.7997 27.591 29.9364 24.6169C30.023 22.776 30.018 18.2194 29.9364 16.3777C29.7714 12.8669 27.8872 10.7377 24.123 10.5644ZM27.0355 27.541C25.7747 28.8018 24.0255 28.6894 19.9789 28.6894C15.8122 28.6894 14.1414 28.751 12.9222 27.5285C11.518 26.131 11.7722 23.8869 11.7722 20.4844C11.7722 15.8802 11.2997 12.5644 15.9205 12.3277C16.9822 12.2902 17.2947 12.2777 19.9672 12.2777L20.0047 12.3027C24.4455 12.3027 27.9297 11.8377 28.1389 16.4577C28.1864 17.5119 28.1972 17.8285 28.1972 20.4969C28.1964 24.6152 28.2747 26.296 27.0355 27.541Z" fill="white"/>
<path d="M25.3383 16.3616C26.0006 16.3616 26.5375 15.8247 26.5375 15.1625C26.5375 14.5002 26.0006 13.9633 25.3383 13.9633C24.676 13.9633 24.1392 14.5002 24.1392 15.1625C24.1392 15.8247 24.676 16.3616 25.3383 16.3616Z" fill="white"/>
</g>
<defs>
<linearGradient id="paint0_linear_185_743" x1="37.1429" y1="-5.33333" x2="-12.2555" y2="26.4554" gradientUnits="userSpaceOnUse">
<stop stop-color="#A831BF"/>
<stop offset="0.510417" stop-color="#F14C59"/>
<stop offset="1" stop-color="#FFBC4F"/>
</linearGradient>
<clipPath id="clip0_185_743">
<rect width="20" height="20" fill="white" transform="translate(10 10.5)"/>
</clipPath>
</defs>
</svg>
