<svg width="24" height="24" viewBox="0 0 24 24" fill="none" xmlns="http://www.w3.org/2000/svg">
<path d="M14.2188 14.0394C12.4117 15.904 12.2803 18.2287 12.1242 23.3215C16.872 23.3215 20.1495 23.3051 21.8417 21.6622C23.4845 19.9701 23.501 16.5365 23.501 11.9447C18.4081 12.109 16.0835 12.2322 14.2188 14.0394ZM0.500977 11.9447C0.500977 16.5365 0.517405 19.9701 2.16026 21.6622C3.85241 23.3051 7.12991 23.3215 11.8778 23.3215C11.7135 18.2287 11.5903 15.904 9.78312 14.0394C7.91848 12.2322 5.59383 12.1008 0.500977 11.9447ZM11.8778 0.321533C7.13812 0.321533 3.85241 0.337962 2.16026 1.98082C0.517405 3.67296 0.500977 7.10653 0.500977 11.6983C5.59383 11.534 7.91848 11.4108 9.78312 9.60368C11.5903 7.73903 11.7217 5.41439 11.8778 0.321533ZM14.2188 9.60368C12.4117 7.73903 12.2803 5.41439 12.1242 0.321533C16.872 0.321533 20.1495 0.337962 21.8417 1.98082C23.4845 3.67296 23.501 7.10653 23.501 11.6983C18.4081 11.534 16.0835 11.4108 14.2188 9.60368Z" fill="#D5D7E7"/>
<path fill-rule="evenodd" clip-rule="evenodd" d="M14.2188 14.0394C12.4117 15.904 12.2803 18.2287 12.1242 23.3215C12.2885 18.2287 12.4117 15.904 14.2188 14.0394ZM9.78312 14.0394C7.91848 12.2322 5.59383 12.1008 0.500977 11.9447C5.59383 12.109 7.91848 12.2322 9.78312 14.0394ZM9.78312 9.60368C11.5903 7.73903 11.7217 5.41439 11.8778 0.321533C11.7135 5.41439 11.5903 7.73903 9.78312 9.60368Z" fill="#D5D7E7"/>
</svg>
