<svg width="46" height="46" viewBox="0 0 46 46" fill="none" xmlns="http://www.w3.org/2000/svg">
<path d="M42.4062 9.34375V18.6875C42.4062 36.6562 23 43.8438 23 43.8438C23 43.8438 3.59375 36.6562 3.59375 18.6875V9.34375C5.49976 9.34299 7.32749 8.58549 8.67524 7.23774C10.023 5.88999 10.7805 4.06226 10.7812 2.15625H35.2188C35.2195 4.06226 35.977 5.88999 37.3248 7.23774C38.6725 8.58549 40.5002 9.34299 42.4062 9.34375Z" fill="#EEEEEE"/>
<path d="M35.2184 2.15625H31.6247C31.6247 5.14122 34.8447 11.5 38.8122 11.5V20.8437C38.8122 31.6882 31.7469 38.6005 26.1406 42.3811C31.634 39.4773 42.4059 32.0778 42.4059 18.6875V9.34375C40.4999 9.34299 38.6722 8.58549 37.3245 7.23774C35.9767 5.88999 35.2192 4.06226 35.2184 2.15625Z" fill="#E0E0E0"/>
<path d="M38.0938 12.8153V18.6875C38.0938 30.8775 27.1112 37.5906 23 39.5312C18.8888 37.5906 7.90625 30.8775 7.90625 18.6875V12.8153C9.33531 12.2365 10.6335 11.3765 11.7237 10.2862C12.814 9.19599 13.674 7.89781 14.2528 6.46875H31.7472C32.326 7.89781 33.186 9.19599 34.2763 10.2862C35.3665 11.3765 36.6647 12.2365 38.0938 12.8153Z" fill="#FF1C2D"/>
<path d="M38.0938 12.8153V18.6875C38.0938 30.8775 27.1112 37.5906 23 39.5312C22.4969 39.2941 21.8859 38.9778 21.2031 38.5897C26.0547 35.8512 34.5 29.3753 34.5 18.6875V13.6562C31.6178 12.4919 29.3178 9.35094 28.1534 6.46875H31.7472C32.326 7.89781 33.186 9.19599 34.2763 10.2862C35.3665 11.3765 36.6647 12.2365 38.0938 12.8153Z" fill="#FF1C2D"/>
<path d="M22.0707 28.2418L32.3438 17.9688L29.4688 15.0938L20.8438 23.7188L16.5312 19.4062L13.6562 22.2812L19.6168 28.2418C19.778 28.403 19.9692 28.5308 20.1798 28.6179C20.3903 28.7051 20.6159 28.75 20.8438 28.75C21.0716 28.75 21.2972 28.7051 21.5077 28.6179C21.7183 28.5308 21.9095 28.403 22.0707 28.2418Z" fill="#EEEEEE"/>
<path d="M32.3443 17.9688L22.0734 28.2397C21.9122 28.4015 21.7206 28.5298 21.5097 28.6174C21.2988 28.705 21.0727 28.7501 20.8443 28.7501C20.6159 28.7501 20.3898 28.705 20.1789 28.6174C19.968 28.5298 19.7764 28.4015 19.6152 28.2397L18.1777 26.8022C18.3389 26.964 18.5305 27.0923 18.7414 27.1799C18.9523 27.2675 19.1784 27.3126 19.4068 27.3126C19.6352 27.3126 19.8613 27.2675 20.0722 27.1799C20.2831 27.0923 20.4747 26.964 20.6359 26.8022L30.9068 16.5312L32.3443 17.9688Z" fill="#E0E0E0"/>
<path d="M42.4062 8.625C40.6912 8.6231 39.047 7.94096 37.8343 6.72825C36.6215 5.51553 35.9394 3.87129 35.9375 2.15625C35.9375 1.96563 35.8618 1.78281 35.727 1.64802C35.5922 1.51323 35.4094 1.4375 35.2188 1.4375H10.7812C10.5906 1.4375 10.4078 1.51323 10.273 1.64802C10.1382 1.78281 10.0625 1.96563 10.0625 2.15625C10.0606 3.87129 9.37846 5.51553 8.16575 6.72825C6.95303 7.94096 5.30879 8.6231 3.59375 8.625C3.40313 8.625 3.22031 8.70073 3.08552 8.83552C2.95073 8.97031 2.875 9.15313 2.875 9.34375V18.6875C2.875 36.9452 22.5515 44.4439 22.7506 44.5179C22.9116 44.5773 23.0884 44.5773 23.2494 44.5179C23.4485 44.4439 43.125 36.9452 43.125 18.6875V9.34375C43.125 9.15313 43.0493 8.97031 42.9145 8.83552C42.7797 8.70073 42.5969 8.625 42.4062 8.625ZM41.6875 18.6875C41.6875 34.8428 25.2396 42.1518 23 43.0704C20.7604 42.1518 4.3125 34.8428 4.3125 18.6875V10.0302C6.15257 9.8596 7.87507 9.05097 9.18177 7.74427C10.4885 6.43757 11.2971 4.71507 11.4677 2.875H34.5323C34.7029 4.71507 35.5115 6.43757 36.8182 7.74427C38.1249 9.05097 39.8474 9.8596 41.6875 10.0302V18.6875ZM32.4135 6.19922C32.3598 6.0665 32.2677 5.95283 32.149 5.8728C32.0303 5.79276 31.8904 5.75 31.7472 5.75H14.2528C14.1096 5.75 13.9697 5.79276 13.851 5.8728C13.7323 5.95283 13.6402 6.0665 13.5865 6.19922C13.0423 7.53798 12.2354 8.75417 11.2135 9.77605C10.1917 10.7979 8.97548 11.6048 7.63672 12.149C7.504 12.2027 7.39033 12.2948 7.3103 12.4135C7.23026 12.5322 7.1875 12.6721 7.1875 12.8153V18.6875C7.1875 32.1777 20.1034 38.9591 22.6931 40.181C22.7891 40.2263 22.8939 40.2498 23 40.2498C23.1061 40.2498 23.2109 40.2263 23.3069 40.181C25.8958 38.9591 38.8125 32.1784 38.8125 18.6875V12.8153C38.8125 12.6721 38.7697 12.5322 38.6897 12.4135C38.6097 12.2948 38.496 12.2027 38.3633 12.149C37.0245 11.6048 35.8083 10.7979 34.7865 9.77605C33.7646 8.75417 32.9577 7.53798 32.4135 6.19922ZM37.375 18.6875C37.375 30.8495 26.0231 37.2471 23 38.7334C19.9777 37.2471 8.625 30.8487 8.625 18.6875V13.2897C11.3302 12.0607 13.4982 9.89269 14.7272 7.1875H31.2728C32.5018 9.89269 34.6698 12.0607 37.375 13.2897V18.6875ZM29.9769 14.5856C29.8421 14.4508 29.6593 14.3752 29.4688 14.3752C29.2782 14.3752 29.0954 14.4508 28.9606 14.5856L20.8438 22.7024L17.0394 18.8981C16.9046 18.7633 16.7218 18.6877 16.5312 18.6877C16.3407 18.6877 16.1579 18.7633 16.0231 18.8981L13.1481 21.7731C13.0133 21.9079 12.9377 22.0907 12.9377 22.2812C12.9377 22.4718 13.0133 22.6546 13.1481 22.7894L19.1087 28.75C19.5689 29.2102 20.193 29.4687 20.8438 29.4687C21.4945 29.4687 22.1186 29.2102 22.5788 28.75L32.8519 18.4769C32.9867 18.3421 33.0623 18.1593 33.0623 17.9688C33.0623 17.7782 32.9867 17.5954 32.8519 17.4606L29.9769 14.5856ZM21.5625 27.7337C21.3676 27.916 21.1106 28.0174 20.8438 28.0174C20.5769 28.0174 20.3199 27.916 20.125 27.7337L14.6726 22.2812L16.5312 20.4226L20.3356 24.2269C20.4704 24.3617 20.6532 24.4373 20.8438 24.4373C21.0343 24.4373 21.2171 24.3617 21.3519 24.2269L29.4688 16.1101L31.3274 17.9688L21.5625 27.7337Z" fill="#616F89"/>
</svg>
