<svg width="46" height="46" viewBox="0 0 46 46" fill="none" xmlns="http://www.w3.org/2000/svg">
<path d="M36.3328 43.3859H5.30314C5.01606 43.3859 4.74074 43.5 4.53774 43.7029C4.33475 43.9059 4.2207 44.1813 4.2207 44.4683C4.2207 44.7554 4.33475 45.0308 4.53774 45.2337C4.74074 45.4367 5.01606 45.5508 5.30314 45.5508H36.333C36.4752 45.5508 36.6159 45.5228 36.7472 45.4684C36.8786 45.4139 36.9979 45.3342 37.0984 45.2337C37.1989 45.1332 37.2786 45.0138 37.333 44.8825C37.3874 44.7512 37.4154 44.6104 37.4154 44.4683C37.4153 44.3261 37.3873 44.1854 37.3329 44.054C37.2785 43.9227 37.1988 43.8034 37.0983 43.7029C36.9977 43.6024 36.8784 43.5227 36.7471 43.4683C36.6157 43.4139 36.475 43.3859 36.3328 43.3859Z" fill="#EAEAEB"/>
<path d="M25.1788 6.45904L21.598 3.29169C21.3829 3.10144 21.1056 2.99643 20.8184 2.99643C20.5313 2.99643 20.254 3.10144 20.0389 3.29169L2.72832 18.6039C2.61078 18.7058 2.51461 18.8299 2.44535 18.9692C2.3761 19.1085 2.33514 19.2601 2.32485 19.4152C2.31455 19.5704 2.33513 19.7261 2.38538 19.8733C2.43564 20.0205 2.51457 20.1563 2.61763 20.2727C2.72068 20.3892 2.8458 20.4841 2.98576 20.5519C3.12572 20.6198 3.27774 20.6592 3.43302 20.6679C3.58831 20.6766 3.74378 20.6544 3.89044 20.6026C4.0371 20.5509 4.17204 20.4706 4.28747 20.3663L20.8184 5.74353L25.1787 9.60052L25.1788 6.45904Z" fill="#EAEAEB"/>
<path d="M34.4244 22.5181C34.0026 22.5181 33.5811 22.402 33.2131 22.1695L30.6085 20.5236C27.2087 18.3752 25.1789 14.6916 25.1789 10.6697V9.60071L20.8186 5.74371L6.07812 18.7827V43.3859H35.5591V22.214C35.2141 22.4132 34.8227 22.5181 34.4244 22.5181Z" fill="#EAEAEB"/>
<path d="M23.8242 26.4277H32.4837V43.3859H23.8242V26.4277Z" fill="#EAEAEB"/>
<path d="M8.66406 34.3034H13.7291V39.9357H8.66406V34.3034ZM15.8803 34.3034H20.9453V39.9357H15.8803V34.3034ZM8.66406 26.4277H13.7291V32.06H8.66406V26.4277ZM15.8803 26.4277H20.9453V32.06H15.8803V26.4277Z" fill="#EAEAEB"/>
<path d="M8.66406 26.4277H13.7291V28.5926H8.66406V26.4277ZM15.8803 26.4277H20.9453V28.5926H15.8803V26.4277ZM8.66406 34.3034H13.7291V36.4683H8.66406V34.3034ZM15.8803 34.3034H20.9453V36.4683H15.8803V34.3034Z" fill="#EAEAEB"/>
<path d="M23.8242 26.4277H32.4837V28.5926H23.8242V26.4277Z" fill="#EAEAEB"/>
<path d="M34.4251 22.5181C34.0034 22.5181 33.5819 22.402 33.2139 22.1695L30.6093 20.5236C27.2094 18.3752 25.1797 14.6916 25.1797 10.6697V5.43753C25.1797 5.18668 25.2786 4.94593 25.4548 4.76744C25.6311 4.58896 25.8706 4.4871 26.1214 4.48393C29.0723 4.44692 31.8283 3.10573 33.6829 0.80447C33.7722 0.693577 33.8853 0.604113 34.0138 0.542648C34.1423 0.481184 34.2829 0.44928 34.4253 0.44928C34.5678 0.44928 34.7084 0.481184 34.8369 0.542648C34.9653 0.604113 35.0784 0.693577 35.1678 0.80447C37.0224 3.10573 39.7784 4.44692 42.7292 4.48393C42.9801 4.48705 43.2196 4.58889 43.3959 4.76739C43.5722 4.94589 43.671 5.18666 43.671 5.43753V10.6697C43.671 14.6916 41.6412 18.3752 38.2414 20.5236L35.6368 22.1695C35.274 22.3979 34.8539 22.5187 34.4251 22.5181Z" fill="#FF1C2D"/>
<path d="M27.0859 6.34191V10.6697C27.0859 14.0334 28.7836 17.1144 31.6272 18.9112L34.2318 20.5572C34.2894 20.5933 34.3561 20.6125 34.4242 20.6125C34.4923 20.6125 34.559 20.5933 34.6166 20.5572L37.2212 18.9112C40.0648 17.1145 41.7625 14.0334 41.7625 10.6697V6.34191C38.9769 6.08672 36.3743 4.84432 34.4242 2.8389C32.4741 4.84432 29.8715 6.08672 27.0859 6.34191Z" fill="#FF1C2D"/>
<path d="M34.0335 14.4882C33.9099 14.4884 33.7874 14.4641 33.6732 14.4168C33.559 14.3695 33.4553 14.3001 33.368 14.2126L31.6428 12.4874C31.5554 12.4 31.4861 12.2962 31.4388 12.1821C31.3915 12.0679 31.3672 11.9455 31.3672 11.8219C31.3672 11.6984 31.3915 11.576 31.4388 11.4618C31.4861 11.3476 31.5555 11.2439 31.6429 11.1565C31.7303 11.0691 31.834 10.9998 31.9482 10.9525C32.0624 10.9053 32.1847 10.8809 32.3083 10.8809C32.4319 10.8809 32.5543 10.9053 32.6684 10.9526C32.7826 10.9999 32.8863 11.0692 32.9737 11.1566L34.0333 12.2162L36.6119 9.63772C36.7894 9.46633 37.0271 9.3715 37.2738 9.37366C37.5206 9.37582 37.7566 9.47479 37.9311 9.64925C38.1056 9.82372 38.2046 10.0597 38.2068 10.3065C38.209 10.5532 38.1142 10.7909 37.9428 10.9685L34.6989 14.2124C34.6117 14.3 34.508 14.3695 34.3938 14.4168C34.2796 14.4641 34.1571 14.4884 34.0335 14.4882Z" fill="#EAEAEB"/>
<path d="M36.3328 46H5.30314C4.45861 46 3.77148 45.3129 3.77148 44.4683C3.77148 43.6238 4.45861 42.9367 5.30314 42.9367H36.333C37.1775 42.9367 37.8647 43.6238 37.8647 44.4683C37.8647 45.3129 37.1774 46 36.3328 46ZM5.30314 43.8351C4.95401 43.8351 4.66992 44.1192 4.66992 44.4683C4.66992 44.8175 4.95401 45.1016 5.30314 45.1016H36.333C36.6821 45.1016 36.9662 44.8175 36.9662 44.4683C36.9662 44.1192 36.6821 43.8351 36.333 43.8351H5.30314ZM34.4238 22.9673C33.9074 22.9673 33.4055 22.8226 32.9727 22.5492L30.3679 20.9032C26.8372 18.6722 24.7292 14.8467 24.7292 10.6697V5.43752C24.7292 4.67367 25.3505 4.04441 26.1144 4.0347C28.931 3.99948 31.5612 2.71921 33.3315 0.522531C33.5992 0.190469 33.9974 0 34.4238 0C34.8502 0 35.2484 0.190469 35.5162 0.522531C37.2864 2.71939 39.9167 3.99948 42.7333 4.0347C43.4972 4.04423 44.1185 4.67349 44.1185 5.43752V10.6698C44.1185 14.8467 42.0106 18.6724 38.4796 20.9034L35.8752 22.5493C35.4407 22.8231 34.9374 22.9681 34.4238 22.9673ZM34.4238 0.898438C34.2704 0.898438 34.1273 0.966898 34.0309 1.08639C32.0922 3.49223 29.2107 4.89433 26.1255 4.93314C25.993 4.9353 25.8666 4.98934 25.7735 5.08365C25.6804 5.17795 25.628 5.30501 25.6276 5.43752V10.6698C25.6276 14.5369 27.579 18.0785 30.8479 20.1439L33.4526 21.7898C34.0307 22.1551 34.817 22.1551 35.3954 21.7898L37.9998 20.1439C41.2687 18.0784 43.2203 14.5367 43.2203 10.6698V5.43752C43.2198 5.30501 43.1674 5.17795 43.0743 5.08365C42.9812 4.98934 42.8548 4.9353 42.7223 4.93314C39.6371 4.89433 36.7556 3.49223 34.817 1.08639C34.7697 1.02759 34.7099 0.980174 34.6418 0.94764C34.5738 0.915106 34.4993 0.898291 34.4238 0.898438Z" fill="#616F89"/>
<path d="M3.51006 21.1109C3.47628 21.1109 3.4425 21.1099 3.40854 21.1077C3.19526 21.0953 2.98657 21.0407 2.79456 20.947C2.60255 20.8533 2.43105 20.7224 2.28999 20.562C1.69612 19.8907 1.75937 18.8613 2.43068 18.2672L19.7412 2.95496C20.0386 2.69243 20.4217 2.54755 20.8184 2.54755C21.2151 2.54755 21.5981 2.69243 21.8955 2.95496L25.4761 6.12231C25.5725 6.20766 25.6278 6.33003 25.6278 6.45886V9.6007C25.6278 9.68722 25.6028 9.7719 25.5558 9.84456C25.5089 9.91722 25.4419 9.97477 25.363 10.0103C25.2841 10.0458 25.1967 10.0578 25.1111 10.0448C25.0256 10.0318 24.9456 9.99442 24.8808 9.93707L20.8183 6.34332L4.58495 20.7027C4.28896 20.9662 3.90634 21.1115 3.51006 21.1109ZM20.8183 3.44568C20.6461 3.44568 20.4738 3.50642 20.3364 3.62806L3.02581 18.9403C2.88154 19.0682 2.7939 19.2481 2.78211 19.4406C2.77031 19.633 2.83534 19.8223 2.96292 19.9669C3.09081 20.1112 3.27077 20.1989 3.46327 20.2107C3.65578 20.2225 3.84509 20.1574 3.98965 20.0298L20.5205 5.40715C20.6026 5.33447 20.7085 5.29434 20.8181 5.29434C20.9277 5.29434 21.0336 5.33447 21.1157 5.40715L24.729 8.60361V6.66137L21.3 3.62806C21.1672 3.51035 20.9958 3.44546 20.8183 3.44568Z" fill="#616F89"/>
<path d="M35.5593 43.8351H6.07812C5.95898 43.8351 5.84472 43.7878 5.76048 43.7035C5.67623 43.6193 5.62891 43.505 5.62891 43.3859V18.7827C5.62891 18.6541 5.68425 18.5315 5.78056 18.4462L20.521 5.40715C20.6031 5.33447 20.709 5.29434 20.8186 5.29434C20.9282 5.29434 21.0341 5.33447 21.1162 5.40715L25.4765 9.26414C25.5728 9.34949 25.6281 9.47186 25.6281 9.6007V10.6697C25.6281 14.5365 27.5797 18.0782 30.8488 20.1439L33.4533 21.7896C34.0087 22.1407 34.7588 22.1578 35.3347 21.825C35.403 21.7856 35.4804 21.7648 35.5593 21.7648C35.6381 21.7648 35.7156 21.7856 35.7839 21.825C35.8522 21.8644 35.9089 21.9211 35.9483 21.9894C35.9877 22.0577 36.0085 22.1352 36.0085 22.214V43.3859C36.0085 43.505 35.9612 43.6193 35.8769 43.7035C35.7927 43.7878 35.6784 43.8351 35.5593 43.8351ZM6.52734 42.9367H35.1101V22.8794C34.3906 23.0667 33.6009 22.9457 32.9734 22.5492L30.3688 20.9034C26.8378 18.6722 24.7297 14.8465 24.7297 10.6697V9.8032L20.8186 6.3435L6.52734 18.9852V42.9367Z" fill="#616F89"/>
<path d="M34.4244 21.0614C34.2714 21.0615 34.1215 21.0184 33.992 20.937L31.3871 19.2909C28.4126 17.4114 26.6367 14.1885 26.6367 10.6697V6.34189C26.6367 6.10973 26.8135 5.91585 27.0448 5.89465C29.7231 5.64654 32.2253 4.45204 34.1024 2.52551C34.2715 2.35193 34.5769 2.35193 34.746 2.52551C36.6232 4.45193 39.1253 5.64642 41.8036 5.89465C41.9151 5.90491 42.0188 5.95646 42.0943 6.0392C42.1698 6.12194 42.2117 6.22989 42.2117 6.34189V10.6697C42.2117 14.1885 40.4358 17.4114 37.4613 19.2909L34.8567 20.9368C34.7273 21.0184 34.5774 21.0616 34.4244 21.0614ZM27.5352 6.74457V10.6697C27.5352 13.8785 29.1547 16.8175 31.8669 18.5314L34.424 20.1473L36.981 18.5314C39.6935 16.8173 41.3129 13.8783 41.3129 10.6697V6.74457C38.7259 6.4168 36.3117 5.26951 34.4238 3.47066C32.5361 5.26956 30.1221 6.41686 27.5352 6.74457Z" fill="#616F89"/>
<path d="M34.0336 14.9374C33.851 14.9379 33.6701 14.9022 33.5013 14.8323C33.3326 14.7625 33.1794 14.6599 33.0505 14.5304L31.3252 12.8051C30.7831 12.263 30.7831 11.3811 31.3252 10.8389C31.8671 10.297 32.7492 10.297 33.2913 10.8389L34.0334 11.581L36.2943 9.32022C36.8365 8.7781 37.7183 8.77828 38.2604 9.32022C38.8025 9.86233 38.8025 10.7442 38.2604 11.2864L35.0163 14.5304C34.8876 14.6599 34.7344 14.7625 34.5657 14.8324C34.397 14.9022 34.2162 14.938 34.0336 14.9374ZM32.3086 11.3306C32.1826 11.3306 32.0565 11.3785 31.9605 11.4743C31.8686 11.5667 31.8169 11.6917 31.8169 11.8221C31.8169 11.9525 31.8686 12.0775 31.9605 12.1699L33.6857 13.8951C33.8717 14.0805 34.1959 14.0807 34.3815 13.8951L37.6256 10.651C37.7185 10.5581 37.7697 10.4346 37.7697 10.3031C37.7697 10.1716 37.7185 10.0483 37.6256 9.95523C37.5332 9.86319 37.4081 9.81151 37.2777 9.81151C37.1473 9.81151 37.0222 9.86319 36.9298 9.95523L34.3513 12.5337C34.1827 12.7023 33.8845 12.7023 33.7161 12.5337L32.6565 11.4741C32.6108 11.4285 32.5565 11.3923 32.4968 11.3677C32.4371 11.3431 32.3732 11.3304 32.3086 11.3306ZM32.4845 43.8351H23.825C23.7059 43.8351 23.5916 43.7878 23.5074 43.7036C23.4231 43.6193 23.3758 43.5051 23.3758 43.3859V26.4279C23.3758 26.3088 23.4231 26.1945 23.5074 26.1103C23.5916 26.026 23.7059 25.9787 23.825 25.9787H32.4845C32.6037 25.9787 32.7179 26.026 32.8022 26.1103C32.8864 26.1945 32.9337 26.3088 32.9337 26.4279V43.3859C32.9337 43.5051 32.8864 43.6193 32.8022 43.7036C32.7179 43.7878 32.6037 43.8351 32.4845 43.8351ZM24.2742 42.9367H32.0353V26.8771H24.2742V42.9367ZM13.7291 40.3848H8.66406C8.54492 40.3848 8.43066 40.3374 8.34642 40.2532C8.26217 40.169 8.21484 40.0547 8.21484 39.9356V34.3032C8.21484 34.1841 8.26217 34.0698 8.34642 33.9856C8.43066 33.9014 8.54492 33.854 8.66406 33.854H13.7291C13.8482 33.854 13.9625 33.9014 14.0467 33.9856C14.131 34.0698 14.1783 34.1841 14.1783 34.3032V39.9356C14.1783 40.0547 14.131 40.169 14.0467 40.2532C13.9625 40.3374 13.8482 40.3848 13.7291 40.3848ZM9.11328 39.4863H13.2799V34.7525H9.11328V39.4863ZM20.9452 40.3848H15.8803C15.7612 40.3848 15.6469 40.3374 15.5627 40.2532C15.4784 40.169 15.4311 40.0547 15.4311 39.9356V34.3032C15.4311 34.1841 15.4784 34.0698 15.5627 33.9856C15.6469 33.9014 15.7612 33.854 15.8803 33.854H20.9453C21.0645 33.854 21.1787 33.9014 21.263 33.9856C21.3472 34.0698 21.3946 34.1841 21.3946 34.3032V39.9356C21.3945 40.0547 21.3471 40.169 21.2629 40.2532C21.1786 40.3374 21.0643 40.3848 20.9452 40.3848ZM16.3295 39.4863H20.4961V34.7525H16.3295V39.4863ZM13.7291 32.5092H8.66406C8.54492 32.5092 8.43066 32.4619 8.34642 32.3777C8.26217 32.2934 8.21484 32.1792 8.21484 32.06V26.4277C8.21484 26.3086 8.26217 26.1943 8.34642 26.1101C8.43066 26.0258 8.54492 25.9785 8.66406 25.9785H13.7291C13.8482 25.9785 13.9625 26.0258 14.0467 26.1101C14.131 26.1943 14.1783 26.3086 14.1783 26.4277V32.06C14.1783 32.1792 14.131 32.2934 14.0467 32.3777C13.9625 32.4619 13.8482 32.5092 13.7291 32.5092ZM9.11328 31.6108H13.2799V26.8769H9.11328V31.6108ZM20.9452 32.5092H15.8803C15.7612 32.5092 15.6469 32.4619 15.5627 32.3777C15.4784 32.2934 15.4311 32.1792 15.4311 32.06V26.4277C15.4311 26.3086 15.4784 26.1943 15.5627 26.1101C15.6469 26.0258 15.7612 25.9785 15.8803 25.9785H20.9453C21.0645 25.9785 21.1787 26.0258 21.263 26.1101C21.3472 26.1943 21.3946 26.3086 21.3946 26.4277V32.06C21.3945 32.1792 21.3471 32.2934 21.2629 32.3777C21.1786 32.4619 21.0643 32.5092 20.9452 32.5092ZM16.3295 31.6108H20.4961V26.8769H16.3295V31.6108Z" fill="#616F89"/>
<path d="M13.7291 29.0418H8.66406C8.60507 29.0418 8.54666 29.0302 8.49215 29.0076C8.43765 28.9851 8.38813 28.952 8.34642 28.9103C8.3047 28.8685 8.27161 28.819 8.24904 28.7645C8.22646 28.71 8.21484 28.6516 8.21484 28.5926V26.4277C8.21484 26.3086 8.26217 26.1943 8.34642 26.1101C8.43066 26.0258 8.54492 25.9785 8.66406 25.9785H13.7291C13.8482 25.9785 13.9625 26.0258 14.0467 26.1101C14.131 26.1943 14.1783 26.3086 14.1783 26.4277V28.5926C14.1783 28.6516 14.1667 28.71 14.1441 28.7645C14.1215 28.819 14.0885 28.8685 14.0467 28.9103C14.005 28.952 13.9555 28.9851 13.901 29.0076C13.8465 29.0302 13.7881 29.0418 13.7291 29.0418ZM9.11328 28.1434H13.2799V26.877H9.11328V28.1434ZM20.9452 29.0418H15.8803C15.8213 29.0418 15.7629 29.0302 15.7084 29.0076C15.6539 28.9851 15.6044 28.952 15.5627 28.9103C15.521 28.8685 15.4879 28.819 15.4653 28.7645C15.4427 28.71 15.4311 28.6516 15.4311 28.5926V26.4277C15.4311 26.3086 15.4784 26.1943 15.5627 26.1101C15.6469 26.0258 15.7612 25.9785 15.8803 25.9785H20.9453C21.0645 25.9785 21.1787 26.0258 21.263 26.1101C21.3472 26.1943 21.3946 26.3086 21.3946 26.4277V28.5926C21.3945 28.7118 21.3471 28.826 21.2629 28.9103C21.1786 28.9945 21.0643 29.0418 20.9452 29.0418ZM16.3295 28.1434H20.4961V26.877H16.3295V28.1434ZM13.7291 36.9175H8.66406C8.54492 36.9175 8.43066 36.8702 8.34642 36.786C8.26217 36.7017 8.21484 36.5875 8.21484 36.4683V34.3034C8.21484 34.1843 8.26217 34.07 8.34642 33.9858C8.43066 33.9015 8.54492 33.8542 8.66406 33.8542H13.7291C13.8482 33.8542 13.9625 33.9015 14.0467 33.9858C14.131 34.07 14.1783 34.1843 14.1783 34.3034V36.4683C14.1783 36.5875 14.131 36.7017 14.0467 36.786C13.9625 36.8702 13.8482 36.9175 13.7291 36.9175ZM9.11328 36.0191H13.2799V34.7527H9.11328V36.0191ZM20.9452 36.9175H15.8803C15.7612 36.9175 15.6469 36.8702 15.5627 36.786C15.4784 36.7017 15.4311 36.5875 15.4311 36.4683V34.3034C15.4311 34.1843 15.4784 34.07 15.5627 33.9858C15.6469 33.9015 15.7612 33.8542 15.8803 33.8542H20.9453C21.0645 33.8542 21.1787 33.9015 21.263 33.9858C21.3472 34.07 21.3946 34.1843 21.3946 34.3034V36.4683C21.3945 36.5875 21.3471 36.7017 21.2628 36.7859C21.1786 36.8701 21.0643 36.9175 20.9452 36.9175ZM16.3295 36.0191H20.4961V34.7527H16.3295V36.0191ZM32.4843 29.0418H23.825C23.766 29.0418 23.7076 29.0302 23.6531 29.0076C23.5986 28.9851 23.5491 28.952 23.5074 28.9103C23.4657 28.8685 23.4326 28.819 23.41 28.7645C23.3874 28.71 23.3758 28.6516 23.3758 28.5926V26.4277C23.3758 26.3086 23.4231 26.1943 23.5074 26.1101C23.5916 26.0258 23.7059 25.9785 23.825 25.9785H32.4843C32.6035 25.9785 32.7177 26.0258 32.802 26.1101C32.8862 26.1943 32.9336 26.3086 32.9336 26.4277V28.5926C32.9336 28.6516 32.9219 28.71 32.8994 28.7645C32.8768 28.819 32.8437 28.8685 32.802 28.9103C32.7603 28.952 32.7107 28.9851 32.6562 29.0076C32.6017 29.0302 32.5433 29.0418 32.4843 29.0418ZM24.2742 28.1434H32.0351V26.877H24.2742V28.1434Z" fill="#616F89"/>
</svg>
