<svg width="40" height="40" viewBox="0 0 40 40" fill="none" xmlns="http://www.w3.org/2000/svg">
<g clip-path="url(#clip0_119_7879)">
<path fill-rule="evenodd" clip-rule="evenodd" d="M17.5853 2.64628C17.032 3.15537 16.3637 3.52302 15.6374 3.71783C14.9109 3.91269 14.1481 3.9288 13.4141 3.76481C12.5706 3.58474 11.6631 3.70379 10.8595 4.16782L10.8595 4.16783C10.0557 4.63188 9.49864 5.3581 9.23225 6.1789C9.00739 6.89638 8.61228 7.54883 8.08061 8.08056C7.54891 8.61231 6.89646 9.00749 6.17896 9.23241C5.35829 9.49863 4.63205 10.0557 4.16797 10.8593M17.5853 2.64628C18.2265 2.06917 19.072 1.71875 20 1.71875C20.9282 1.71875 21.7736 2.0693 22.4141 2.64682C22.9677 3.15585 23.6363 3.52334 24.3628 3.7179C25.0891 3.91244 25.8518 3.9283 26.5856 3.76414C27.4296 3.58467 28.3371 3.70382 29.1406 4.1678L29.1406 4.16783C29.9445 4.63195 30.5014 5.35827 30.7672 6.17876C30.9922 6.89636 31.3876 7.54888 31.9194 8.08064C32.4512 8.61231 33.1037 9.00745 33.8212 9.23239C34.6417 9.49869 35.368 10.0557 35.8321 10.8594C36.2962 11.663 36.4154 12.5705 36.2353 13.4143C36.0713 14.1482 36.0874 14.9109 36.2822 15.6373C36.4769 16.3635 36.8444 17.0317 37.3534 17.585C37.9309 18.2265 38.2812 19.0719 38.2812 20C38.2812 20.9282 37.9309 21.7734 37.3532 22.4139C36.8441 22.9676 36.4766 23.6362 36.282 24.3628C36.0875 25.0891 36.0716 25.8517 36.2358 26.5855C36.4154 27.4294 36.2961 28.337 35.832 29.1406C35.3679 29.9444 34.6415 30.5014 33.821 30.767C33.1035 30.992 32.451 31.3874 31.9193 31.9192C31.3876 32.4511 30.9926 33.1036 30.7677 33.8212C30.5013 34.6419 29.9442 35.3681 29.1405 35.8322L29.1405 35.8322C28.3368 36.2963 27.4294 36.4153 26.5858 36.2352C25.8519 36.0713 25.0892 36.0873 24.3628 36.282C23.6364 36.4767 22.968 36.8442 22.4145 37.3532C21.7736 37.9308 20.9281 38.2812 20 38.2812C19.0719 38.2812 18.2264 37.9307 17.586 37.3533C17.0324 36.8442 16.3638 36.4767 15.6373 36.2821C14.9109 36.0875 14.1483 36.0717 13.4145 36.2357C12.5706 36.4153 11.663 36.2962 10.8594 35.8322C10.0556 35.3681 9.49861 34.6418 9.23287 33.8213C9.0079 33.1036 8.6126 32.451 8.08068 31.9192C7.54884 31.3875 6.89627 30.9924 6.17866 30.7676C5.35819 30.5012 4.63199 29.9442 4.16787 29.1405C3.70383 28.3369 3.58461 27.4294 3.76473 26.5858C3.92873 25.8518 3.91266 25.0891 3.71787 24.3627C3.52312 23.6364 3.15553 22.9681 2.64651 22.4148C2.06902 21.7734 1.71875 20.9281 1.71875 20C1.71875 19.0718 2.06916 18.2265 2.64693 17.586C3.15594 17.0323 3.52343 16.3637 3.71799 15.6372C3.9125 14.9108 3.92836 14.1482 3.76422 13.4144C3.58463 12.5705 3.70396 11.663 4.16796 10.8594M16.4309 1.37296C17.3749 0.521265 18.6276 0 20 0C21.3724 0 22.6254 0.52127 23.5691 1.374C23.5712 1.37587 23.5732 1.37774 23.5753 1.37962C23.9251 1.70194 24.3479 1.93461 24.8074 2.05766C25.2669 2.18072 25.7494 2.1905 26.2135 2.08616C26.2164 2.0855 26.2193 2.08486 26.2223 2.08423C27.4657 1.81837 28.8114 1.993 30 2.67936C31.1885 3.36554 32.0131 4.44347 32.4039 5.65423C32.4047 5.65674 32.4055 5.65926 32.4063 5.66178C32.5483 6.11587 32.7982 6.52879 33.1346 6.86517C33.4711 7.20155 33.8841 7.45137 34.3382 7.59323C34.3409 7.59409 34.3437 7.59495 34.3464 7.59583C35.5565 7.98718 36.6343 8.81157 37.3205 9.99982L37.3205 9.99986C38.0068 11.1883 38.1819 12.5342 37.915 13.7783C37.9145 13.7809 37.9139 13.7836 37.9133 13.7862C37.8091 14.2503 37.8191 14.7327 37.9423 15.1921C38.0655 15.6515 38.2982 16.0742 38.6206 16.4239C38.6227 16.4262 38.6247 16.4284 38.6268 16.4307C39.4789 17.375 40 18.6276 40 20C40 21.3725 39.4789 22.6252 38.6258 23.5692C38.6239 23.5712 38.6221 23.5732 38.6203 23.5752C38.298 23.9251 38.0653 24.3479 37.9423 24.8074C37.8192 25.2669 37.8094 25.7494 37.9138 26.2135C37.9143 26.2158 37.9148 26.2182 37.9153 26.2205L37.9157 26.2222C38.1818 27.4659 38.0067 28.8117 37.3205 30.0001C36.6343 31.1883 35.5565 32.013 34.3456 32.4037C34.3438 32.4043 34.342 32.4049 34.3402 32.4054L34.3381 32.4061C33.884 32.548 33.4712 32.7979 33.1348 33.1344C32.7985 33.4708 32.5487 33.8838 32.407 34.3379C32.4061 34.3407 32.4052 34.3435 32.4043 34.3462C32.0129 35.5566 31.1884 36.6344 30 37.3206C28.8113 38.007 27.4655 38.1817 26.2218 37.9149L26.2193 37.9144C26.2175 37.914 26.2157 37.9136 26.2139 37.9132C25.7497 37.8091 25.2672 37.819 24.8078 37.9422C24.3483 38.0653 23.9255 38.298 23.5757 38.6204C23.5736 38.6223 23.5715 38.6242 23.5693 38.6261C22.6253 39.4787 21.3724 40 20 40C18.6276 40 17.3746 39.4787 16.4309 38.626C16.4288 38.6241 16.4268 38.6223 16.4247 38.6204C16.0749 38.2981 15.6521 38.0654 15.1926 37.9423C14.7331 37.8192 14.2506 37.8095 13.7865 37.9138C13.7836 37.9144 13.7807 37.9151 13.7778 37.9157C12.5342 38.1817 11.1886 38.0069 9.99999 37.3206C8.81152 36.6345 7.98688 35.5565 7.59608 34.3458C7.59544 34.3438 7.59482 34.3418 7.5942 34.3399L7.59363 34.3381C7.45176 33.884 7.2019 33.4711 6.86547 33.1347C6.52904 32.7984 6.11607 32.5486 5.66195 32.4068C5.65917 32.4059 5.65639 32.4051 5.65362 32.4042C4.44346 32.0128 3.36573 31.1884 2.67948 30.0001L2.67946 30.0001C1.99323 28.8117 1.81807 27.4658 2.08498 26.2217C2.08555 26.219 2.08613 26.2164 2.08672 26.2137C2.1909 25.7497 2.18096 25.2672 2.05777 24.8078C1.93458 24.3485 1.70181 23.9258 1.37942 23.5761C1.37734 23.5739 1.37528 23.5716 1.37324 23.5693C0.521114 22.625 0 21.3725 0 20C0 18.6276 0.521102 17.3748 1.37423 16.4308C1.37606 16.4288 1.37789 16.4268 1.37974 16.4248C1.70204 16.0749 1.93469 15.6521 2.05773 15.1926C2.18078 14.7331 2.19056 14.2506 2.08624 13.7865C2.08559 13.7836 2.08495 13.7807 2.08433 13.7778C1.81823 12.5341 1.99331 11.1883 2.67953 9.99989L2.67954 9.99986C3.36572 8.81158 4.44348 7.98707 5.65396 7.5958C5.65665 7.59493 5.65934 7.59407 5.66204 7.59323C6.11605 7.45141 6.5289 7.20162 6.86521 6.86528C7.20152 6.52893 7.45127 6.11606 7.59305 5.66204C7.59391 5.65929 7.59479 5.65654 7.59567 5.65379C7.9871 4.44331 8.81159 3.36554 10 2.67937L10.4298 3.42359L10 2.67937C11.1886 1.99311 12.5344 1.81825 13.7781 2.08505C13.7808 2.08562 13.7834 2.0862 13.7861 2.08679C14.2502 2.19096 14.7327 2.18099 15.1921 2.05776C15.6516 1.93452 16.0743 1.70169 16.424 1.37923C16.4263 1.37713 16.4286 1.37504 16.4309 1.37296Z" fill="#FF1C2D"/>
<path fill-rule="evenodd" clip-rule="evenodd" d="M11.4844 16.0762C11.4844 14.1922 13.0117 12.6647 14.8958 12.6647C16.7799 12.6647 18.3073 14.1922 18.3073 16.0762L18.3073 23.9238C18.3073 25.8078 16.78 27.3353 14.8959 27.3353C13.0118 27.3353 11.4844 25.8078 11.4844 23.9238V16.0762ZM14.8958 14.3834C13.961 14.3834 13.2031 15.1414 13.2031 16.0762V23.9238C13.2031 24.8586 13.961 25.6165 14.8959 25.6165C15.8307 25.6165 16.5886 24.8586 16.5886 23.9238L16.5885 16.0762C16.5885 15.1414 15.8306 14.3834 14.8958 14.3834ZM27.3374 12.8218C27.778 12.9981 27.9924 13.4982 27.8161 13.9389L22.712 26.6994C22.5357 27.1401 22.0356 27.3544 21.5949 27.1781C21.1542 27.0019 20.9399 26.5017 21.1162 26.0611L26.2203 13.3006C26.3966 12.8599 26.8967 12.6456 27.3374 12.8218ZM21.9141 12.7604C22.3887 12.7604 22.7734 13.1451 22.7734 13.6198V14.8958C22.7734 15.3705 22.3887 15.7552 21.9141 15.7552C21.4394 15.7552 21.0547 15.3705 21.0547 14.8958V13.6198C21.0547 13.1451 21.4394 12.7604 21.9141 12.7604ZM27.0182 24.2448C27.4928 24.2448 27.8776 24.6295 27.8776 25.1041V26.3802C27.8776 26.8548 27.4928 27.2396 27.0182 27.2396C26.5436 27.2396 26.1588 26.8548 26.1588 26.3802V25.1041C26.1588 24.6295 26.5436 24.2448 27.0182 24.2448Z" fill="#616F89"/>
</g>
<defs>
<clipPath id="clip0_119_7879">
<rect width="40" height="40" fill="white"/>
</clipPath>
</defs>
</svg>
