<svg width="46" height="46" viewBox="0 0 46 46" fill="none" xmlns="http://www.w3.org/2000/svg">
<g clip-path="url(#clip0_119_7869)">
<path d="M43.125 3.59375H2.875C1.28656 3.59375 0 4.88031 0 6.46875V10.0625H46V6.46875C46 4.88031 44.7134 3.59375 43.125 3.59375ZM6.46875 7.1875C6.27813 7.1875 6.09531 7.11177 5.96052 6.97698C5.82573 6.84219 5.75 6.65937 5.75 6.46875C5.75 6.27813 5.82573 6.09531 5.96052 5.96052C6.09531 5.82573 6.27813 5.75 6.46875 5.75C6.65937 5.75 6.84219 5.82573 6.97698 5.96052C7.11177 6.09531 7.1875 6.27813 7.1875 6.46875C7.1875 6.65937 7.11177 6.84219 6.97698 6.97698C6.84219 7.11177 6.65937 7.1875 6.46875 7.1875ZM9.34375 7.1875C9.15313 7.1875 8.97031 7.11177 8.83552 6.97698C8.70073 6.84219 8.625 6.65937 8.625 6.46875C8.625 6.27813 8.70073 6.09531 8.83552 5.96052C8.97031 5.82573 9.15313 5.75 9.34375 5.75C9.53437 5.75 9.71719 5.82573 9.85198 5.96052C9.98677 6.09531 10.0625 6.27813 10.0625 6.46875C10.0625 6.65937 9.98677 6.84219 9.85198 6.97698C9.71719 7.11177 9.53437 7.1875 9.34375 7.1875ZM12.2188 7.1875C12.0281 7.1875 11.8453 7.11177 11.7105 6.97698C11.5757 6.84219 11.5 6.65937 11.5 6.46875C11.5 6.27813 11.5757 6.09531 11.7105 5.96052C11.8453 5.82573 12.0281 5.75 12.2188 5.75C12.4094 5.75 12.5922 5.82573 12.727 5.96052C12.8618 6.09531 12.9375 6.27813 12.9375 6.46875C12.9375 6.65937 12.8618 6.84219 12.727 6.97698C12.5922 7.11177 12.4094 7.1875 12.2188 7.1875ZM40.9688 7.1875H36.6562C36.4656 7.1875 36.2828 7.11177 36.148 6.97698C36.0132 6.84219 35.9375 6.65937 35.9375 6.46875C35.9375 6.27813 36.0132 6.09531 36.148 5.96052C36.2828 5.82573 36.4656 5.75 36.6562 5.75H40.9688C41.1594 5.75 41.3422 5.82573 41.477 5.96052C41.6118 6.09531 41.6875 6.27813 41.6875 6.46875C41.6875 6.65937 41.6118 6.84219 41.477 6.97698C41.3422 7.11177 41.1594 7.1875 40.9688 7.1875Z" fill="#FF1C2D"/>
<path d="M45.2812 9.34375H0.71875C0.528126 9.34375 0.345309 9.41948 0.210517 9.55427C0.0757252 9.68906 0 9.87188 0 10.0625L0 38.8125C0 40.7941 1.61216 42.4062 3.59375 42.4062H42.4062C44.3878 42.4062 46 40.7941 46 38.8125V10.0625C46 9.87188 45.9243 9.68906 45.7895 9.55427C45.6547 9.41948 45.4719 9.34375 45.2812 9.34375ZM44.5625 38.8125C44.5625 40.0013 43.5951 40.9688 42.4062 40.9688H3.59375C2.40494 40.9688 1.4375 40.0013 1.4375 38.8125V10.7812H44.5625V38.8125Z" fill="#616F89"/>
<path d="M9.34375 38.8125H28.0312C28.2219 38.8125 28.4047 38.7368 28.5395 38.602C28.6743 38.4672 28.75 38.2844 28.75 38.0938C28.75 37.9031 28.6743 37.7203 28.5395 37.5855C28.4047 37.4507 28.2219 37.375 28.0312 37.375H10.0625V35.2188H35.9375V37.375H35.2188C35.0281 37.375 34.8453 37.4507 34.7105 37.5855C34.5757 37.7203 34.5 37.9031 34.5 38.0938C34.5 38.2844 34.5757 38.4672 34.7105 38.602C34.8453 38.7368 35.0281 38.8125 35.2188 38.8125H36.6562C36.8469 38.8125 37.0297 38.7368 37.1645 38.602C37.2993 38.4672 37.375 38.2844 37.375 38.0938V34.5C37.375 34.3094 37.2993 34.1266 37.1645 33.9918C37.0297 33.857 36.8469 33.7812 36.6562 33.7812H25.875V29.4688C25.875 29.2781 25.7993 29.0953 25.6645 28.9605C25.5297 28.8257 25.3469 28.75 25.1562 28.75H20.8438C20.6531 28.75 20.4703 28.8257 20.3355 28.9605C20.2007 29.0953 20.125 29.2781 20.125 29.4688V33.7812H17.25V14.375H28.75V20.8438C28.75 21.0344 28.8257 21.2172 28.9605 21.352C29.0953 21.4868 29.2781 21.5625 29.4688 21.5625C29.6594 21.5625 29.8422 21.4868 29.977 21.352C30.1118 21.2172 30.1875 21.0344 30.1875 20.8438V18.2031L33.7812 19.2294V22.2812C33.7812 22.4719 33.857 22.6547 33.9918 22.7895C34.1266 22.9243 34.3094 23 34.5 23C34.6906 23 34.8734 22.9243 35.0082 22.7895C35.143 22.6547 35.2188 22.4719 35.2188 22.2812V18.6875C35.2188 18.3669 35.006 18.0845 34.6977 17.9961L30.1875 16.7073V13.6562C30.1875 13.4656 30.1118 13.2828 29.977 13.148C29.8422 13.0132 29.6594 12.9375 29.4688 12.9375H16.5312C16.3406 12.9375 16.1578 13.0132 16.023 13.148C15.8882 13.2828 15.8125 13.4656 15.8125 13.6562V16.7073L11.3023 17.9961C11.1522 18.0391 11.0202 18.1299 10.9261 18.2546C10.8321 18.3794 10.7813 18.5313 10.7812 18.6875V33.7812H9.34375C9.15313 33.7812 8.97031 33.857 8.83552 33.9918C8.70073 34.1266 8.625 34.3094 8.625 34.5V38.0938C8.625 38.2844 8.70073 38.4672 8.83552 38.602C8.97031 38.7368 9.15313 38.8125 9.34375 38.8125ZM21.5625 30.1875H24.4375V33.7812H21.5625V30.1875ZM12.2188 19.2294L15.8125 18.2031V33.7812H12.2188V19.2294Z" fill="#616F89"/>
<path d="M20.8438 16.5312C20.8438 16.3406 20.768 16.1578 20.6332 16.023C20.4984 15.8882 20.3156 15.8125 20.125 15.8125C19.9344 15.8125 19.7516 15.8882 19.6168 16.023C19.482 16.1578 19.4062 16.3406 19.4062 16.5312V17.9688C19.4062 18.1594 19.482 18.3422 19.6168 18.477C19.7516 18.6118 19.9344 18.6875 20.125 18.6875C20.3156 18.6875 20.4984 18.6118 20.6332 18.477C20.768 18.3422 20.8438 18.1594 20.8438 17.9688V16.5312ZM23.7188 16.5312C23.7188 16.3406 23.643 16.1578 23.5082 16.023C23.3734 15.8882 23.1906 15.8125 23 15.8125C22.8094 15.8125 22.6266 15.8882 22.4918 16.023C22.357 16.1578 22.2812 16.3406 22.2812 16.5312V17.9688C22.2812 18.1594 22.357 18.3422 22.4918 18.477C22.6266 18.6118 22.8094 18.6875 23 18.6875C23.1906 18.6875 23.3734 18.6118 23.5082 18.477C23.643 18.3422 23.7188 18.1594 23.7188 17.9688V16.5312ZM20.8438 20.8438C20.8438 20.6531 20.768 20.4703 20.6332 20.3355C20.4984 20.2007 20.3156 20.125 20.125 20.125C19.9344 20.125 19.7516 20.2007 19.6168 20.3355C19.482 20.4703 19.4062 20.6531 19.4062 20.8438V22.2812C19.4062 22.4719 19.482 22.6547 19.6168 22.7895C19.7516 22.9243 19.9344 23 20.125 23C20.3156 23 20.4984 22.9243 20.6332 22.7895C20.768 22.6547 20.8438 22.4719 20.8438 22.2812V20.8438ZM23.7188 20.8438C23.7188 20.6531 23.643 20.4703 23.5082 20.3355C23.3734 20.2007 23.1906 20.125 23 20.125C22.8094 20.125 22.6266 20.2007 22.4918 20.3355C22.357 20.4703 22.2812 20.6531 22.2812 20.8438V22.2812C22.2812 22.4719 22.357 22.6547 22.4918 22.7895C22.6266 22.9243 22.8094 23 23 23C23.1906 23 23.3734 22.9243 23.5082 22.7895C23.643 22.6547 23.7188 22.4719 23.7188 22.2812V20.8438ZM20.125 24.4375C19.9344 24.4375 19.7516 24.5132 19.6168 24.648C19.482 24.7828 19.4062 24.9656 19.4062 25.1562V26.5938C19.4062 26.7844 19.482 26.9672 19.6168 27.102C19.7516 27.2368 19.9344 27.3125 20.125 27.3125C20.3156 27.3125 20.4984 27.2368 20.6332 27.102C20.768 26.9672 20.8438 26.7844 20.8438 26.5938V25.1562C20.8438 24.9656 20.768 24.7828 20.6332 24.648C20.4984 24.5132 20.3156 24.4375 20.125 24.4375ZM23 24.4375C22.8094 24.4375 22.6266 24.5132 22.4918 24.648C22.357 24.7828 22.2812 24.9656 22.2812 25.1562V26.5938C22.2812 26.7844 22.357 26.9672 22.4918 27.102C22.6266 27.2368 22.8094 27.3125 23 27.3125C23.1906 27.3125 23.3734 27.2368 23.5082 27.102C23.643 26.9672 23.7188 26.7844 23.7188 26.5938V25.1562C23.7188 24.9656 23.643 24.7828 23.5082 24.648C23.3734 24.5132 23.1906 24.4375 23 24.4375ZM25.1562 16.5312V17.9688C25.1562 18.1594 25.232 18.3422 25.3668 18.477C25.5016 18.6118 25.6844 18.6875 25.875 18.6875C26.0656 18.6875 26.2484 18.6118 26.3832 18.477C26.518 18.3422 26.5938 18.1594 26.5938 17.9688V16.5312C26.5938 16.3406 26.518 16.1578 26.3832 16.023C26.2484 15.8882 26.0656 15.8125 25.875 15.8125C25.6844 15.8125 25.5016 15.8882 25.3668 16.023C25.232 16.1578 25.1562 16.3406 25.1562 16.5312Z" fill="#616F89"/>
<path d="M35.6578 31.0486L41.6866 28.0312L30.6754 24.3584L28.1159 23.5067L35.6578 31.0486ZM27.0996 24.523L27.6423 26.1553L31.6241 38.0937L34.6415 32.0656L27.0996 24.523Z" fill="#FF1C2D"/>
</g>
<defs>
<clipPath id="clip0_119_7869">
<rect width="46" height="46" fill="white"/>
</clipPath>
</defs>
</svg>
