<svg width="95" height="50" viewBox="0 0 95 50" fill="none" xmlns="http://www.w3.org/2000/svg">
<path d="M52.4352 49.7495H38.3938L32.5389 21.0621H32.3661L26.5112 49.7495H12.4698L0 0.526733H14.0846L19.8359 31.6753H20L25.9154 0.526733H38.981L45.4836 31.4766H45.6649L50.8117 0.526733H64.905L52.4352 49.7495Z" fill="#2B2A29"/>
<path d="M72.2966 0.0345145C74.7318 0.0431501 76.8217 0.371302 78.5574 1.03624C80.3018 1.70118 81.6662 2.57337 82.6766 3.66146C83.6783 4.74954 84.3951 5.94125 84.8268 7.25386C85.2586 8.55783 85.4745 9.87907 85.4745 11.2349C85.4745 14.171 84.6369 16.7271 82.9616 18.9205C81.2776 21.1053 79.0237 23.1088 76.1654 24.9222C77.1584 26.8221 78.0479 28.4456 78.8597 29.7754C79.6541 31.114 80.6559 32.6511 81.8303 34.4041C83.0134 36.1571 84.1446 37.7115 85.1982 39.0673C86.2603 40.4317 93.0134 48.4628 94.3173 50L79.2483 49.9913C77.0894 47.5388 74.9823 44.81 72.9356 41.8221C70.8804 38.8428 69.0151 35.7772 67.3139 32.6511C65.6213 29.5164 64.041 26.2953 62.573 22.9792C63.661 22.1848 64.7318 21.4248 65.7768 20.6908C66.8217 19.9568 67.8838 19.1364 68.9546 18.2124C70.0255 17.297 70.9063 16.3558 71.5799 15.3886C72.2621 14.4128 72.6075 13.4628 72.6075 12.5129C72.6075 11.7185 72.3571 11.114 71.8735 10.7254C71.3812 10.3281 70.7422 10.0777 69.965 9.97406C69.1878 9.87044 68.2465 9.80135 67.1412 9.81862L49.2051 10.0518L50.9408 0.0258789L72.2966 0.0345145Z" fill="#E31E24"/>
<path d="M52.5652 49.1623H45.959V29.9395L50.8813 0.00863558L65.0263 0L52.5652 49.1623Z" fill="#E31E24"/>
<path d="M52.4781 49.2314H45.8633V47.4698H52.9185L52.4695 49.2314H52.4781ZM45.8633 44.2055V42.3402H54.2225L53.7476 44.2055H45.8633ZM45.8633 39.0674V37.2884H55.5006L55.0515 39.0674H45.8633ZM45.8633 34.0155V31.8048H56.8909L56.3296 34.0155H45.8633ZM46.1051 28.532L46.4419 26.5285H58.2294L57.7199 28.532H46.1137H46.1051ZM46.9859 23.2556L47.34 21.114H59.5939L59.0498 23.2556H46.9859ZM47.884 17.8411L48.2294 15.7772H60.9496L60.4229 17.8411H47.884ZM48.7735 12.5043L49.0671 10.7168H62.2277L61.7787 12.5043H48.7735ZM49.6198 7.44387L49.9306 5.58722H63.5317L63.0567 7.44387H49.6111H49.6198ZM50.4747 2.31434L50.8633 0H64.9565L64.3693 2.31434H50.4833H50.4747Z" fill="#2B2A29"/>
</svg>
