<svg width="21" height="20" viewBox="0 0 21 20" fill="none" xmlns="http://www.w3.org/2000/svg">
<g clip-path="url(#clip0_260_4840)">
<path d="M18.3348 2.5H1.66682C0.747522 2.5 0 3.24746 0 4.16668V15.8334C0 16.7525 0.747522 17.5 1.66682 17.5H18.3349C19.2541 17.5 20.0016 16.7525 20.0016 15.8333V4.16668C20.0016 3.24746 19.2541 2.5 18.3348 2.5ZM1.66682 3.33332H18.3349C18.3963 3.33332 18.4504 3.3557 18.508 3.36836C17.0649 4.68895 12.28 9.06598 10.6056 10.5745C10.4745 10.6925 10.2633 10.8333 10.0009 10.8333C9.73837 10.8333 9.52718 10.6925 9.39573 10.5741C7.72141 9.06582 2.93622 4.68855 1.4934 3.36844C1.55114 3.35578 1.60536 3.33332 1.66682 3.33332ZM0.833388 15.8333V4.16668C0.833388 4.08504 0.857999 4.01098 0.880033 3.93637C1.9845 4.94715 5.32321 8.00121 7.48807 9.96969C5.33024 11.8231 1.99067 14.989 0.877415 16.0505C0.857765 15.9796 0.833388 15.9104 0.833388 15.8333ZM18.3348 16.6667H1.66682C1.60025 16.6667 1.54106 16.6435 1.47891 16.6286C2.62928 15.5321 5.9901 12.3479 8.11 10.5345C8.38635 10.7852 8.63879 11.0137 8.83779 11.193C9.18125 11.5031 9.58328 11.6667 10.0008 11.6667C10.4183 11.6667 10.8204 11.5031 11.1634 11.1934C11.3625 11.0141 11.6151 10.7853 11.8916 10.5345C14.0116 12.3477 17.372 15.5316 18.5227 16.6286C18.4606 16.6435 18.4015 16.6667 18.3348 16.6667ZM19.1682 15.8333C19.1682 15.9103 19.1439 15.9796 19.1243 16.0505C18.0106 14.9885 14.6714 11.8229 12.5136 9.96973C14.6785 8.00125 18.0167 4.94746 19.1216 3.93629C19.1436 4.0109 19.1682 4.085 19.1682 4.16664V15.8333Z" fill="#FF1C2D"/>
</g>
<defs>
<clipPath id="clip0_260_4840">
<rect width="20.0016" height="20" fill="white"/>
</clipPath>
</defs>
</svg>
