<svg width="31" height="30" viewBox="0 0 31 30" fill="none" xmlns="http://www.w3.org/2000/svg">
<rect x="0.144531" width="30" height="30" rx="15" fill="url(#paint0_linear_272_6075)"/>
<g clip-path="url(#clip0_272_6075)">
<path d="M14.2604 18.6787C12.865 18.5332 11.6068 18.1895 10.5296 17.347C10.396 17.2422 10.258 17.1412 10.136 17.0241C9.66452 16.5713 9.61702 16.0526 9.9901 15.5182C10.3093 15.0608 10.845 14.9385 11.4019 15.2011C11.5097 15.252 11.6125 15.3155 11.7109 15.3838C13.7184 16.7632 16.4763 16.8013 18.4914 15.4458C18.691 15.2927 18.9044 15.1679 19.1517 15.1042C19.6327 14.9807 20.0811 15.1574 20.3392 15.5781C20.6341 16.0587 20.6303 16.5277 20.267 16.9008C19.7098 17.4728 19.0396 17.8866 18.2949 18.1754C17.5908 18.4483 16.8196 18.5858 16.0563 18.677C16.1715 18.8024 16.2257 18.864 16.2978 18.9364C17.3342 19.9778 18.3752 21.0148 19.4083 22.0594C19.7603 22.4154 19.8338 22.8567 19.64 23.2707C19.4281 23.7231 18.9538 24.0208 18.4887 23.9889C18.1941 23.9686 17.9643 23.8219 17.7601 23.6162C16.9779 22.8292 16.1811 22.0566 15.4147 21.2546C15.1917 21.0214 15.0844 21.0656 14.8876 21.268C14.1008 22.0781 13.3011 22.8757 12.4966 23.6688C12.1354 24.0249 11.7056 24.089 11.2867 23.8856C10.8414 23.6698 10.5581 23.2152 10.58 22.7585C10.5951 22.4495 10.747 22.2135 10.9591 22.0017C11.9848 20.9775 13.0077 19.9507 14.031 18.9247C14.0987 18.8565 14.1618 18.7841 14.2604 18.6787Z" fill="white"/>
<path d="M15.11 15.111C12.6206 15.1025 10.5793 13.0388 10.5938 10.5454C10.6082 8.02453 12.6508 5.99304 15.1647 6.00002C17.6837 6.0068 19.7055 8.06751 19.6929 10.6146C19.6801 13.1029 17.6246 15.1196 15.11 15.111ZM17.3724 10.5514C17.3681 9.31343 16.3821 8.32785 15.1466 8.32672C13.9006 8.3254 12.9058 9.32889 12.9154 10.5782C12.9247 11.8115 13.9191 12.7901 15.1581 12.7856C16.3932 12.7812 17.3766 11.7893 17.3724 10.5514Z" fill="white"/>
</g>
<defs>
<linearGradient id="paint0_linear_272_6075" x1="30.694" y1="3.5" x2="-4.41969" y2="16.9213" gradientUnits="userSpaceOnUse">
<stop stop-color="#FFA451"/>
<stop offset="1" stop-color="#FF8C21"/>
</linearGradient>
<clipPath id="clip0_272_6075">
<rect width="18" height="18" fill="white" transform="translate(6.14453 6)"/>
</clipPath>
</defs>
</svg>
