<svg width="21" height="20" viewBox="0 0 21 20" fill="none" xmlns="http://www.w3.org/2000/svg">
<path d="M15.328 14.17L20.3649 19.2069L19.5718 20L14.5349 14.9631L15.328 14.17Z" fill="#4D5D75"/>
<path d="M9.02501 17.3235C4.22775 17.3235 0.363281 13.459 0.363281 8.66173C0.363281 3.86447 4.22775 0 9.02501 0C13.8223 0 17.6867 3.86447 17.6867 8.66173C17.6867 13.459 13.8223 17.3235 9.02501 17.3235ZM9.02501 1.33257C4.96066 1.33257 1.69586 4.59738 1.69586 8.66173C1.69586 12.7261 4.96066 15.9909 9.02501 15.9909C13.0894 15.9909 16.3542 12.7261 16.3542 8.66173C16.3542 4.59738 13.0894 1.33257 9.02501 1.33257Z" fill="#4D5D75"/>
</svg>
