<svg width="21" height="20" viewBox="0 0 21 20" fill="none" xmlns="http://www.w3.org/2000/svg">
<path d="M14.9648 14.17L20.0016 19.2069L19.2085 20L14.1716 14.9631L14.9648 14.17Z" fill="#FF1C2D"/>
<path d="M8.66173 17.3235C3.86447 17.3235 0 13.459 0 8.66173C0 3.86447 3.86447 0 8.66173 0C13.459 0 17.3235 3.86447 17.3235 8.66173C17.3235 13.459 13.459 17.3235 8.66173 17.3235ZM8.66173 1.33257C4.59738 1.33257 1.33257 4.59738 1.33257 8.66173C1.33257 12.7261 4.59738 15.9909 8.66173 15.9909C12.7261 15.9909 15.9909 12.7261 15.9909 8.66173C15.9909 4.59738 12.7261 1.33257 8.66173 1.33257Z" fill="#FF1C2D"/>
</svg>
