<svg width="50" height="50" viewBox="0 0 50 50" fill="none" xmlns="http://www.w3.org/2000/svg">
<g clip-path="url(#clip0_227_17233)">
<path d="M47.1931 7.54033V23.5956C47.1931 27.5694 45.3718 32.1819 42.066 36.5835C38.2133 41.7116 32.5383 46.2381 25.6542 49.6738L24.9999 50L24.3456 49.6738C17.4615 46.2381 11.7865 41.7116 7.93379 36.5835C4.628 32.1819 2.80664 27.5694 2.80664 23.5956V7.54033L13.6039 0H36.3958L47.1931 7.54033Z" fill="#959EAD"/>
<path d="M47.1932 7.54033V23.5956C47.1932 27.5694 45.3719 32.1819 42.0661 36.5835C38.2134 41.7116 32.5384 46.2381 25.6543 49.6738L25 50V0H36.396L47.1932 7.54033Z" fill="#959EAD"/>
<path d="M34.5518 5.85962H15.4475L8.66602 10.5952V23.5957C8.66602 28.0636 13.0617 36.7944 24.9997 43.3992C36.9376 36.7944 41.3333 28.0636 41.3333 23.5957V10.5952L34.5518 5.85962Z" fill="#FF1C2D"/>
<path d="M41.3336 10.5952V23.5957C41.3336 28.0636 36.938 36.7944 25 43.3992V5.85962H34.5521L41.3336 10.5952Z" fill="#FF1C2D"/>
<path d="M35.0128 4.39465H14.9866L7.20117 9.83139V23.5956C7.20117 26.4531 8.64849 30.0841 11.1711 33.5569C14.2425 37.7856 18.7788 41.6324 24.2907 44.6814L24.9997 45.074L25.7087 44.6814C31.2207 41.6324 35.757 37.7856 38.8284 33.5569C41.3509 30.0841 42.7983 26.4531 42.7983 23.5956V9.83139L35.0128 4.39465ZM39.8685 23.5956C39.8685 27.4932 35.8927 35.4515 24.9997 41.7174C14.1067 35.4515 10.131 27.4932 10.131 23.5956V11.3588L15.9085 7.32446H34.0909L39.8685 11.3588V23.5956Z" fill="white"/>
<path d="M42.7985 9.83139V23.5956C42.7985 26.4531 41.3512 30.0841 38.8287 33.5569C35.7573 37.7856 31.2209 41.6324 25.709 44.6814L25 45.074V41.7174C35.893 35.4515 39.8687 27.4932 39.8687 23.5956V11.3588L34.0912 7.32446H25V4.39465H35.0131L42.7985 9.83139Z" fill="white"/>
<path d="M34.3523 17.0163L25.0004 26.628L24.9808 26.6485L22.6028 29.092L15.6484 22.5878L17.6495 20.4481L22.5052 24.9903L24.9808 22.4472L25.0004 22.4267L32.2526 14.9733L34.3523 17.0163Z" fill="white"/>
<path d="M34.3519 17.0163L25 26.628V22.4267L32.2522 14.9733L34.3519 17.0163Z" fill="white"/>
</g>
<defs>
<clipPath id="clip0_227_17233">
<rect width="50" height="50" fill="white"/>
</clipPath>
</defs>
</svg>
