<svg width="50" height="50" viewBox="0 0 50 50" fill="none" xmlns="http://www.w3.org/2000/svg">
<g clip-path="url(#clip0_27_369)">
<path d="M49.7924 39.8437L40.3236 23.4093C40.108 23.0375 39.7486 22.7687 39.333 22.6687C38.9174 22.5687 38.4767 22.6437 38.1142 22.8781L24.9892 31.4406C24.2955 31.8968 24.0767 32.8125 24.4892 33.5312L33.5517 49.2187C33.833 49.7062 34.3517 50 34.9049 50C34.9705 50 35.0424 49.9968 35.108 49.9875C35.7361 49.9031 36.2486 49.45 36.4142 48.8406L38.8549 39.6656L48.0299 42.1312C48.6424 42.3 49.2861 42.075 49.6736 41.575C50.0611 41.0781 50.1049 40.3937 49.7924 39.8437Z" fill="#959EAD"/>
<path d="M25.0082 31.4438L11.8832 22.8813C11.5238 22.6438 11.077 22.5657 10.6645 22.6719C10.4581 22.7205 10.2639 22.8111 10.094 22.9379C9.92412 23.0648 9.78216 23.2253 9.67697 23.4094L0.208219 39.8438C-0.107406 40.3938 -0.0605308 41.0782 0.323844 41.5782C0.708219 42.0782 1.35509 42.3032 1.96759 42.1344L11.1426 39.6688L13.5832 48.8438C13.7457 49.4532 14.2613 49.9063 14.8863 49.9907C14.9551 49.9969 15.027 50 15.0926 50C15.3669 50 15.6363 49.9278 15.8738 49.7907C16.1113 49.6535 16.3086 49.4563 16.4457 49.2188L25.5082 33.5313C25.9238 32.8157 25.7051 31.8969 25.0082 31.4438Z" fill="#959EAD"/>
<path d="M24.998 34.375C34.4904 34.375 42.1855 26.6799 42.1855 17.1875C42.1855 7.69511 34.4904 0 24.998 0C15.5057 0 7.81055 7.69511 7.81055 17.1875C7.81055 26.6799 15.5057 34.375 24.998 34.375Z" fill="#FF1C2D"/>
<path d="M34.2955 13.2875C34.2129 13.0408 34.0703 12.8186 33.8805 12.6407C33.6906 12.4629 33.4595 12.335 33.208 12.2687L28.7736 11.1094L26.3424 7.0156C25.7799 6.0656 24.2174 6.0656 23.658 7.0156L21.2268 11.1094L16.7924 12.2687C16.2768 12.4031 15.8705 12.7844 15.7018 13.2875C15.533 13.7906 15.633 14.3406 15.9643 14.7562L18.933 18.475L18.6111 23.3344C18.5942 23.6009 18.6455 23.8674 18.7604 24.1086C18.8752 24.3498 19.0497 24.5576 19.2674 24.7125C19.7111 25.0281 20.283 25.0875 20.783 24.875L24.9986 23.0844L29.2174 24.875C29.4098 24.9579 29.6172 25.0005 29.8268 25C30.1486 25 30.4611 24.9031 30.7299 24.7125C30.9486 24.5586 31.1239 24.3509 31.2388 24.1095C31.3538 23.8681 31.4045 23.6011 31.3861 23.3344L31.0611 18.475L34.0299 14.7562C34.3611 14.3406 34.4611 13.7906 34.2955 13.2875Z" fill="#FAFAFA"/>
</g>
<defs>
<clipPath id="clip0_27_369">
<rect width="50" height="50" fill="white"/>
</clipPath>
</defs>
</svg>
