<svg width="50" height="50" viewBox="0 0 50 50" fill="none" xmlns="http://www.w3.org/2000/svg">
<g clip-path="url(#clip0_27_358)">
<path d="M25 50C38.8071 50 50 38.8071 50 25C50 11.1929 38.8071 0 25 0C11.1929 0 0 11.1929 0 25C0 38.8071 11.1929 50 25 50Z" fill="#959EAD"/>
<path d="M50.0009 25V24.9982L37.8485 12.8459C34.6247 9.43941 30.0612 7.31372 25.0009 7.31372C15.2329 7.31362 7.31445 15.2321 7.31445 25C7.31445 30.0604 9.44014 34.624 12.8467 37.8477L24.999 50H25.0009C38.808 50 50.0009 38.8072 50.0009 25Z" fill="#959EAD"/>
<path d="M24.999 42.6865C34.767 42.6865 42.6855 34.768 42.6855 25C42.6855 15.232 34.767 7.31348 24.999 7.31348C15.231 7.31348 7.3125 15.232 7.3125 25C7.3125 34.768 15.231 42.6865 24.999 42.6865Z" fill="#FF1C2D"/>
<path d="M42.6864 25C42.6864 34.768 34.768 42.6865 25 42.6865V7.3136C34.768 7.3136 42.6864 15.2321 42.6864 25Z" fill="#FF1C2D"/>
<path d="M16.2095 33.6175L24.3371 24.2795L31.7153 14.5091L33.7904 16.3537L25.9223 25.4612L18.2558 35.491L16.2095 33.6175ZM22.651 15.7772C22.1993 15.3738 21.6756 15.0568 21.0803 14.8261C20.4845 14.5956 19.8409 14.4802 19.1492 14.4802C18.4575 14.4802 17.8135 14.5956 17.2182 14.8261C16.6224 15.0568 16.1036 15.3738 15.6617 15.7772C15.2234 16.1758 14.8662 16.6553 14.6098 17.1894C14.3504 17.7276 14.2207 18.304 14.2207 18.9187C14.2207 19.5338 14.3504 20.1148 14.6098 20.6624C14.8691 21.21 15.2195 21.6855 15.6617 22.0891C16.1035 22.4925 16.6224 22.8095 17.2182 23.0402C17.8135 23.2708 18.4575 23.3861 19.1492 23.3861C19.8409 23.3861 20.4845 23.2708 21.0803 23.0402C21.6756 22.8095 22.1993 22.4925 22.651 22.0891C23.1022 21.6856 23.453 21.21 23.703 20.6624C23.9525 20.1148 24.0777 19.5338 24.0777 18.9187C24.0777 18.304 23.9525 17.7276 23.703 17.1894C23.453 16.6517 23.1022 16.1807 22.651 15.7772ZM20.3741 20.4895C20.0378 20.9218 19.6293 21.1379 19.1493 21.1379C18.6688 21.1379 18.2603 20.9217 17.9244 20.4895C17.5881 20.0572 17.42 19.5339 17.42 18.9188C17.42 18.3234 17.5881 17.8091 17.9244 17.3769C18.2604 16.9446 18.6688 16.7285 19.1493 16.7285C19.6293 16.7285 20.0378 16.9401 20.3741 17.3625C20.7102 17.7853 20.8785 18.3042 20.8785 18.9189C20.8785 19.5339 20.7102 20.0572 20.3741 20.4895Z" fill="white"/>
<path d="M35.4045 29.3376C35.1545 28.7899 34.8037 28.3145 34.3524 27.9109C33.9008 27.5075 33.3771 27.1904 32.7817 26.9599C32.1859 26.7293 31.5424 26.614 30.8507 26.614C30.1589 26.614 29.5149 26.7293 28.9196 26.9599C28.3238 27.1905 27.8051 27.5075 27.3632 27.9109C26.921 28.3145 26.5706 28.79 26.3112 29.3376C26.0519 29.8852 25.9222 30.4666 25.9222 31.0812C25.9222 31.6964 26.0519 32.2729 26.3112 32.8105C26.5675 33.3447 26.9247 33.8242 27.3632 34.2227C27.805 34.6262 28.3237 34.9432 28.9196 35.1738C29.5149 35.4044 30.1589 35.5197 30.8507 35.5197C31.5424 35.5197 32.1858 35.4044 32.7817 35.1738C33.3771 34.9432 33.9008 34.6262 34.3524 34.2227C34.8037 33.8192 35.1545 33.3486 35.4045 32.8105C35.654 32.2729 35.7792 31.6964 35.7792 31.0812C35.7792 30.4666 35.6539 29.8852 35.4045 29.3376ZM32.0899 32.6231C31.744 33.0555 31.3307 33.2716 30.8507 33.2716C30.3702 33.2716 29.9616 33.0604 29.6258 32.6376C29.2894 32.2151 29.1214 31.6964 29.1214 31.0812C29.1214 30.4665 29.2894 29.9428 29.6258 29.5104C29.9617 29.0781 30.3702 28.8619 30.8507 28.8619C31.3307 28.8619 31.744 29.0781 32.0899 29.5104C32.4358 29.9428 32.6088 30.4665 32.6088 31.0812C32.6088 31.677 32.4359 32.1909 32.0899 32.6231ZM31.7158 14.5088L25 23.4014V26.667L25.9219 25.4609L33.79 16.3535L31.7158 14.5088Z" fill="white"/>
</g>
<defs>
<clipPath id="clip0_27_358">
<rect width="50" height="50" fill="white"/>
</clipPath>
</defs>
</svg>
