<svg width="30" height="30" viewBox="0 0 30 30" fill="none" xmlns="http://www.w3.org/2000/svg">
<path d="M15.151 0.00134766C15.1009 0.000644531 15.0501 0 15 0C14.9499 0 14.8991 0.000644531 14.849 0.00134766C6.63428 0.0817383 0 6.76617 0 15C0 23.2338 6.63428 29.9183 14.849 29.9986C14.8991 29.9993 14.9499 29.9999 15 29.9999C15.0501 29.9999 15.1009 29.9993 15.151 29.9986C21.5242 29.8952 27.9851 23.2194 27.9851 15C27.9851 6.78064 21.5242 0.104824 15.151 0.00134766Z" fill="#FFCC3D"/>
<path d="M20.4118 11.0659C19.3713 11.0659 18.525 11.9123 18.525 12.9527H22.2986C22.2986 11.9124 21.4522 11.0659 20.4118 11.0659ZM9.58801 11.0659C8.54756 11.0659 7.70117 11.9123 7.70117 12.9527H11.4748C11.4748 11.9124 10.6285 11.0659 9.58801 11.0659Z" fill="#FFBB02"/>
<path d="M15.1504 0.00134277C23.3651 0.0817334 29.9994 6.76617 29.9994 15C29.9994 23.2338 23.3651 29.9183 15.1504 29.9987C21.5236 29.8952 26.6658 23.2194 26.6658 15C26.6658 6.78064 21.5236 0.104819 15.1504 0.00134277Z" fill="#FFBB02"/>
<path d="M5.30813 17.3175C5.94537 17.3175 6.46195 16.801 6.46195 16.1637C6.46195 15.5265 5.94537 15.0099 5.30813 15.0099C4.67088 15.0099 4.1543 15.5265 4.1543 16.1637C4.1543 16.801 4.67088 17.3175 5.30813 17.3175Z" fill="#FF7A2F"/>
<path d="M14.9998 22.7514C12.402 22.7514 9.97924 21.462 8.51891 19.3021C8.4465 19.1935 8.42001 19.0606 8.44521 18.9325C8.47041 18.8043 8.54526 18.6914 8.65343 18.6182C8.7616 18.5451 8.89431 18.5177 9.0226 18.542C9.15089 18.5664 9.26435 18.6405 9.33822 18.7481C10.6144 20.6355 12.7309 21.7624 14.9998 21.7624C17.2687 21.7624 19.3852 20.6356 20.6613 18.7482C20.6977 18.6944 20.7443 18.6483 20.7985 18.6125C20.8527 18.5767 20.9134 18.552 20.9772 18.5397C21.041 18.5273 21.1065 18.5277 21.1702 18.5407C21.2338 18.5538 21.2942 18.5792 21.348 18.6156C21.4018 18.652 21.4479 18.6986 21.4837 18.7528C21.5195 18.807 21.5442 18.8677 21.5566 18.9314C21.5689 18.9952 21.5685 19.0608 21.5555 19.1244C21.5425 19.188 21.517 19.2484 21.4807 19.3022C20.0203 21.462 17.5975 22.7514 14.9998 22.7514ZM22.3896 13.4473C22.2585 13.4473 22.1327 13.3952 22.0399 13.3024C21.9472 13.2097 21.8951 13.0839 21.8951 12.9527C21.8951 12.1347 21.2295 11.4692 20.4116 11.4692C19.5936 11.4692 18.928 12.1346 18.928 12.9527C18.928 13.2258 18.7067 13.4473 18.4335 13.4473C18.1603 13.4473 17.939 13.2258 17.939 12.9527C17.939 11.5894 19.0481 10.4802 20.4115 10.4802C21.7749 10.4802 22.884 11.5893 22.884 12.9527C22.8841 13.0177 22.8713 13.082 22.8465 13.142C22.8216 13.202 22.7852 13.2565 22.7393 13.3024C22.6934 13.3484 22.6389 13.3848 22.5789 13.4096C22.5189 13.4345 22.4546 13.4473 22.3896 13.4473ZM11.5659 13.4473C11.4347 13.4473 11.309 13.3952 11.2162 13.3024C11.1235 13.2097 11.0714 13.0839 11.0714 12.9527C11.0714 12.1347 10.4059 11.4692 9.58783 11.4692C8.7698 11.4692 8.1043 12.1346 8.1043 12.9527C8.1043 13.0839 8.05219 13.2097 7.95945 13.3024C7.86671 13.3952 7.74092 13.4473 7.60977 13.4473C7.47861 13.4473 7.35282 13.3952 7.26008 13.3024C7.16734 13.2097 7.11523 13.0839 7.11523 12.9527C7.11523 11.5894 8.22436 10.4802 9.58777 10.4802C10.9512 10.4802 12.0603 11.5893 12.0603 12.9527C12.0603 13.0177 12.0476 13.082 12.0227 13.142C11.9979 13.202 11.9615 13.2565 11.9155 13.3024C11.8696 13.3483 11.8151 13.3848 11.7551 13.4096C11.6951 13.4345 11.6308 13.4473 11.5659 13.4473Z" fill="#804E30"/>
<path d="M15.9882 24.7294H14.0102C13.879 24.7294 13.7532 24.6773 13.6605 24.5846C13.5677 24.4918 13.5156 24.366 13.5156 24.2349C13.5156 24.1037 13.5677 23.9779 13.6605 23.8852C13.7532 23.7925 13.879 23.7404 14.0102 23.7404H15.9882C16.2613 23.7404 16.4827 23.9618 16.4827 24.2349C16.4827 24.508 16.2613 24.7294 15.9882 24.7294Z" fill="#FFBB02"/>
<path d="M24.6929 17.3175C25.3301 17.3175 25.8467 16.801 25.8467 16.1637C25.8467 15.5265 25.3301 15.0099 24.6929 15.0099C24.0556 15.0099 23.5391 15.5265 23.5391 16.1637C23.5391 16.801 24.0556 17.3175 24.6929 17.3175Z" fill="#FF7A2F"/>
</svg>
