<svg width="40" height="41" viewBox="0 0 40 41" fill="none" xmlns="http://www.w3.org/2000/svg">
<rect y="0.5" width="40" height="40" rx="20" fill="url(#paint0_linear_185_755)"/>
<path d="M16.8476 23.1508L16.5168 27.8042C16.9901 27.8042 17.1951 27.6008 17.441 27.3567L19.6601 25.2358L24.2585 28.6033C25.1018 29.0733 25.696 28.8258 25.9235 27.8275L28.9418 13.6842L28.9426 13.6833C29.2101 12.4367 28.4918 11.9492 27.6701 12.255L9.92848 19.0475C8.71765 19.5175 8.73598 20.1925 9.72265 20.4983L14.2585 21.9092L24.7943 15.3167C25.2901 14.9883 25.741 15.17 25.3701 15.4983L16.8476 23.1508Z" fill="white"/>
<defs>
<linearGradient id="paint0_linear_185_755" x1="40.7326" y1="5.16666" x2="-6.08563" y2="23.0618" gradientUnits="userSpaceOnUse">
<stop stop-color="#1FB5FE"/>
<stop offset="1" stop-color="#1593D0"/>
</linearGradient>
</defs>
</svg>
