<svg width="14" height="14" viewBox="0 0 14 14" fill="none" xmlns="http://www.w3.org/2000/svg">
<g clip-path="url(#clip0_107_816)">
<path fill-rule="evenodd" clip-rule="evenodd" d="M0.0136719 6.99999C0.0136719 5.07065 0.695813 3.42387 2.05999 2.05953C3.42427 0.695353 5.07105 0.0132141 7.00044 0.0132141C8.92984 0.0132141 10.5766 0.695353 11.9409 2.05953C13.3051 3.42381 13.9872 5.0706 13.9872 6.99999C13.9872 8.92938 13.3051 10.5761 11.9409 11.9404C10.5766 13.3046 8.92984 13.9868 7.00044 13.9868C5.07105 13.9868 3.42432 13.3046 2.05999 11.9404C0.695813 10.5762 0.0136719 8.92938 0.0136719 6.99999ZM6.06881 6.99999C6.06881 6.56082 6.22403 6.27699 6.53458 6.14838V2.80808C6.53458 2.67947 6.58002 2.56968 6.67099 2.4787C6.76196 2.38773 6.87176 2.3423 7.00036 2.3423C7.12897 2.3423 7.23876 2.38773 7.32974 2.4787C7.42071 2.56968 7.46614 2.67947 7.46614 2.80808V6.14838C7.7767 6.27699 7.93192 6.56082 7.93192 6.99999C7.93192 7.09085 7.92527 7.17517 7.91196 7.25284L9.1129 8.45378C9.20387 8.54475 9.24931 8.65454 9.24931 8.78315C9.24931 8.91176 9.20387 9.02155 9.1129 9.11252C9.02203 9.2035 8.91224 9.24893 8.78353 9.24893C8.65492 9.24893 8.54513 9.2035 8.45415 9.11252L7.25322 7.91158C7.17566 7.92489 7.09134 7.93155 7.00036 7.93155C6.37936 7.93155 6.06881 7.62099 6.06881 6.99999Z" fill="#959EAD"/>
</g>
<defs>
<clipPath id="clip0_107_816">
<rect width="14" height="14" fill="white"/>
</clipPath>
</defs>
</svg>
