<svg width="24" height="21" viewBox="0 0 24 21" fill="none" xmlns="http://www.w3.org/2000/svg">
<path fill-rule="evenodd" clip-rule="evenodd" d="M11.6534 6.18078L11.7054 7.03863L10.8383 6.93359C7.68221 6.53093 4.92494 5.16537 2.58386 2.87193L1.43933 1.73396L1.14453 2.57431C0.52024 4.44757 0.91909 6.42588 2.21969 7.75643C2.91334 8.49173 2.75727 8.59677 1.56072 8.15909C1.14453 8.01903 0.78036 7.91399 0.745677 7.96651C0.624288 8.08906 1.04048 9.68221 1.36996 10.3125C1.82084 11.1878 2.73993 12.0457 3.74573 12.5534L4.59545 12.9561L3.58965 12.9736C2.61854 12.9736 2.58386 12.9911 2.68791 13.3587C3.03473 14.4967 4.4047 15.7047 5.93073 16.2299L7.0059 16.5975L6.06946 17.1578C4.68216 17.9631 3.05207 18.4183 1.42199 18.4533C0.641629 18.4708 0 18.5408 0 18.5934C0 18.7684 2.11564 19.7488 3.34688 20.134C7.04058 21.272 11.4279 20.7818 14.7228 18.8385C17.0639 17.4554 19.4049 14.7068 20.4974 12.0457C21.087 10.6276 21.6767 8.03654 21.6767 6.79353C21.6767 5.9882 21.7287 5.88316 22.6998 4.92027C23.2721 4.36004 23.8096 3.74729 23.9137 3.57222C24.0871 3.23958 24.0698 3.23958 23.1854 3.5372C21.7113 4.06242 21.5032 3.99239 22.2316 3.20457C22.7692 2.64434 23.4108 1.62892 23.4108 1.3313C23.4108 1.27878 23.1507 1.36631 22.8559 1.52388C22.5437 1.69895 21.8501 1.96156 21.3298 2.11912L20.3934 2.41674L19.5437 1.83901C19.0755 1.52388 18.4165 1.17373 18.0697 1.06869C17.1853 0.823591 15.8326 0.858606 15.0349 1.13872C12.8673 1.92654 11.4973 3.95737 11.6534 6.18078Z" fill="#D5D7E7"/>
</svg>
