<svg width="40" height="41" viewBox="0 0 40 41" fill="none" xmlns="http://www.w3.org/2000/svg">
<rect y="0.5" width="40" height="40" rx="20" fill="url(#paint0_linear_185_751)"/>
<g clip-path="url(#clip0_185_751)">
<path d="M28.894 25.0999C28.8698 25.0477 28.8472 25.0044 28.8262 24.9697C28.4792 24.3447 27.8161 23.5776 26.8373 22.6682L26.8166 22.6474L26.8063 22.6372L26.7958 22.6267H26.7853C26.341 22.2032 26.0597 21.9185 25.9419 21.7727C25.7264 21.495 25.6781 21.2139 25.7959 20.9291C25.8791 20.7139 26.1918 20.2595 26.7331 19.5651C27.0178 19.1972 27.2433 18.9022 27.4099 18.68C28.611 17.0833 29.1317 16.0629 28.9719 15.6186L28.9099 15.5147C28.8682 15.4522 28.7606 15.395 28.5872 15.3429C28.4135 15.2908 28.1914 15.2822 27.9206 15.3169L24.9217 15.3376C24.8731 15.3204 24.8037 15.322 24.7134 15.3429C24.6231 15.3637 24.5779 15.3742 24.5779 15.3742L24.5257 15.4003L24.4843 15.4316C24.4496 15.4523 24.4114 15.4888 24.3697 15.5409C24.3282 15.5928 24.2936 15.6537 24.2658 15.7231C23.9393 16.5631 23.5681 17.3441 23.1515 18.066C22.8946 18.4965 22.6587 18.8696 22.4433 19.1854C22.2281 19.5012 22.0476 19.7339 21.9019 19.883C21.756 20.0323 21.6244 20.1519 21.5061 20.2422C21.3881 20.3326 21.298 20.3708 21.2355 20.3568C21.173 20.3429 21.1141 20.329 21.0583 20.3151C20.9612 20.2526 20.8831 20.1676 20.8242 20.06C20.765 19.9524 20.7252 19.817 20.7044 19.6539C20.6836 19.4906 20.6714 19.3502 20.6679 19.2321C20.6646 19.1142 20.6661 18.9474 20.6732 18.7322C20.6804 18.5169 20.6836 18.3713 20.6836 18.2949C20.6836 18.0311 20.6888 17.7447 20.6991 17.4358C20.7096 17.1269 20.7181 16.8821 20.7252 16.7018C20.7323 16.5213 20.7356 16.3303 20.7356 16.129C20.7356 15.9276 20.7233 15.7698 20.6991 15.6552C20.6752 15.5407 20.6385 15.4296 20.5901 15.3219C20.5414 15.2143 20.4701 15.1311 20.3766 15.072C20.2829 15.013 20.1664 14.9662 20.0278 14.9314C19.6598 14.8481 19.1912 14.8031 18.6219 14.796C17.3307 14.7822 16.501 14.8656 16.1331 15.0461C15.9873 15.1223 15.8554 15.2265 15.7375 15.3583C15.6125 15.5111 15.595 15.5945 15.6853 15.6082C16.1019 15.6706 16.3968 15.8199 16.5703 16.0559L16.6329 16.181C16.6816 16.2712 16.7301 16.431 16.7788 16.66C16.8273 16.8891 16.8586 17.1424 16.8724 17.42C16.9071 17.9269 16.9071 18.3607 16.8724 18.7217C16.8377 19.0827 16.8048 19.3638 16.7735 19.5652C16.7422 19.7665 16.6953 19.9296 16.6329 20.0545C16.5703 20.1795 16.5287 20.2559 16.5079 20.2836C16.487 20.3113 16.4697 20.3288 16.4559 20.3356C16.3657 20.3702 16.2718 20.3878 16.1747 20.3878C16.0774 20.3878 15.9595 20.3392 15.8207 20.2419C15.6819 20.1447 15.5378 20.0111 15.3886 19.841C15.2393 19.6709 15.0709 19.4331 14.8834 19.1277C14.6961 18.8223 14.5017 18.4613 14.3003 18.0448L14.1338 17.7427C14.0296 17.5484 13.8874 17.2655 13.7069 16.8941C13.5263 16.5227 13.3666 16.1633 13.2279 15.8162C13.1724 15.6704 13.089 15.5595 12.978 15.4831L12.9259 15.4518C12.8912 15.424 12.8356 15.3946 12.7593 15.3632C12.6829 15.3319 12.6032 15.3094 12.5198 15.2956L9.66657 15.3163C9.37501 15.3163 9.17718 15.3824 9.07302 15.5143L9.03133 15.5767C9.0105 15.6115 9 15.667 9 15.7434C9 15.8198 9.02083 15.9135 9.06251 16.0245C9.47903 17.0034 9.93198 17.9475 10.4214 18.8569C10.9108 19.7663 11.336 20.4989 11.6969 21.0539C12.0579 21.6093 12.4258 22.1336 12.8007 22.6263C13.1756 23.1192 13.4238 23.4351 13.5452 23.5739C13.6668 23.7129 13.7623 23.8169 13.8317 23.8863L14.092 24.1362C14.2586 24.3028 14.5033 24.5024 14.8261 24.7349C15.149 24.9675 15.5065 25.1966 15.8987 25.4224C16.291 25.6478 16.7474 25.8318 17.2681 25.9741C17.7887 26.1165 18.2955 26.1737 18.7884 26.1461H19.986C20.2288 26.1251 20.4128 26.0487 20.5379 25.9169L20.5793 25.8647C20.6072 25.8233 20.6333 25.7589 20.6573 25.6723C20.6817 25.5855 20.6938 25.4899 20.6938 25.386C20.6867 25.0875 20.7094 24.8185 20.7614 24.579C20.8133 24.3396 20.8724 24.1591 20.9386 24.0376C21.0047 23.9161 21.0793 23.8136 21.1624 23.7305C21.2456 23.6473 21.3049 23.5968 21.3397 23.5795C21.3743 23.562 21.4019 23.5501 21.4227 23.543C21.5893 23.4875 21.7854 23.5413 22.0112 23.7046C22.2369 23.8677 22.4486 24.0692 22.6465 24.3086C22.8444 24.5482 23.0821 24.817 23.3597 25.1155C23.6376 25.414 23.8805 25.636 24.0886 25.782L24.2968 25.9069C24.4359 25.9903 24.6164 26.0667 24.8386 26.1361C25.0604 26.2055 25.2547 26.2228 25.4215 26.1881L28.0872 26.1466C28.3509 26.1466 28.556 26.1029 28.7015 26.0163C28.8474 25.9295 28.934 25.8339 28.9619 25.7299C28.9898 25.6258 28.9913 25.5077 28.9672 25.3757C28.9425 25.244 28.9182 25.1519 28.894 25.0999Z" fill="white"/>
</g>
<defs>
<linearGradient id="paint0_linear_185_751" x1="40.7326" y1="5.16666" x2="-6.08563" y2="23.0618" gradientUnits="userSpaceOnUse">
<stop stop-color="#4BA6D2"/>
<stop offset="1" stop-color="#158DD0"/>
</linearGradient>
<clipPath id="clip0_185_751">
<rect width="20" height="20" fill="white" transform="translate(9 10.5)"/>
</clipPath>
</defs>
</svg>
