<svg width="18" height="18" viewBox="0 0 18 18" fill="none" xmlns="http://www.w3.org/2000/svg">
<g clip-path="url(#clip0_120_9558)">
<path d="M9.00225 0H8.99775C4.03538 0 0 4.0365 0 9C0 10.9688 0.6345 12.7935 1.71337 14.2751L0.59175 17.6186L4.05113 16.5128C5.47425 17.4555 7.17188 18 9.00225 18C13.9646 18 18 13.9624 18 9C18 4.03763 13.9646 0 9.00225 0Z" fill="#FF1C2D"/>
<path d="M14.2396 12.7091C14.0225 13.3222 13.1607 13.8307 12.4734 13.9792C12.0031 14.0793 11.3889 14.1592 9.32111 13.302C6.67623 12.2062 4.97298 9.51858 4.84023 9.34421C4.71311 9.16983 3.77148 7.92108 3.77148 6.62958C3.77148 5.33808 4.42736 4.70921 4.69173 4.43921C4.90886 4.21758 5.26773 4.11633 5.61198 4.11633C5.72336 4.11633 5.82348 4.12196 5.91348 4.12646C6.17786 4.13771 6.31061 4.15346 6.48498 4.57083C6.70211 5.09396 7.23086 6.38546 7.29386 6.51821C7.35798 6.65096 7.42211 6.83096 7.33211 7.00533C7.24773 7.18533 7.17348 7.26521 7.04073 7.41821C6.90798 7.57121 6.78198 7.68821 6.64923 7.85246C6.52773 7.99533 6.39048 8.14833 6.54348 8.41271C6.69648 8.67146 7.22523 9.53433 8.00373 10.2273C9.00836 11.1217 9.82286 11.4075 10.1142 11.529C10.3314 11.619 10.5901 11.5976 10.7487 11.4288C10.9501 11.2117 11.1987 10.8517 11.4519 10.4973C11.6319 10.2431 11.8591 10.2116 12.0976 10.3016C12.3406 10.386 13.6265 11.0216 13.8909 11.1532C14.1552 11.286 14.3296 11.349 14.3937 11.4603C14.4567 11.5717 14.4567 12.0948 14.2396 12.7091Z" fill="#FAFAFA"/>
</g>
<defs>
<clipPath id="clip0_120_9558">
<rect width="18" height="18" fill="white"/>
</clipPath>
</defs>
</svg>
