<svg width="21" height="20" viewBox="0 0 21 20" fill="none" xmlns="http://www.w3.org/2000/svg">
<path d="M17.4643 2.94643C15.6339 1.07143 13.1339 0 10.4554 0C5.00893 0 0.544643 4.46429 0.544643 9.91072C0.544643 11.6964 1.03571 13.3929 1.88393 14.8661L0.5 20L5.72321 18.6607C7.19643 19.4196 8.80357 19.8661 10.4554 19.8661C15.9464 19.8661 20.5 15.4018 20.5 9.95536C20.5 7.27679 19.3393 4.82143 17.4643 2.94643ZM10.4554 18.1696C8.98214 18.1696 7.55357 17.7679 6.25893 17.0089L5.99107 16.8304L2.86607 17.6786L3.71429 14.6429L3.49107 14.3304C2.6875 12.9911 2.24107 11.4732 2.24107 9.91072C2.24107 5.40179 5.94643 1.69643 10.5 1.69643C12.6875 1.69643 14.7411 2.54464 16.3036 4.10714C17.8661 5.66964 18.8036 7.72321 18.8036 9.95536C18.8036 14.4643 15.0089 18.1696 10.4554 18.1696ZM15.0089 12.0089C14.7411 11.875 13.5357 11.2946 13.3125 11.2054C13.0893 11.1161 12.9107 11.0714 12.7321 11.3393C12.5982 11.5625 12.1071 12.1429 11.9732 12.3214C11.7946 12.4554 11.6607 12.5 11.4375 12.3661C9.96429 11.6518 9.02679 11.0714 8.04464 9.41964C7.77679 8.97322 8.3125 9.01786 8.75893 8.08036C8.84821 7.90179 8.80357 7.76786 8.75893 7.63393C8.71429 7.5 8.17857 6.29464 8 5.80357C7.77679 5.3125 7.59821 5.35714 7.41964 5.35714C7.28571 5.35714 7.10714 5.35714 6.97321 5.35714C6.79464 5.35714 6.52679 5.40179 6.30357 5.66964C6.08036 5.9375 5.45536 6.51786 5.45536 7.72321C5.45536 8.97322 6.30357 10.1339 6.4375 10.3125C6.57143 10.4464 8.17857 12.9464 10.6786 14.0179C12.2411 14.7321 12.8661 14.7768 13.6696 14.6429C14.1161 14.5982 15.0982 14.0625 15.3214 13.4821C15.5446 12.9018 15.5446 12.4107 15.4554 12.3214C15.4107 12.1875 15.2321 12.1429 15.0089 12.0089Z" fill="#519FE7"/>
</svg>
