<svg width="32" height="19" viewBox="0 0 32 19" fill="none" xmlns="http://www.w3.org/2000/svg">
<path d="M31.8303 17.1813C31.7915 17.0978 31.7554 17.0285 31.7219 16.973C31.1667 15.9731 30.1057 14.7458 28.5396 13.2907L28.5065 13.2573L28.4899 13.241L28.4732 13.2243H28.4564C27.7456 12.5467 27.2955 12.0911 27.107 11.8579C26.7621 11.4135 26.6849 10.9638 26.8734 10.5081C27.0065 10.1638 27.5068 9.43667 28.3729 8.32574C28.8285 7.73699 29.1893 7.26513 29.4557 6.90962C31.3774 4.3548 32.2106 2.72223 31.955 2.01128L31.8557 1.84515C31.789 1.74512 31.6169 1.65362 31.3395 1.57017C31.0615 1.4869 30.7062 1.47313 30.2729 1.52862L25.4746 1.56177C25.3969 1.53422 25.2859 1.53679 25.1413 1.57017C24.9969 1.60355 24.9246 1.6203 24.9246 1.6203L24.8411 1.66202L24.7748 1.71215C24.7193 1.7453 24.6582 1.8036 24.5915 1.88693C24.5251 1.96997 24.4696 2.06742 24.4253 2.17847C23.9029 3.52247 23.3089 4.77204 22.6423 5.92714C22.2313 6.61592 21.8539 7.21284 21.5092 7.71826C21.1649 8.22351 20.8761 8.59576 20.6431 8.83438C20.4096 9.07323 20.199 9.26458 20.0098 9.40912C19.8209 9.55373 19.6767 9.61483 19.5768 9.59248C19.4768 9.57013 19.3825 9.54795 19.2933 9.52578C19.1379 9.42575 19.0129 9.28973 18.9186 9.11758C18.824 8.94543 18.7603 8.72875 18.7269 8.46772C18.6938 8.20652 18.6742 7.98185 18.6686 7.79296C18.6634 7.60429 18.6658 7.33743 18.677 6.99313C18.6886 6.64865 18.6938 6.41558 18.6938 6.29338C18.6938 5.87124 18.702 5.41308 18.7185 4.91881C18.7353 4.42453 18.7489 4.03291 18.7603 3.7444C18.7716 3.45559 18.7769 3.15004 18.7769 2.82792C18.7769 2.50579 18.7573 2.25317 18.7185 2.06982C18.6803 1.88669 18.6215 1.70894 18.544 1.53662C18.4661 1.36447 18.3521 1.2313 18.2025 1.13676C18.0526 1.04234 17.8662 0.967414 17.6444 0.911742C17.0556 0.778516 16.3059 0.706446 15.3949 0.695242C13.3291 0.673066 12.0017 0.806468 11.413 1.09527C11.1797 1.21729 10.9686 1.38402 10.7799 1.59491C10.5799 1.83937 10.552 1.97277 10.6964 1.99471C11.3629 2.09456 11.8348 2.33341 12.1125 2.71103L12.2126 2.91113C12.2905 3.05551 12.3682 3.3111 12.446 3.67758C12.5236 4.04405 12.5738 4.44945 12.5958 4.89354C12.6513 5.70451 12.6513 6.39872 12.5958 6.97621C12.5402 7.55393 12.4877 8.00368 12.4376 8.3258C12.3874 8.64793 12.3125 8.90895 12.2126 9.10882C12.1125 9.30875 12.0459 9.43095 12.0126 9.4753C11.9792 9.51965 11.9515 9.5476 11.9294 9.55857C11.785 9.61389 11.6349 9.64208 11.4795 9.64208C11.3238 9.64208 11.1351 9.56423 10.913 9.40866C10.691 9.25308 10.4605 9.03938 10.2217 8.76721C9.98283 8.49498 9.71346 8.11456 9.41345 7.62588C9.11368 7.13721 8.80264 6.55966 8.48051 5.89324L8.214 5.40993C8.0474 5.09901 7.81981 4.64629 7.531 4.05217C7.24203 3.45781 6.9866 2.88289 6.76456 2.32751C6.6758 2.09427 6.54246 1.91669 6.36476 1.79449L6.28137 1.74436C6.22593 1.70001 6.13694 1.65292 6.01486 1.60273C5.8926 1.55261 5.76504 1.51666 5.63164 1.49454L1.06651 1.52769C0.600015 1.52769 0.283493 1.63337 0.116829 1.84444L0.0501277 1.94429C0.0168065 1.9999 0 2.08872 0 2.21098C0 2.33318 0.0333212 2.48315 0.100022 2.66073C0.766447 4.227 1.49117 5.73754 2.27419 7.19259C3.05721 8.64764 3.73764 9.81971 4.31507 10.7078C4.89262 11.5965 5.48131 12.4352 6.08115 13.2236C6.68099 14.0123 7.07805 14.5177 7.27231 14.7398C7.46681 14.9622 7.61959 15.1285 7.73064 15.2396L8.14724 15.6394C8.41381 15.906 8.80527 16.2253 9.32177 16.5973C9.8384 16.9696 10.4103 17.3361 11.0379 17.6974C11.6656 18.0581 12.3958 18.3524 13.2289 18.58C14.062 18.8079 14.8728 18.8994 15.6614 18.8553H17.5775C17.9661 18.8217 18.2605 18.6995 18.4606 18.4886L18.5269 18.4051C18.5715 18.3388 18.6132 18.2358 18.6517 18.0972C18.6907 17.9584 18.7101 17.8054 18.7101 17.6391C18.6987 17.1615 18.735 16.7312 18.8181 16.348C18.9012 15.9649 18.9958 15.6761 19.1017 15.4816C19.2075 15.2873 19.3269 15.1233 19.4598 14.9904C19.5929 14.8572 19.6878 14.7765 19.7435 14.7487C19.7988 14.7207 19.843 14.7018 19.8763 14.6904C20.1429 14.6016 20.4566 14.6876 20.8179 14.9488C21.179 15.2099 21.5176 15.5322 21.8344 15.9152C22.151 16.2986 22.5313 16.7288 22.9755 17.2063C23.42 17.684 23.8087 18.0391 24.1418 18.2727L24.4749 18.4726C24.6973 18.606 24.9861 18.7282 25.3416 18.8393C25.6965 18.9503 26.0074 18.978 26.2744 18.9225L30.5395 18.856C30.9613 18.856 31.2896 18.7862 31.5224 18.6476C31.7557 18.5087 31.8943 18.3558 31.939 18.1894C31.9836 18.0229 31.986 17.8339 31.9475 17.6227C31.908 17.4119 31.869 17.2646 31.8303 17.1813Z" fill="#D5D7E7"/>
</svg>
