<svg width="26" height="19" viewBox="0 0 26 19" fill="none" xmlns="http://www.w3.org/2000/svg">
<path fill-rule="evenodd" clip-rule="evenodd" d="M24.9785 3.64304C24.691 2.53854 23.8439 1.66879 22.7682 1.37361C20.8187 0.837158 13.001 0.837158 13.001 0.837158C13.001 0.837158 5.18322 0.837158 3.23365 1.37361C2.15794 1.66879 1.31078 2.53854 1.02328 3.64304C0.500977 5.64481 0.500977 9.82153 0.500977 9.82153C0.500977 9.82153 0.500977 13.9981 1.02328 16C1.31078 17.1045 2.15794 17.9743 3.23365 18.2696C5.18322 18.8059 13.001 18.8059 13.001 18.8059C13.001 18.8059 20.8187 18.8059 22.7682 18.2696C23.8439 17.9743 24.691 17.1045 24.9785 16C25.501 13.9981 25.501 9.82153 25.501 9.82153C25.501 9.82153 25.501 5.64481 24.9785 3.64304ZM10.657 5.91528V13.7278L16.907 9.82168L10.657 5.91528Z" fill="#D5D7E7"/>
</svg>
